<svg width="14" height="23" viewBox="0 0 14 23" fill="none" xmlns="http://www.w3.org/2000/svg">
<path d="M6.93884 0.97876L6.93884 9.07223L13.6834 12.141L6.93884 0.97876Z" fill="#8FFCF3"/>
<path d="M6.93889 0.97876L0.194336 12.141L6.93889 9.07223L6.93889 0.97876Z" fill="#CABCF8"/>
<path d="M6.93884 17.3848L6.93884 22.8985L13.6834 13.4224L6.93884 17.3848Z" fill="#CBA7F5"/>
<path d="M6.93889 22.8985L6.93889 17.3848L0.194336 13.4224L6.93889 22.8985Z" fill="#74A0F3"/>
<path d="M6.93884 16.1203L13.6834 12.141L6.93884 9.07227L6.93884 16.1203Z" fill="#CBA7F5"/>
<path d="M0.194336 12.141L6.93889 16.1203L6.93889 9.07227L0.194336 12.141Z" fill="#74A0F3"/>
<path fill-rule="evenodd" clip-rule="evenodd" d="M6.93889 16.1203L0.194336 12.141L6.93889 0.97876L13.6834 12.141L6.93889 16.1203ZM0.649594 11.8206L6.83772 1.56891L6.83772 9.02164L0.649594 11.8206ZM0.548425 12.0904L6.83772 9.2577L6.83772 15.7999L0.531564 12.0904L0.548425 12.0904ZM7.04006 9.2577L7.04006 15.7999L13.3294 12.0904L7.04006 9.2577ZM7.04006 9.02164L13.2282 11.8206L7.04006 1.56891L7.04006 9.02164Z" fill="#202699"/>
<path fill-rule="evenodd" clip-rule="evenodd" d="M6.93889 17.3007L0.194336 13.4226L6.93889 22.8987L13.6834 13.4058L6.93889 17.3007ZM0.953098 14.0971L6.83772 17.4862L6.83772 22.376L0.936237 14.1139L0.953098 14.0971ZM7.04006 17.4862L7.04006 22.376L12.9415 14.1139L7.04006 17.4862Z" fill="#202699"/>
</svg>
