<svg width="305" height="124" viewBox="0 0 305 124" fill="none" xmlns="http://www.w3.org/2000/svg">
<g filter="url(#filter0_d_109_442)">
<rect x="147" width="112" height="34" rx="4" fill="white"/>
<rect x="147.5" y="0.5" width="111" height="33" rx="3.5" stroke="#F0F3FA"/>
</g>
<rect x="147.5" y="42.5" width="111" height="33" rx="3.5" fill="white" stroke="#F0F3FA" stroke-linecap="round" stroke-dasharray="6 6"/>
<g filter="url(#filter1_d_109_442)">
<rect x="147" y="84" width="112" height="34" rx="4" fill="white"/>
<rect x="147.5" y="84.5" width="111" height="33" rx="3.5" stroke="#F0F3FA"/>
</g>
<g filter="url(#filter2_d_109_442)">
<rect x="186" y="42.5791" width="112" height="34" rx="4" transform="rotate(-12.6771 186 42.5791)" fill="white"/>
<rect x="186.598" y="42.9572" width="111" height="33" rx="3.5" transform="rotate(-12.6771 186.598 42.9572)" stroke="#F0F3FA"/>
</g>
<g filter="url(#filter3_d_109_442)">
<rect x="218.526" y="49.2948" width="4.7321" height="4.7321" rx="1" transform="rotate(-57.68 218.526 49.2948)" fill="#FE005B"/>
<rect x="223.443" y="52.4054" width="4.7321" height="4.7321" rx="1" transform="rotate(-57.68 223.443 52.4054)" fill="#FE005B"/>
<rect x="220.418" y="57.1859" width="4.7321" height="4.7321" rx="1" transform="rotate(-57.68 220.418 57.1859)" fill="#FE005B"/>
<rect x="215.638" y="54.1615" width="4.7321" height="4.7321" rx="1" transform="rotate(-57.68 215.638 54.1615)" fill="#FE005B"/>
</g>
<g filter="url(#filter4_d_109_442)">
<rect x="233.959" y="45.8809" width="39" height="8" rx="4" transform="rotate(-12.68 233.959 45.8809)" fill="#FE005B"/>
</g>
<path fill-rule="evenodd" clip-rule="evenodd" d="M280.255 46L302.127 61.5808L290.941 64.157L282.671 72.9334L280.255 46Z" fill="#1ABCFE"/>
<path fill-rule="evenodd" clip-rule="evenodd" d="M302.127 61.5808L290.941 64.157L282.671 72.9334L280.255 46L302.127 61.5808ZM284.053 68.9241L290.046 62.565L297.944 60.7459L282.322 49.6169L284.053 68.9241Z" fill="#F0F3FA"/>
<g filter="url(#filter5_d_109_442)">
<rect width="131.228" height="39.6819" transform="translate(2.00006)" fill="url(#paint0_linear_109_442)"/>
<path d="M13.6207 21.4671L26.2253 20.5883L26.7332 27.8728L14.1286 28.7516L13.6207 21.4671ZM15.4225 37.8729L5.76437 38.5463L3.76709 9.89941L27.0529 8.27591L27.5608 15.5604L13.9331 16.5105L15.4225 37.8729Z" fill="white"/>
<path d="M46.9663 36.3317C44.6473 36.4933 42.4662 36.2753 40.4232 35.6775C38.4075 35.0778 36.6301 34.16 35.0909 32.9239C33.5498 31.6606 32.3063 30.1435 31.3603 28.3726C30.4417 26.5999 29.9072 24.6358 29.757 22.4805C29.6048 20.2978 29.8615 18.2786 30.5272 16.4228C31.2182 14.5378 32.2401 12.8764 33.5929 11.4388C34.9438 9.97381 36.5757 8.80454 38.4887 7.93095C40.429 7.05545 42.5587 6.53687 44.8777 6.37518C47.224 6.21159 49.405 6.42964 51.4208 7.02932C53.4365 7.62899 55.2149 8.56049 56.756 9.82382C58.2952 11.0599 59.5241 12.5643 60.4427 14.3371C61.3868 16.0806 61.9349 18.0438 62.087 20.2264C62.2373 22.3817 61.9669 24.4019 61.2759 26.2869C60.6121 28.17 59.6048 29.844 58.2539 31.309C56.9012 32.7467 55.2683 33.9023 53.3553 34.7759C51.4423 35.6495 49.3126 36.1681 46.9663 36.3317ZM46.4213 28.5151C47.3217 28.4524 48.1424 28.2307 48.8834 27.85C49.6518 27.4675 50.3016 26.9561 50.8326 26.3159C51.3891 25.6466 51.8006 24.864 52.0671 23.9681C52.3318 23.0449 52.4251 22.024 52.3471 20.9055C52.2691 19.7869 52.036 18.8025 51.6477 17.9522C51.2575 17.0747 50.7414 16.3568 50.0994 15.7984C49.4827 15.2109 48.7673 14.781 47.9533 14.5087C47.1665 14.2346 46.323 14.1289 45.4227 14.1917C44.5223 14.2545 43.688 14.4771 42.9196 14.8597C42.1785 15.2403 41.5297 15.7653 40.9733 16.4347C40.4422 17.0749 40.0443 17.8565 39.7797 18.7797C39.5132 19.6756 39.4189 20.6828 39.4969 21.8014C39.5749 22.92 39.809 23.918 40.1991 24.7955C40.5874 25.6458 41.0899 26.3646 41.7066 26.9522C42.3486 27.5106 43.063 27.9268 43.8498 28.201C44.6638 28.4732 45.521 28.5779 46.4213 28.5151Z" fill="white"/>
<path d="M66.5911 34.3054L64.5938 5.65853L78.3852 4.69698C81.059 4.51056 83.3948 4.78635 85.3927 5.52435C87.418 6.26044 89.0196 7.40987 90.1978 8.97266C91.3741 10.5082 92.0392 12.3809 92.1933 14.5908C92.3474 16.8007 91.9485 18.7475 90.9967 20.4314C90.043 22.088 88.6135 23.4077 86.7081 24.3904C84.83 25.3712 82.5541 25.9548 79.8804 26.1412L71.45 26.729L75.4702 22.4598L76.2492 33.6321L66.5911 34.3054ZM83.7383 33.1099L75.9718 23.165L86.2028 22.4517L94.0512 32.3909L83.7383 33.1099ZM75.5444 23.5238L70.9421 19.4445L78.7586 18.8995C80.0955 18.8063 81.0567 18.4377 81.6424 17.7938C82.2553 17.1479 82.5256 16.3066 82.4534 15.2698C82.3811 14.2331 81.9966 13.4374 81.3 12.8829C80.6306 12.3264 79.6275 12.0948 78.2907 12.188L70.4742 12.7329L74.4659 8.05447L75.5444 23.5238Z" fill="white"/>
<path d="M97.0844 32.1794L95.0871 3.53251L103.026 2.97898L115.789 20.8824L111.615 21.1734L121.442 1.69501L129.382 1.14147L131.461 29.7827L122.662 30.3961L121.507 15.0144L122.899 14.9173L116.18 28.2573L111.924 28.554L103.091 16.2983L104.81 16.1785L105.883 31.566L97.0844 32.1794Z" fill="white"/>
</g>
<g filter="url(#filter6_d_109_442)">
<path d="M127.21 70.7617C127.208 70.8469 127.242 70.8968 127.28 70.9381C127.329 70.9892 127.356 71.0561 127.37 71.1279C127.384 71.179 127.401 71.2215 127.42 71.2702C127.524 71.3346 127.583 71.4308 127.649 71.5244C127.735 71.6521 127.822 71.7799 127.906 71.9015C127.908 71.9076 127.917 71.9112 127.919 71.9173C127.993 72.1205 128.167 72.2554 128.291 72.4245C128.352 72.506 128.423 72.5766 128.468 72.6714C128.482 72.7079 128.513 72.731 128.54 72.7627C128.629 72.8612 128.733 72.9463 128.822 73.0448C128.898 73.1275 128.999 73.1859 129.096 73.2528C129.126 73.2759 129.163 73.2966 129.187 73.3221C129.333 73.4754 129.506 73.5897 129.681 73.7101C129.917 73.8767 130.167 74.0238 130.414 74.1649C130.646 74.3047 130.887 74.4129 131.135 74.5187C131.433 74.6463 131.737 74.7716 132.043 74.8822C132.2 74.9393 132.354 74.9904 132.522 75.0219C132.629 75.0426 132.735 75.0778 132.836 75.1009C133.032 75.1495 133.222 75.2006 133.413 75.237C133.604 75.2735 133.805 75.2989 134 75.3269C134.142 75.3475 134.291 75.3657 134.433 75.3863C134.454 75.3851 134.471 75.3924 134.492 75.3912C134.937 75.4105 135.389 75.4274 135.831 75.4553C136.293 75.4819 136.756 75.4732 137.211 75.4463C137.575 75.4206 137.938 75.3743 138.302 75.3486C138.876 75.3022 139.442 75.1816 140.005 75.0695C140.331 75.0025 140.65 74.9172 140.977 74.8356C141.19 74.7857 141.396 74.7175 141.604 74.6553C141.667 74.6371 141.744 74.6346 141.807 74.6164C141.877 74.5957 141.933 74.5591 142 74.5324C142.179 74.4678 142.364 74.4008 142.548 74.3485C142.758 74.2924 142.952 74.1938 143.157 74.1256C143.515 73.9966 143.852 73.8334 144.201 73.68C144.231 73.6679 144.259 73.6496 144.292 73.6435C144.602 73.5546 144.886 73.3988 145.173 73.2697C145.234 73.2454 145.282 73.2052 145.34 73.1748C145.392 73.1468 145.439 73.1212 145.491 73.0932C145.669 73.008 145.849 72.9288 146.033 72.8412C146.146 72.7888 146.268 72.7401 146.369 72.6574C146.4 72.6306 146.452 72.6172 146.486 72.5965C146.572 72.5478 146.662 72.4906 146.749 72.4419C146.783 72.4212 146.817 72.4005 146.847 72.3883C147.139 72.2362 147.407 72.0585 147.686 71.8905C147.903 71.7614 148.106 71.6166 148.317 71.49C148.505 71.3792 148.685 71.2648 148.856 71.1261C148.998 71.0056 149.154 70.9009 149.29 70.7829C149.468 70.6271 149.659 70.4871 149.85 70.3471C150.083 70.1694 150.313 69.9856 150.516 69.7702C150.606 69.6777 150.71 69.6011 150.8 69.5086C150.922 69.3893 151.041 69.2639 151.169 69.1422C151.336 68.9767 151.511 68.8149 151.678 68.6493C151.845 68.4838 152.011 68.3183 152.176 68.1467C152.301 68.0189 152.413 67.8753 152.532 67.75C152.652 67.6246 152.763 67.4956 152.868 67.3545C153.011 67.1634 153.178 66.9979 153.353 66.836C153.426 66.7715 153.482 66.6997 153.531 66.6097C153.679 66.3456 153.861 66.1108 154.059 65.8832C154.17 65.7542 154.255 65.6143 154.338 65.4682C154.428 65.3052 154.521 65.1482 154.65 65.0119C154.698 64.9571 154.742 64.8902 154.778 64.8196C154.835 64.6979 154.92 64.5933 155.016 64.4984C155.093 64.4254 155.167 64.3462 155.248 64.2647C155.362 64.233 155.468 64.1977 155.59 64.2196C155.653 64.2366 155.716 64.2183 155.775 64.1879C155.827 64.1599 155.882 64.138 155.93 64.1185C155.971 64.1306 156.005 64.1452 156.045 64.1574C156.044 64.172 156.048 64.1842 156.039 64.1951C155.923 64.3825 155.805 64.5638 155.695 64.7488C155.627 64.8607 155.565 64.9702 155.473 65.0567C155.431 65.0944 155.403 65.1479 155.381 65.199C155.348 65.2757 155.296 65.339 155.244 65.4023C155.137 65.5227 155.046 65.6505 154.978 65.7977C154.912 65.9511 154.83 66.0971 154.753 66.2407C154.742 66.2662 154.731 66.2918 154.715 66.3052C154.572 66.4402 154.472 66.6143 154.311 66.7421C154.214 66.8163 154.138 66.91 154.076 67.0195C154.021 67.112 153.949 67.1972 153.895 67.2897C153.847 67.3651 153.783 67.4333 153.744 67.5124C153.68 67.6365 153.595 67.7411 153.497 67.83C153.388 67.9298 153.277 68.0235 153.169 68.1233C153.074 68.2036 152.988 68.2876 152.923 68.391C152.831 68.548 152.692 68.66 152.571 68.7999C152.445 68.9423 152.272 69.0397 152.143 69.176C152.047 69.2709 151.95 69.3659 151.854 69.4608C151.838 69.4742 151.823 69.4876 151.815 69.5046C151.728 69.6737 151.58 69.7821 151.429 69.8989C151.348 69.9598 151.282 70.0425 151.214 70.1192C151.116 70.2287 151.006 70.3224 150.875 70.4028C150.847 70.421 150.819 70.4393 150.797 70.4551C150.655 70.5756 150.513 70.6961 150.368 70.8105C150.289 70.8774 150.205 70.9322 150.121 70.987C149.965 71.0917 149.805 71.2049 149.643 71.312C149.628 71.3254 149.612 71.3387 149.602 71.3497C149.397 71.5444 149.161 71.6954 148.928 71.8524C148.772 71.9571 148.624 72.0654 148.464 72.1579C148.213 72.3076 147.965 72.4634 147.687 72.5815C147.507 72.6607 147.327 72.7398 147.171 72.8798C147.136 72.9151 147.087 72.9345 147.038 72.954C146.729 73.0989 146.423 73.2352 146.114 73.3801C146.05 73.413 145.994 73.4495 145.932 73.4885C145.885 73.514 145.848 73.5432 145.799 73.5627C145.303 73.7892 144.81 74.0217 144.313 74.2421C144.09 74.3383 143.857 74.4101 143.63 74.4941C143.611 74.5014 143.593 74.5087 143.575 74.516C143.396 74.5806 143.217 74.6451 143.029 74.706C142.86 74.7596 142.691 74.8132 142.516 74.8692C142.392 74.9118 142.259 74.9508 142.132 74.9873C141.969 75.0385 141.806 75.0896 141.634 75.1371C141.438 75.1944 141.242 75.2516 141.042 75.2967C140.718 75.3698 140.394 75.4429 140.07 75.516C139.855 75.5598 139.634 75.6268 139.408 75.6257C139.387 75.6269 139.367 75.6281 139.354 75.633C139.065 75.6854 138.775 75.7378 138.485 75.7902C138.459 75.7939 138.434 75.8036 138.413 75.8048C138.225 75.8098 138.05 75.8658 137.865 75.8622C137.794 75.8622 137.725 75.8829 137.656 75.889C137.38 75.922 137.11 75.9525 136.833 75.9501C136.827 75.9525 136.819 75.9489 136.813 75.9513C136.623 75.9709 136.431 75.9843 136.237 75.9771C136.117 75.9759 135.997 75.9954 135.871 75.9967C135.599 76.0065 135.335 75.9992 135.062 75.9884C134.655 75.9751 134.246 75.9412 133.839 75.9133C133.824 75.9121 133.816 75.9085 133.801 75.9073C133.637 75.9377 133.486 75.8781 133.327 75.8502C133.251 75.8381 133.176 75.8259 133.103 75.8199C132.796 75.7944 132.496 75.7519 132.195 75.6681C131.775 75.5538 131.355 75.4396 130.935 75.3254C130.912 75.3205 130.882 75.3181 130.863 75.3047C130.627 75.1734 130.358 75.1187 130.125 74.9789C130.05 74.9315 129.961 74.9035 129.878 74.8731C129.761 74.8281 129.646 74.7686 129.536 74.7065C129.354 74.6032 129.164 74.5169 128.986 74.3904C128.878 74.3138 128.75 74.2591 128.642 74.1825C128.449 74.0548 128.261 73.9186 128.084 73.7775C127.963 73.6851 127.86 73.5707 127.742 73.4698C127.666 73.4017 127.585 73.3421 127.509 73.274C127.467 73.2411 127.432 73.2059 127.397 73.1706C127.186 72.9444 126.978 72.7242 126.787 72.4761C126.755 72.4323 126.715 72.3849 126.671 72.3459C126.592 72.2718 126.523 72.1866 126.475 72.0856C126.473 72.0796 126.47 72.0735 126.468 72.0674C126.334 71.9093 126.234 71.7305 126.119 71.565C126.098 71.531 126.074 71.5054 126.043 71.4823C126.021 71.4629 125.99 71.4544 125.964 71.4434C125.861 71.4848 125.767 71.5153 125.672 71.5603C125.601 71.5956 125.539 71.6346 125.469 71.6699C125.37 71.7234 125.265 71.7794 125.164 71.8269C124.999 71.9073 124.822 71.9779 124.659 72.0643C124.555 72.1203 124.428 72.1216 124.327 72.2043C124.23 72.2786 124.111 72.3187 124.004 72.3687C123.891 72.421 123.784 72.4709 123.668 72.5172C123.571 72.5562 123.477 72.5866 123.377 72.6195C123.329 72.639 123.28 72.6584 123.237 72.6755C123.057 72.7546 122.871 72.8362 122.693 72.9214C122.574 72.9762 122.446 73.0274 122.32 73.0639C122.097 73.1248 121.881 73.2039 121.661 73.2709C121.504 73.3196 121.344 73.3623 121.179 73.4073C121.045 73.3904 120.916 73.4561 120.783 73.4598C120.757 73.4634 120.727 73.461 120.709 73.4683C120.548 73.5255 120.382 73.5852 120.221 73.6424C120.184 73.657 120.148 73.6717 120.109 73.6802C119.926 73.718 119.747 73.7472 119.562 73.7789C119.491 73.7935 119.425 73.8057 119.353 73.8203C119.267 73.8338 119.179 73.8618 119.09 73.8691C118.933 73.8825 118.786 73.9203 118.636 73.952C118.498 73.9788 118.36 74.0202 118.218 73.9849C118.181 73.9789 118.142 73.9874 118.1 73.9898C117.94 74.0118 117.785 74.0313 117.624 74.0533C117.592 74.0594 117.559 74.0654 117.529 74.063C117.396 74.046 117.278 74.0862 117.155 74.1142C117.032 74.1423 116.906 74.1642 116.774 74.1679C116.632 74.1679 116.494 74.174 116.356 74.2009C116.198 74.2289 116.036 74.2302 115.876 74.2375C115.676 74.2473 115.482 74.2401 115.284 74.2559C114.74 74.2902 114.198 74.2599 113.651 74.2528C113.481 74.2504 113.307 74.2566 113.135 74.2335C112.865 74.1934 112.602 74.2069 112.334 74.1729C111.974 74.1195 111.617 74.0576 111.251 74.0066C110.975 73.9689 110.713 73.8972 110.44 73.8511C110.403 73.845 110.365 73.839 110.331 73.8244C110.166 73.749 109.989 73.7284 109.812 73.6931C109.688 73.6652 109.564 73.6372 109.437 73.6032C109.383 73.5898 109.328 73.5765 109.267 73.5656C109.174 73.5461 109.078 73.5352 108.994 73.4841C108.975 73.4707 108.949 73.4598 108.92 73.4574C108.711 73.4282 108.515 73.3444 108.311 73.2775C108.206 73.2423 108.101 73.1924 107.982 73.1766C107.929 73.1693 107.876 73.1414 107.818 73.1219C107.636 73.0538 107.451 72.9797 107.273 72.8885C107.228 72.8642 107.179 72.8484 107.131 72.8326C106.965 72.7718 106.801 72.6964 106.633 72.6296C106.405 72.5372 106.177 72.4241 105.96 72.3061C105.799 72.2222 105.632 72.1408 105.466 72.0593C105.307 71.9815 105.161 71.8988 105.007 71.8125C104.97 71.7918 104.931 71.7651 104.892 71.7383C104.847 71.714 104.806 71.6812 104.757 71.6653C104.561 71.5815 104.371 71.4951 104.21 71.3553C104.19 71.3419 104.165 71.3309 104.145 71.3176C103.956 71.2166 103.762 71.1182 103.571 71.0112C103.422 70.9224 103.274 70.8336 103.129 70.7363C102.859 70.5551 102.585 70.3825 102.318 70.1928C102.052 70.003 101.799 69.7939 101.544 69.5993C101.47 69.5373 101.392 69.4837 101.312 69.4242C101.237 69.3621 101.163 69.3001 101.089 69.2381C101.026 69.1858 100.966 69.125 100.899 69.0812C100.699 68.9353 100.532 68.7625 100.354 68.6008C100.277 68.5327 100.207 68.4621 100.13 68.394C100.051 68.3198 99.9717 68.2457 99.8962 68.1629C99.7514 67.9951 99.5908 67.8406 99.4277 67.6801C99.2183 67.4745 99.0346 67.2446 98.8545 67.0062C98.8094 66.9466 98.762 66.881 98.7169 66.8214C98.5551 66.6109 98.3835 66.4115 98.246 66.1913C98.1292 66.0052 97.9722 65.8422 97.8809 65.6317C97.8237 65.5064 97.7458 65.3824 97.6606 65.2753C97.5974 65.1878 97.556 65.0844 97.4988 64.9943C97.3162 64.7146 97.1982 64.4019 97.0437 64.1039C96.8052 63.649 96.5813 63.1952 96.3732 62.7281C96.3331 62.6454 96.2832 62.5736 96.243 62.4909C96.1676 62.3376 96.0958 62.1758 96.0325 62.0177C95.9984 61.9325 95.9729 61.851 95.9206 61.7732C95.884 61.7172 95.8573 61.6503 95.8305 61.5834C95.7989 61.5043 95.7758 61.4289 95.7441 61.3499C95.5665 60.9764 95.3986 60.592 95.2392 60.2112C95.1674 60.0495 95.1114 59.8743 95.0457 59.71C94.9265 59.412 94.8401 59.1079 94.7452 58.8001C94.6454 58.4802 94.5554 58.1493 94.4617 57.8269C94.3632 57.4923 94.2939 57.1602 94.2221 56.822C94.1698 56.5677 94.1151 56.3074 94.0689 56.0507C94.0579 56.0057 94.047 55.9607 94.0445 55.9193C94.0495 55.6492 93.9679 55.3925 93.9254 55.1273C93.9059 55.0081 93.8987 54.884 93.8877 54.7684C93.8853 54.7271 93.8914 54.6893 93.8853 54.6565C93.8366 54.4996 93.8354 54.3378 93.8221 54.1808C93.8099 54.0093 93.7771 53.839 93.7735 53.6711C93.7662 53.4411 93.765 53.2087 93.7578 52.9788C93.7517 52.8754 93.7395 52.7744 93.7359 52.6771C93.7287 52.3413 93.7251 51.997 93.7239 51.6588C93.7227 51.5675 93.73 51.4799 93.7373 51.3923C93.7593 51.0942 93.7813 50.7962 93.8008 50.492C93.8179 50.2523 93.8459 50.0223 93.8776 49.7839C93.9117 49.5515 93.9227 49.3142 93.9483 49.0782C93.9751 48.8629 94.0105 48.6512 94.0434 48.4334C94.0677 48.2825 94.0836 48.128 94.108 47.9771C94.1543 47.7398 94.1981 47.4965 94.2444 47.2592C94.2724 47.1351 94.2944 47.0135 94.3102 46.8942C94.2627 46.8286 94.1958 46.8201 94.1325 46.803C93.9682 46.7629 93.8124 46.7265 93.6639 46.6377C93.6189 46.6134 93.5665 46.6061 93.5142 46.5988C93.2379 46.5612 92.9774 46.4749 92.7242 46.3716C92.5818 46.3156 92.4358 46.2682 92.2824 46.2379C92.1205 46.2039 91.9671 46.1382 91.8101 46.0811C91.7274 46.0507 91.6422 46.0142 91.5594 45.9838C91.5277 45.9753 91.4961 45.9668 91.4669 45.9644C91.3585 45.9583 91.2709 45.9158 91.1784 45.8611C91.0689 45.799 90.9496 45.748 90.8327 45.703C90.6027 45.6045 90.386 45.4866 90.167 45.3626C90.0769 45.3139 90.0246 45.2361 89.9941 45.1424C89.9759 45.0791 89.9832 45.0268 90.0295 44.966C90.1707 44.8954 90.3083 44.798 90.4775 44.7444C90.6528 44.6884 90.794 44.5825 90.9279 44.4584C90.979 44.4097 91.0326 44.3671 91.0971 44.3342C91.1495 44.3062 91.1933 44.2746 91.2347 44.2368C91.3564 44.1176 91.5049 44.0299 91.6547 43.9277C91.836 43.9045 92.0004 43.8035 92.1659 43.7231C92.3132 43.6501 92.4557 43.5649 92.5981 43.4797C92.7186 43.4103 92.8343 43.3287 92.9548 43.2593C93.1496 43.1461 93.3127 42.9891 93.4941 42.8601C93.6414 42.7518 93.7863 42.6374 93.9579 42.5546C94.0772 42.4998 94.1953 42.4243 94.3097 42.3574C94.3804 42.3221 94.4473 42.2953 94.5252 42.2783C94.6031 42.2612 94.6774 42.2174 94.7565 42.1857C94.821 42.1528 94.877 42.1163 94.9391 42.0774C95.1095 41.9739 95.28 41.8704 95.4443 41.7694C95.5527 41.7049 95.6562 41.6282 95.7596 41.5515C95.8729 41.4639 95.9642 41.3568 96.0275 41.2327C96.0348 41.2157 96.0506 41.2023 96.064 41.1828C96.0908 41.1791 96.109 41.1718 96.1383 41.1743C96.1736 41.1743 96.2137 41.1864 96.2515 41.1925C96.49 41.224 96.7286 41.2909 96.9721 41.2993C97.0573 41.3005 97.1498 41.3199 97.2313 41.3649C97.2849 41.3929 97.3555 41.3929 97.4309 41.405C97.51 41.4792 97.594 41.5656 97.6865 41.6556C97.6573 41.7943 97.5867 41.9354 97.6171 42.0644C97.673 42.1337 97.7156 42.1872 97.7546 42.2493C97.886 42.4366 97.9736 42.6556 98.077 42.8611C98.1123 42.9317 98.1391 42.9986 98.15 43.0789C98.1525 43.1203 98.1756 43.1604 98.1926 43.203C98.2523 43.3344 98.3143 43.4718 98.3739 43.6032C98.3958 43.6579 98.4116 43.7151 98.4494 43.7565C98.5236 43.8538 98.5467 43.9645 98.5759 44.0727C98.5856 44.0971 98.5832 44.1263 98.5929 44.1506C98.655 44.2881 98.672 44.4365 98.6988 44.574C98.7304 44.7589 98.7742 44.9389 98.7973 45.1202C98.8277 45.3197 98.8459 45.5241 98.8641 45.7285C98.8775 45.8502 98.8823 45.9682 98.8896 46.0923C98.9006 46.2078 98.8969 46.3222 98.8725 46.4378C98.9078 46.5436 98.92 46.6446 98.8932 46.7541C98.8688 46.8697 98.87 46.9962 98.8955 47.113C98.9308 47.2894 98.9186 47.4707 98.8748 47.6435C98.8577 47.7068 98.8406 47.77 98.8212 47.8272C98.7579 47.8808 98.6787 47.8771 98.602 47.8796C98.4633 47.8857 98.3184 47.8943 98.1833 47.8919C97.9362 47.892 97.6855 47.8653 97.4518 47.7753C97.2181 47.6854 96.9722 47.6356 96.7361 47.5748C96.6265 47.5481 96.5072 47.5323 96.4123 47.4715C96.3952 47.4642 96.3782 47.4569 96.3551 47.452C96.2358 47.4363 96.1336 47.3925 96.0252 47.3512C95.951 47.3244 95.8816 47.3098 95.8122 47.3306C95.783 47.3634 95.7745 47.395 95.7866 47.4255C95.8134 47.4924 95.7988 47.5617 95.7842 47.631C95.7598 47.7114 95.7415 47.7892 95.7184 47.8902C95.6916 47.9292 95.6575 47.9851 95.6113 48.046C95.5966 48.1506 95.5869 48.2674 95.5686 48.3806C95.5515 48.4791 95.5369 48.5838 95.5113 48.6787C95.4553 48.8916 95.4431 49.1082 95.4163 49.3235C95.4004 49.4427 95.4077 49.5668 95.3773 49.6849C95.3346 49.843 95.3334 49.9988 95.3054 50.1581C95.2871 50.2713 95.2688 50.3845 95.2797 50.5C95.2822 50.5061 95.2785 50.5146 95.281 50.5207C95.2359 50.7081 95.2432 50.9028 95.2188 51.0889C95.209 51.1704 95.1993 51.2519 95.192 51.3395C95.1859 51.4478 95.1944 51.5573 95.2662 51.6486C95.2479 51.7264 95.2442 51.8055 95.2235 51.8773C95.1992 51.9576 95.1979 52.0428 95.2296 52.1218C95.2539 52.1827 95.26 52.2508 95.249 52.3116C95.2198 52.4856 95.2319 52.6572 95.2355 52.825C95.2355 52.8603 95.2392 52.8871 95.2307 52.9187C95.1905 53.0477 95.2038 53.1694 95.2257 53.2947C95.2367 53.375 95.2415 53.4577 95.2257 53.5416C95.1952 53.6597 95.2171 53.785 95.2573 53.903C95.3023 54.0332 95.3059 54.1658 95.3156 54.2959C95.3168 54.3519 95.3241 54.4054 95.3339 54.465C95.3655 54.6147 95.3679 54.7619 95.346 54.9188C95.324 55.0758 95.3252 55.2376 95.386 55.3897C95.4323 55.5052 95.4688 55.6317 95.4967 55.7546C95.5199 55.8653 95.5198 55.9712 95.4724 56.0819C95.5149 56.2413 95.5624 56.4128 95.5989 56.5746C95.6159 56.6525 95.6232 56.7413 95.6341 56.8216C95.645 56.9724 95.6718 57.1099 95.7278 57.2498C95.7886 57.4019 95.8519 57.56 95.8287 57.7316C95.8214 57.7839 95.8336 57.8496 95.8591 57.8958C95.9431 58.0527 95.9698 58.2255 96.0063 58.3873C96.0282 58.4773 96.0465 58.5758 96.0623 58.6683C96.0684 58.7011 96.0744 58.734 96.0842 58.7583C96.1389 58.9128 96.2022 59.071 96.2569 59.2254C96.2947 59.3374 96.3299 59.4432 96.3591 59.5515C96.3956 59.678 96.4528 59.8033 96.5015 59.9249C96.5964 60.1622 96.667 60.4091 96.774 60.6414C96.7862 60.6719 96.7984 60.7023 96.8105 60.7327C96.8604 60.875 96.9127 61.0234 96.9991 61.1511C97.049 61.2229 97.077 61.3105 97.1172 61.3932C97.1561 61.4905 97.1792 61.6012 97.2486 61.6864C97.2595 61.6961 97.2583 61.7107 97.2632 61.7229C97.3337 62.0051 97.4956 62.2508 97.5966 62.5209C97.616 62.5695 97.6416 62.6158 97.6708 62.6535C97.7098 62.7155 97.7463 62.7715 97.7609 62.8433C97.7669 62.8761 97.7852 62.9041 97.7974 62.9345C97.902 63.1255 98.0127 63.314 98.1052 63.5099C98.1527 63.6108 98.1782 63.7276 98.2147 63.8541C98.3121 63.9916 98.4192 64.1534 98.4837 64.3322C98.5202 64.4234 98.5834 64.511 98.6443 64.5925C98.6917 64.6582 98.7246 64.7227 98.7416 64.8005C98.7526 64.8455 98.7696 64.8881 98.7903 64.9222C98.957 65.18 99.1237 65.4379 99.2661 65.7055C99.2868 65.7396 99.3111 65.7651 99.3379 65.7968C99.4413 65.9318 99.5509 66.0643 99.6288 66.2237C99.664 66.2942 99.7091 66.3539 99.7541 66.4135C99.8527 66.5363 99.9537 66.6652 100.03 66.8039C100.069 66.866 100.123 66.9292 100.168 66.9888C100.285 67.1396 100.402 67.2905 100.524 67.4388C100.605 67.5337 100.692 67.6115 100.779 67.704C100.83 67.7612 100.885 67.8098 100.936 67.867C101.148 68.1139 101.381 68.345 101.628 68.5566C101.864 68.7585 102.103 68.9664 102.342 69.1744C102.63 69.4189 102.926 69.6463 103.24 69.8664C103.42 69.999 103.61 70.1206 103.787 70.2471C104.013 70.4039 104.247 70.5499 104.482 70.6958C104.575 70.7505 104.667 70.8052 104.766 70.8575C105.182 71.0861 105.592 71.3171 106.009 71.5457C106.335 71.7257 106.665 71.8971 106.992 72.0625C107.108 72.1221 107.231 72.1646 107.344 72.2181C107.872 72.4795 108.421 72.7044 108.974 72.8855C109.446 73.0423 109.924 73.1967 110.406 73.3073C110.631 73.3583 110.857 73.4093 111.079 73.4543C111.288 73.498 111.49 73.5442 111.701 73.5794C111.942 73.617 112.183 73.6547 112.422 73.6862C112.782 73.7396 113.145 73.7639 113.511 73.7796C113.978 73.7977 114.446 73.8219 114.911 73.784C115.225 73.7571 115.541 73.751 115.851 73.7326C116.327 73.7045 116.807 73.6678 117.279 73.5777C117.338 73.5679 117.394 73.5667 117.448 73.5594C117.481 73.5533 117.513 73.5618 117.543 73.5496C117.85 73.4692 118.158 73.4448 118.466 73.3851C118.866 73.3095 119.27 73.2254 119.67 73.1292C119.831 73.0927 119.989 73.0439 120.148 73.0013C120.223 72.9782 120.298 72.9696 120.373 72.9465C120.451 72.9294 120.52 72.9087 120.596 72.8856C120.626 72.8734 120.657 72.8612 120.69 72.8551C120.863 72.8283 121.026 72.7772 121.184 72.7139C121.281 72.6749 121.375 72.6444 121.472 72.6055C121.539 72.5787 121.603 72.5604 121.67 72.5336C121.73 72.5093 121.796 72.4971 121.849 72.4691C122.03 72.3754 122.226 72.3181 122.427 72.273C122.484 72.2572 122.535 72.2438 122.59 72.2219C122.77 72.1428 122.955 72.0758 123.15 72.0331C123.209 72.0234 123.274 71.9905 123.322 71.9504C123.381 71.9053 123.449 71.8639 123.522 71.8347C123.721 71.7483 123.922 71.6679 124.118 71.5754C124.289 71.4926 124.456 71.3977 124.616 71.2845C124.697 71.2236 124.792 71.1785 124.881 71.1359C125.071 71.0458 125.263 70.9618 125.459 70.8693C125.53 70.834 125.594 70.8011 125.642 70.7257C125.653 70.6296 125.604 70.5432 125.546 70.4678C125.476 70.3827 125.459 70.2695 125.396 70.1819C125.375 70.1479 125.377 70.098 125.366 70.053C125.353 69.952 125.335 69.8535 125.272 69.7659C125.222 69.6941 125.217 69.6114 125.212 69.5287C125.2 69.3924 125.158 69.2683 125.08 69.1442C125.089 68.9922 125.06 68.8486 124.996 68.7051C124.954 68.6017 124.923 68.4873 124.918 68.3693C124.918 68.2987 124.897 68.2294 124.864 68.1649C124.827 68.0883 124.804 68.0129 124.805 67.9277C124.805 67.8218 124.78 67.7257 124.748 67.626C124.728 67.5773 124.715 67.5262 124.71 67.4788C124.704 67.4107 124.731 67.3364 124.71 67.2671C124.695 67.1953 124.677 67.1321 124.677 67.0615C124.667 66.9666 124.637 66.8729 124.627 66.778C124.616 66.6625 124.599 66.5493 124.549 66.4423C124.566 66.379 124.577 66.3182 124.598 66.2464C124.562 66.0846 124.531 65.9203 124.498 65.75C124.49 65.7111 124.49 65.6758 124.496 65.6381C124.517 65.4957 124.505 65.3595 124.451 65.2257C124.412 65.1283 124.421 65.0262 124.421 64.9203C124.418 64.8437 124.416 64.767 124.419 64.6879C124.421 64.638 124.419 64.5821 124.438 64.5395C124.465 64.4653 124.462 64.3886 124.468 64.3156C124.468 64.245 124.474 64.1721 124.474 64.1015C124.471 64.0042 124.47 63.9129 124.463 63.7742C124.468 63.7511 124.485 63.6878 124.498 63.6477C124.482 63.5552 124.473 63.481 124.462 63.4007C124.517 63.2377 124.487 63.0734 124.495 62.9007C124.513 62.8581 124.538 62.813 124.559 62.7765C124.56 62.6561 124.561 62.5356 124.566 62.4067C124.534 62.3629 124.531 62.3008 124.539 62.2339C124.556 62.1001 124.573 61.9663 124.584 61.8349C124.596 61.7241 124.634 61.6244 124.698 61.5355C124.673 61.4041 124.681 61.2813 124.692 61.1499C124.709 60.9807 124.732 60.8092 124.755 60.6376C124.772 60.5038 124.829 60.3821 124.916 60.2629C124.911 60.2154 124.912 60.1655 124.901 60.1205C124.882 60.0366 124.885 59.9575 124.916 59.8748C124.939 59.8091 124.968 59.7409 124.991 59.6752C125.048 59.5182 125.106 59.3613 125.087 59.1922C125.085 59.1508 125.101 59.1021 125.113 59.062C125.147 58.9354 125.184 58.815 125.212 58.6909C125.263 58.4658 125.329 58.2419 125.448 58.046C125.455 58.029 125.469 58.0095 125.47 57.9949C125.497 57.8501 125.581 57.7248 125.622 57.5812C125.638 57.5325 125.654 57.4838 125.687 57.4425C125.74 57.3646 125.765 57.2843 125.801 57.1991C125.834 57.1224 125.867 57.0458 125.919 56.9825C125.973 56.9046 126.024 56.8206 126.058 56.7294C126.127 56.5323 126.253 56.3692 126.372 56.2086C126.389 56.1806 126.417 56.1623 126.426 56.1307C126.483 56.009 126.565 55.9129 126.673 55.8484C126.701 55.8301 126.718 55.8021 126.737 55.7802C126.857 55.6196 126.97 55.4614 127.07 55.2874C127.164 55.1158 127.321 54.9965 127.485 54.8955C127.559 54.8517 127.642 54.8115 127.727 54.7774C127.806 54.7457 127.874 54.7044 127.933 54.6386C128.018 54.534 128.133 54.467 128.256 54.4037C128.433 54.3185 128.622 54.243 128.813 54.2089C128.996 54.1711 129.179 54.154 129.366 54.143C129.646 54.1369 129.928 54.1368 130.209 54.116C130.313 54.1099 130.411 54.1269 130.509 54.1585C130.781 54.2399 131.019 54.3919 131.245 54.5342C131.325 54.6291 131.325 54.7349 131.323 54.8347C131.447 55.0038 131.571 55.1023 131.776 55.1898C131.912 55.3187 132.02 55.4659 132.119 55.624C132.16 55.6922 132.204 55.7663 132.236 55.8454C132.262 55.9123 132.293 55.9707 132.354 56.0169C132.426 56.0729 132.463 56.1495 132.485 56.2395C132.523 56.422 132.591 56.5923 132.73 56.7273C132.822 56.8173 132.903 56.9122 132.974 57.0387C132.984 57.0983 132.996 57.164 133.008 57.2297C133.066 57.3197 133.12 57.4037 133.203 57.4693C133.253 57.5058 133.279 57.552 133.3 57.6068C133.342 57.7102 133.393 57.8026 133.41 57.9158C133.411 57.9364 133.412 57.9571 133.426 57.9729C133.528 58.1226 133.516 58.3038 133.561 58.4693C133.563 58.4754 133.566 58.4814 133.568 58.4875C133.56 58.625 133.617 58.7503 133.672 58.8695C133.676 58.8817 133.675 58.8963 133.682 58.9498C133.679 58.9583 133.657 59.0095 133.631 59.0691C133.629 59.063 133.634 59.0751 133.636 59.0812C133.658 59.136 133.678 59.1846 133.693 59.2418C133.712 59.3051 133.709 59.3696 133.734 59.4304C133.775 59.5338 133.772 59.6336 133.715 59.7199C133.719 59.782 133.726 59.8355 133.736 59.8951C133.77 59.945 133.802 59.9888 133.838 60.0448C133.834 60.0886 133.833 60.1384 133.826 60.1908C133.812 60.2455 133.802 60.3063 133.786 60.355C133.75 60.4609 133.736 60.5655 133.794 60.6762C133.683 60.9816 133.733 61.3003 133.745 61.5777C133.681 61.787 133.622 61.9586 133.575 62.1399C133.559 62.1886 133.56 62.2445 133.565 62.292C133.58 62.399 133.563 62.4976 133.514 62.5876C133.462 62.6862 133.441 62.7933 133.458 62.9064C133.477 63.0256 133.442 63.1315 133.358 63.2215C133.284 63.3006 133.24 63.4029 133.202 63.5026C133.183 63.5598 133.169 63.6146 133.179 63.6742C133.197 63.808 133.158 63.9224 133.101 64.0441C133.027 64.1937 132.95 64.3373 132.91 64.5016C132.892 64.5795 132.854 64.6439 132.797 64.6951C132.702 64.7754 132.641 64.8703 132.615 65.0005C132.588 65.1453 132.498 65.273 132.418 65.3899C132.323 65.5408 132.219 65.688 132.144 65.8523C132.085 65.9886 132.027 66.1248 131.91 66.221C131.869 66.2587 131.841 66.3123 131.81 66.3597C131.73 66.4765 131.647 66.5873 131.586 66.7175C131.529 66.8392 131.447 66.9353 131.359 67.0132C131.29 67.1957 131.161 67.332 131.038 67.4659C130.935 67.5778 130.842 67.6995 130.717 67.792C130.689 67.8103 130.662 67.8492 130.645 67.8772C130.581 68.0159 130.461 68.106 130.353 68.2058C130.327 68.2301 130.305 68.246 130.277 68.2642C130.047 68.4127 129.849 68.605 129.661 68.807C129.642 68.8289 129.616 68.8533 129.599 68.8813C129.543 68.9884 129.458 69.0577 129.38 69.1453C129.212 69.3255 128.997 69.4399 128.797 69.5762C128.707 69.6334 128.622 69.7028 128.534 69.7661C128.456 69.8184 128.372 69.8732 128.297 69.9316C128.253 69.9633 128.203 69.9974 128.162 70.0351C127.995 70.2006 127.792 70.3102 127.606 70.4477C127.497 70.5268 127.378 70.5816 127.257 70.651C127.263 70.7191 127.235 70.7374 127.21 70.7617ZM126.868 69.9953C126.939 70.016 126.985 70.005 127.022 69.9758C127.095 69.9113 127.16 69.8432 127.233 69.7787C127.3 69.7166 127.364 69.6484 127.441 69.6107C127.625 69.523 127.784 69.4098 127.944 69.2967C128.041 69.2224 128.143 69.1603 128.241 69.0861C128.344 69.0094 128.439 68.9291 128.538 68.8402C128.666 68.7185 128.813 68.6102 128.919 68.469C128.969 68.3997 129.047 68.3473 129.114 68.2853C129.149 68.25 129.204 68.2281 129.231 68.1891C129.31 68.0869 129.405 68.0066 129.495 67.9141C129.591 67.8192 129.679 67.7206 129.772 67.6196C129.8 67.6013 129.843 67.6195 129.847 67.5757C129.855 67.5441 129.864 67.5125 129.883 67.4906C129.99 67.3701 130.089 67.246 130.199 67.1316C130.334 66.9928 130.452 66.8468 130.554 66.6789C130.584 66.6314 130.615 66.5839 130.651 66.534C130.744 66.4124 130.837 66.2907 130.927 66.1629C131.131 65.8623 131.297 65.535 131.482 65.221C131.548 65.103 131.596 64.9777 131.654 64.856C131.72 64.7234 131.798 64.6005 131.805 64.4569C131.878 64.3571 131.941 64.2683 131.998 64.1819C132.078 64.0651 132.125 63.9337 132.139 63.7937C132.147 63.7414 132.165 63.6988 132.181 63.6502C132.212 63.5528 132.244 63.4555 132.276 63.3581C132.299 63.2924 132.314 63.2231 132.337 63.1574C132.381 63.0199 132.43 62.88 132.472 62.7364C132.524 62.532 132.568 62.3239 132.614 62.1219C132.624 62.0757 132.634 62.0295 132.631 61.9881C132.617 61.8458 132.655 61.7107 132.684 61.572C132.697 61.5172 132.708 61.4564 132.707 61.4004C132.717 61.1072 132.756 60.8164 132.742 60.5184C132.732 60.1558 132.747 59.7896 132.695 59.4295C132.667 59.2361 132.658 59.0353 132.582 58.8468C132.541 58.7434 132.536 58.6253 132.525 58.5098C132.521 58.483 132.542 58.4465 132.543 58.4319C132.514 58.3942 132.475 58.3674 132.458 58.3249C132.42 58.2482 132.403 58.1704 132.372 58.0913C132.355 58.0487 132.35 58.0013 132.323 57.9696C132.226 57.8322 132.165 57.6801 132.095 57.5244C132.041 57.4052 131.982 57.2945 131.912 57.1887C131.833 57.0792 131.772 56.9624 131.699 56.8505C131.598 56.6863 131.497 56.5221 131.392 56.3664C131.321 56.2606 131.239 56.1596 131.162 56.0562C130.909 55.7059 130.885 55.6804 130.53 55.3423C130.473 55.2875 130.417 55.2182 130.376 55.1501C130.337 55.0881 130.294 55.0345 130.236 54.9944C130.16 54.947 130.092 54.8825 130.017 54.8351C129.749 54.66 129.749 54.66 129.453 54.6442C129.439 54.643 129.426 54.6479 129.408 54.6552C129.35 54.7562 129.244 54.8268 129.132 54.8646C129.083 54.884 129.045 54.9133 129.002 54.9449C128.866 55.0484 128.75 55.1798 128.606 55.2796C128.506 55.3478 128.406 55.4159 128.375 55.5485C128.371 55.5571 128.361 55.568 128.351 55.579C128.269 55.6897 128.177 55.7968 128.097 55.9136C128.051 55.9745 128.007 56.0414 127.978 56.1095C127.919 56.2458 127.839 56.3626 127.724 56.4649C127.651 56.5294 127.598 56.6073 127.542 56.6791C127.533 56.746 127.528 56.8044 127.521 56.8567C127.468 56.9346 127.418 57.0039 127.398 57.0964C127.393 57.1195 127.382 57.1451 127.363 57.167C127.304 57.2327 127.28 57.313 127.253 57.3872C127.201 57.5211 127.161 57.6501 127.1 57.7803C127.046 57.8934 127.004 58.0163 126.984 58.1441C126.977 58.1964 126.952 58.2414 126.937 58.2901C126.885 58.4446 126.814 58.6004 126.788 58.7658C126.775 58.8559 126.749 58.9508 126.698 59.0347C126.671 59.0737 126.658 59.1284 126.65 59.1807C126.589 59.4521 126.522 59.7258 126.415 59.9874C126.412 59.996 126.404 60.013 126.403 60.0276C126.414 60.1079 126.379 60.1785 126.367 60.2539C126.351 60.3378 126.332 60.4157 126.331 60.5009C126.332 60.5921 126.325 60.6797 126.297 60.7686C126.253 60.906 126.245 61.0435 126.236 61.181C126.223 61.3769 126.174 61.5728 126.19 61.7711C126.19 61.8064 126.178 61.8465 126.172 61.8843C126.116 62.1325 126.085 62.3916 126.087 62.6447C126.085 62.7444 126.072 62.8345 126.052 62.927C126.024 63.0511 126.011 63.1764 126.026 63.3041C126.035 63.3783 126.031 63.4574 126.019 63.5328C126.006 63.6229 126.004 63.708 126.02 63.8005C126.031 63.8808 126.03 63.966 126.029 64.0511C126.02 64.1533 126.003 64.2519 125.989 64.3565C125.98 64.4587 125.971 64.5609 125.998 64.6631C126.007 64.702 126.031 64.7276 126.046 64.7641C126.036 64.8103 126.024 64.8505 126.014 64.8967C126.03 64.9539 126.046 65.011 126.053 65.0293C126.025 65.3298 125.997 65.595 126.099 65.8505C126.097 65.915 126.083 65.9697 126.084 66.0257C126.089 66.1084 126.109 66.1924 126.114 66.2751C126.121 66.3639 126.107 66.4539 126.121 66.5403C126.138 66.6535 126.176 66.7654 126.199 66.8761C126.216 66.954 126.235 67.0379 126.234 67.1231C126.224 67.381 126.309 67.6292 126.332 67.881C126.422 68.1766 126.474 68.4808 126.6 68.7618C126.612 68.7922 126.618 68.825 126.624 68.8579C126.557 68.9905 126.579 69.1158 126.657 69.2399C126.673 69.2618 126.677 69.2885 126.692 69.3104C126.724 69.3895 126.747 69.4649 126.746 69.5501C126.747 69.6766 126.802 69.7958 126.845 69.9199C126.806 69.9284 126.847 69.9613 126.868 69.9953ZM94.4892 46.371C94.5075 46.3284 94.5294 46.2773 94.5477 46.2347C94.6037 46.0924 94.6682 45.9537 94.7157 45.8076C94.751 45.7018 94.7924 45.5935 94.7937 45.4731C94.7901 45.3757 94.8181 45.2869 94.8668 45.1968C94.9009 45.1409 94.9216 45.0691 94.9508 45.001C95.064 44.7369 95.1201 44.4534 95.2418 44.193C95.2528 44.1675 95.2577 44.1443 95.2626 44.1212C95.2869 44.0409 95.3028 43.957 95.3356 43.8803C95.399 43.7209 95.4623 43.5615 95.494 43.3936C95.5049 43.3328 95.5305 43.2731 95.5439 43.2184C95.4904 43.1551 95.427 43.1734 95.3759 43.1868C95.2639 43.2246 95.1483 43.2708 95.0412 43.3207C94.8695 43.4035 94.7234 43.5325 94.5408 43.6056C94.5226 43.6129 94.5067 43.6263 94.497 43.6372C94.3692 43.7237 94.2523 43.8198 94.1196 43.8941C93.993 43.9659 93.8786 44.0681 93.7495 44.0986C93.6826 44.1607 93.6339 44.2154 93.5742 44.2604C93.4074 44.3907 93.265 44.5464 93.0824 44.6548C93.0763 44.6572 93.0726 44.6657 93.0666 44.6682C92.9448 44.7874 92.8133 44.8824 92.6709 44.9676C92.47 45.0832 92.285 45.2208 92.072 45.306C92.005 45.3328 91.949 45.3693 91.8869 45.4083C91.8528 45.429 91.8321 45.4655 91.8492 45.508C91.8711 45.5628 91.9258 45.5761 91.9745 45.5919C92.291 45.7123 92.6075 45.8326 92.9276 45.9445C93.0274 45.9822 93.1381 45.9943 93.2306 46.049C93.2477 46.0563 93.2684 46.0551 93.2854 46.0624C93.5033 46.1304 93.7248 46.19 93.9451 46.2641C94.1082 46.3188 94.2835 46.3334 94.4515 46.365C94.4527 46.3856 94.4649 46.3808 94.4892 46.371ZM95.9413 46.8061C96.0095 46.8353 96.0545 46.8596 96.0971 46.8779C96.2578 46.9265 96.4185 46.9751 96.5706 47.0201C96.6911 47.0565 96.8116 47.093 96.9382 47.127C97.0185 47.1513 97.1025 47.1671 97.1768 47.1586C97.29 47.1062 97.307 47.0077 97.2888 46.9091C97.2511 46.6914 97.2718 46.4784 97.2548 46.2595C97.2366 46.0551 97.2683 45.8519 97.2148 45.6475C97.2063 45.3263 97.1589 45.0137 97.1029 44.6973C97.0798 44.5514 97.0446 44.4102 97.0154 44.2667C97.002 44.2156 96.9898 44.1499 96.9156 44.1231C96.8511 44.156 96.7914 44.2011 96.7646 44.2753C96.7256 44.3897 96.6806 44.5065 96.6416 44.6208C96.6258 44.6695 96.616 44.7157 96.5917 44.7608C96.5357 44.8678 96.4882 44.9786 96.4809 45.1014C96.4784 45.1306 96.4638 45.1647 96.4553 45.1964C96.3895 45.385 96.3213 45.5675 96.2531 45.75C96.2446 45.7816 96.2361 45.8133 96.2275 45.8449C96.1813 45.9763 96.1374 46.1138 96.0912 46.2452C96.0668 46.3255 96.0339 46.4022 96.0096 46.4825C95.9888 46.5895 95.9718 46.6881 95.9413 46.8061Z" fill="url(#paint1_linear_109_442)" shape-rendering="crispEdges"/>
</g>
<g filter="url(#filter7_d_109_442)">
<circle cx="177.462" cy="18.4621" r="7" transform="rotate(3.91934 177.462 18.4621)" fill="#7C2BDA"/>
</g>
<g filter="url(#filter8_d_109_442)">
<rect x="189.924" y="14.4622" width="39" height="8" rx="4" fill="#7C2BDA"/>
</g>
<g filter="url(#filter9_d_109_442)">
<circle cx="177.462" cy="101.462" r="7" transform="rotate(3.91934 177.462 101.462)" fill="#FF7A00"/>
</g>
<g filter="url(#filter10_d_109_442)">
<rect x="189.924" y="97.4623" width="39" height="8" rx="4" fill="#FF7A00"/>
</g>
<rect x="2" y="84.0365" width="8.41463" height="33.6585" rx="1.40244" fill="url(#paint2_linear_109_442)"/>
<rect x="28.6464" y="73.5183" width="8.41463" height="44.1768" rx="1.40244" fill="url(#paint3_linear_109_442)"/>
<rect x="55.2927" y="63" width="8.41463" height="54.6951" rx="1.40244" fill="url(#paint4_linear_109_442)"/>
<rect x="81.939" y="81.9329" width="8.41463" height="35.7622" rx="1.40244" fill="url(#paint5_linear_109_442)"/>
<rect x="108.585" y="79.8292" width="8.41463" height="37.8659" rx="1.40244" fill="url(#paint6_linear_109_442)"/>
<defs>
<filter id="filter0_d_109_442" x="145" y="0" width="116" height="40" filterUnits="userSpaceOnUse" color-interpolation-filters="sRGB">
<feFlood flood-opacity="0" result="BackgroundImageFix"/>
<feColorMatrix in="SourceAlpha" type="matrix" values="0 0 0 0 0 0 0 0 0 0 0 0 0 0 0 0 0 0 127 0" result="hardAlpha"/>
<feMorphology radius="2" operator="erode" in="SourceAlpha" result="effect1_dropShadow_109_442"/>
<feOffset dy="4"/>
<feGaussianBlur stdDeviation="2"/>
<feComposite in2="hardAlpha" operator="out"/>
<feColorMatrix type="matrix" values="0 0 0 0 0 0 0 0 0 0 0 0 0 0 0 0 0 0 0.05 0"/>
<feBlend mode="normal" in2="BackgroundImageFix" result="effect1_dropShadow_109_442"/>
<feBlend mode="normal" in="SourceGraphic" in2="effect1_dropShadow_109_442" result="shape"/>
</filter>
<filter id="filter1_d_109_442" x="145" y="84" width="116" height="40" filterUnits="userSpaceOnUse" color-interpolation-filters="sRGB">
<feFlood flood-opacity="0" result="BackgroundImageFix"/>
<feColorMatrix in="SourceAlpha" type="matrix" values="0 0 0 0 0 0 0 0 0 0 0 0 0 0 0 0 0 0 127 0" result="hardAlpha"/>
<feMorphology radius="2" operator="erode" in="SourceAlpha" result="effect1_dropShadow_109_442"/>
<feOffset dy="4"/>
<feGaussianBlur stdDeviation="2"/>
<feComposite in2="hardAlpha" operator="out"/>
<feColorMatrix type="matrix" values="0 0 0 0 0 0 0 0 0 0 0 0 0 0 0 0 0 0 0.05 0"/>
<feBlend mode="normal" in2="BackgroundImageFix" result="effect1_dropShadow_109_442"/>
<feBlend mode="normal" in="SourceGraphic" in2="effect1_dropShadow_109_442" result="shape"/>
</filter>
<filter id="filter2_d_109_442" x="184.779" y="18.7795" width="119.172" height="62.1913" filterUnits="userSpaceOnUse" color-interpolation-filters="sRGB">
<feFlood flood-opacity="0" result="BackgroundImageFix"/>
<feColorMatrix in="SourceAlpha" type="matrix" values="0 0 0 0 0 0 0 0 0 0 0 0 0 0 0 0 0 0 127 0" result="hardAlpha"/>
<feMorphology radius="2" operator="erode" in="SourceAlpha" result="effect1_dropShadow_109_442"/>
<feOffset dy="4"/>
<feGaussianBlur stdDeviation="2"/>
<feComposite in2="hardAlpha" operator="out"/>
<feColorMatrix type="matrix" values="0 0 0 0 0 0 0 0 0 0 0 0 0 0 0 0 0 0 0.05 0"/>
<feBlend mode="normal" in2="BackgroundImageFix" result="effect1_dropShadow_109_442"/>
<feBlend mode="normal" in="SourceGraphic" in2="effect1_dropShadow_109_442" result="shape"/>
</filter>
<filter id="filter3_d_109_442" x="214.017" y="45.6754" width="17.5748" height="19.6609" filterUnits="userSpaceOnUse" color-interpolation-filters="sRGB">
<feFlood flood-opacity="0" result="BackgroundImageFix"/>
<feColorMatrix in="SourceAlpha" type="matrix" values="0 0 0 0 0 0 0 0 0 0 0 0 0 0 0 0 0 0 127 0" result="hardAlpha"/>
<feMorphology radius="2" operator="erode" in="SourceAlpha" result="effect1_dropShadow_109_442"/>
<feOffset dy="4"/>
<feGaussianBlur stdDeviation="2"/>
<feComposite in2="hardAlpha" operator="out"/>
<feColorMatrix type="matrix" values="0 0 0 0 0 0 0 0 0 0 0 0 0 0 0 0 0 0 0.05 0"/>
<feBlend mode="normal" in2="BackgroundImageFix" result="effect1_dropShadow_109_442"/>
<feBlend mode="normal" in="SourceGraphic" in2="effect1_dropShadow_109_442" result="shape"/>
</filter>
<filter id="filter4_d_109_442" x="232.739" y="38.0997" width="42.2457" height="20.8064" filterUnits="userSpaceOnUse" color-interpolation-filters="sRGB">
<feFlood flood-opacity="0" result="BackgroundImageFix"/>
<feColorMatrix in="SourceAlpha" type="matrix" values="0 0 0 0 0 0 0 0 0 0 0 0 0 0 0 0 0 0 127 0" result="hardAlpha"/>
<feMorphology radius="2" operator="erode" in="SourceAlpha" result="effect1_dropShadow_109_442"/>
<feOffset dy="4"/>
<feGaussianBlur stdDeviation="2"/>
<feComposite in2="hardAlpha" operator="out"/>
<feColorMatrix type="matrix" values="0 0 0 0 0 0 0 0 0 0 0 0 0 0 0 0 0 0 0.05 0"/>
<feBlend mode="normal" in2="BackgroundImageFix" result="effect1_dropShadow_109_442"/>
<feBlend mode="normal" in="SourceGraphic" in2="effect1_dropShadow_109_442" result="shape"/>
</filter>
<filter id="filter5_d_109_442" x="6.10352e-05" y="0" width="135.228" height="45.6819" filterUnits="userSpaceOnUse" color-interpolation-filters="sRGB">
<feFlood flood-opacity="0" result="BackgroundImageFix"/>
<feColorMatrix in="SourceAlpha" type="matrix" values="0 0 0 0 0 0 0 0 0 0 0 0 0 0 0 0 0 0 127 0" result="hardAlpha"/>
<feMorphology radius="2" operator="erode" in="SourceAlpha" result="effect1_dropShadow_109_442"/>
<feOffset dy="4"/>
<feGaussianBlur stdDeviation="2"/>
<feComposite in2="hardAlpha" operator="out"/>
<feColorMatrix type="matrix" values="0 0 0 0 0 0 0 0 0 0 0 0 0 0 0 0 0 0 0.05 0"/>
<feBlend mode="normal" in2="BackgroundImageFix" result="effect1_dropShadow_109_442"/>
<feBlend mode="normal" in="SourceGraphic" in2="effect1_dropShadow_109_442" result="shape"/>
</filter>
<filter id="filter6_d_109_442" x="87.9849" y="41.1738" width="70.0601" height="40.8275" filterUnits="userSpaceOnUse" color-interpolation-filters="sRGB">
<feFlood flood-opacity="0" result="BackgroundImageFix"/>
<feColorMatrix in="SourceAlpha" type="matrix" values="0 0 0 0 0 0 0 0 0 0 0 0 0 0 0 0 0 0 127 0" result="hardAlpha"/>
<feMorphology radius="2" operator="erode" in="SourceAlpha" result="effect1_dropShadow_109_442"/>
<feOffset dy="4"/>
<feGaussianBlur stdDeviation="2"/>
<feComposite in2="hardAlpha" operator="out"/>
<feColorMatrix type="matrix" values="0 0 0 0 0 0 0 0 0 0 0 0 0 0 0 0 0 0 0.05 0"/>
<feBlend mode="normal" in2="BackgroundImageFix" result="effect1_dropShadow_109_442"/>
<feBlend mode="normal" in="SourceGraphic" in2="effect1_dropShadow_109_442" result="shape"/>
</filter>
<filter id="filter7_d_109_442" x="168.462" y="11.4619" width="18.0005" height="20.0005" filterUnits="userSpaceOnUse" color-interpolation-filters="sRGB">
<feFlood flood-opacity="0" result="BackgroundImageFix"/>
<feColorMatrix in="SourceAlpha" type="matrix" values="0 0 0 0 0 0 0 0 0 0 0 0 0 0 0 0 0 0 127 0" result="hardAlpha"/>
<feMorphology radius="2" operator="erode" in="SourceAlpha" result="effect1_dropShadow_109_442"/>
<feOffset dy="4"/>
<feGaussianBlur stdDeviation="2"/>
<feComposite in2="hardAlpha" operator="out"/>
<feColorMatrix type="matrix" values="0 0 0 0 0 0 0 0 0 0 0 0 0 0 0 0 0 0 0.05 0"/>
<feBlend mode="normal" in2="BackgroundImageFix" result="effect1_dropShadow_109_442"/>
<feBlend mode="normal" in="SourceGraphic" in2="effect1_dropShadow_109_442" result="shape"/>
</filter>
<filter id="filter8_d_109_442" x="187.924" y="14.4622" width="43" height="14" filterUnits="userSpaceOnUse" color-interpolation-filters="sRGB">
<feFlood flood-opacity="0" result="BackgroundImageFix"/>
<feColorMatrix in="SourceAlpha" type="matrix" values="0 0 0 0 0 0 0 0 0 0 0 0 0 0 0 0 0 0 127 0" result="hardAlpha"/>
<feMorphology radius="2" operator="erode" in="SourceAlpha" result="effect1_dropShadow_109_442"/>
<feOffset dy="4"/>
<feGaussianBlur stdDeviation="2"/>
<feComposite in2="hardAlpha" operator="out"/>
<feColorMatrix type="matrix" values="0 0 0 0 0 0 0 0 0 0 0 0 0 0 0 0 0 0 0.05 0"/>
<feBlend mode="normal" in2="BackgroundImageFix" result="effect1_dropShadow_109_442"/>
<feBlend mode="normal" in="SourceGraphic" in2="effect1_dropShadow_109_442" result="shape"/>
</filter>
<filter id="filter9_d_109_442" x="168.462" y="94.4618" width="18.0005" height="20.0006" filterUnits="userSpaceOnUse" color-interpolation-filters="sRGB">
<feFlood flood-opacity="0" result="BackgroundImageFix"/>
<feColorMatrix in="SourceAlpha" type="matrix" values="0 0 0 0 0 0 0 0 0 0 0 0 0 0 0 0 0 0 127 0" result="hardAlpha"/>
<feMorphology radius="2" operator="erode" in="SourceAlpha" result="effect1_dropShadow_109_442"/>
<feOffset dy="4"/>
<feGaussianBlur stdDeviation="2"/>
<feComposite in2="hardAlpha" operator="out"/>
<feColorMatrix type="matrix" values="0 0 0 0 0 0 0 0 0 0 0 0 0 0 0 0 0 0 0.05 0"/>
<feBlend mode="normal" in2="BackgroundImageFix" result="effect1_dropShadow_109_442"/>
<feBlend mode="normal" in="SourceGraphic" in2="effect1_dropShadow_109_442" result="shape"/>
</filter>
<filter id="filter10_d_109_442" x="187.924" y="97.4623" width="43" height="14" filterUnits="userSpaceOnUse" color-interpolation-filters="sRGB">
<feFlood flood-opacity="0" result="BackgroundImageFix"/>
<feColorMatrix in="SourceAlpha" type="matrix" values="0 0 0 0 0 0 0 0 0 0 0 0 0 0 0 0 0 0 127 0" result="hardAlpha"/>
<feMorphology radius="2" operator="erode" in="SourceAlpha" result="effect1_dropShadow_109_442"/>
<feOffset dy="4"/>
<feGaussianBlur stdDeviation="2"/>
<feComposite in2="hardAlpha" operator="out"/>
<feColorMatrix type="matrix" values="0 0 0 0 0 0 0 0 0 0 0 0 0 0 0 0 0 0 0.05 0"/>
<feBlend mode="normal" in2="BackgroundImageFix" result="effect1_dropShadow_109_442"/>
<feBlend mode="normal" in="SourceGraphic" in2="effect1_dropShadow_109_442" result="shape"/>
</filter>
<linearGradient id="paint0_linear_109_442" x1="-0.455781" y1="20.4714" x2="67.3544" y2="-46.3364" gradientUnits="userSpaceOnUse">
<stop stop-color="#4285F4"/>
<stop offset="0.541667" stop-color="#9B72CB"/>
<stop offset="1" stop-color="#D96570"/>
</linearGradient>
<linearGradient id="paint1_linear_109_442" x1="97.2409" y1="42.2802" x2="155.88" y2="64.3351" gradientUnits="userSpaceOnUse">
<stop offset="0.394769" stop-color="#FECF08"/>
<stop offset="1" stop-color="#FECF08" stop-opacity="0"/>
</linearGradient>
<linearGradient id="paint2_linear_109_442" x1="3.18032" y1="92.0771" x2="3.18032" y2="117.695" gradientUnits="userSpaceOnUse">
<stop stop-color="#52ACFF"/>
<stop offset="1" stop-color="#FFE32C"/>
</linearGradient>
<linearGradient id="paint3_linear_109_442" x1="32.8537" y1="51.4299" x2="16.6136" y2="54.5232" gradientUnits="userSpaceOnUse">
<stop stop-color="#FF5ACD"/>
<stop offset="1" stop-color="#FAD961"/>
</linearGradient>
<linearGradient id="paint4_linear_109_442" x1="65.2576" y1="107.756" x2="43.0297" y2="98.3467" gradientUnits="userSpaceOnUse">
<stop stop-color="#21D4FD"/>
<stop offset="1" stop-color="#B721FF"/>
</linearGradient>
<linearGradient id="paint5_linear_109_442" x1="84.6713" y1="51.514" x2="63.0874" y2="58.3731" gradientUnits="userSpaceOnUse">
<stop stop-color="#FF5ACD"/>
<stop offset="1" stop-color="#FAD961"/>
</linearGradient>
<linearGradient id="paint6_linear_109_442" x1="120.328" y1="93.5969" x2="107.517" y2="90.9627" gradientUnits="userSpaceOnUse">
<stop stop-color="#F4D03F"/>
<stop offset="1" stop-color="#16A085"/>
</linearGradient>
</defs>
</svg>
