<svg width="305" height="124" viewBox="0 0 305 124" fill="none" xmlns="http://www.w3.org/2000/svg">
<g filter="url(#filter0_d_109_442)">
<rect x="147" width="112" height="34" rx="4" fill="white"/>
<rect x="147.5" y="0.5" width="111" height="33" rx="3.5" stroke="#F0F3FA"/>
</g>
<g filter="url(#filter1_d_109_442)">
<rect x="147" y="42" width="112" height="34" rx="4" fill="white"/>
<rect x="147.25" y="42.25" width="111.5" height="33.5" rx="3.75" stroke="#F0F3FA" stroke-width="0.5" stroke-linecap="round" stroke-dasharray="6 6"/>
</g>
<g filter="url(#filter2_d_109_442)">
<rect x="147" y="84" width="112" height="34" rx="4" fill="white"/>
<rect x="147.5" y="84.5" width="111" height="33" rx="3.5" stroke="#F0F3FA"/>
</g>
<g filter="url(#filter3_d_109_442)">
<rect x="186" y="42.5791" width="112" height="34" rx="4" transform="rotate(-12.6771 186 42.5791)" fill="white"/>
<rect x="186.598" y="42.9572" width="111" height="33" rx="3.5" transform="rotate(-12.6771 186.598 42.9572)" stroke="#F0F3FA"/>
</g>
<path fill-rule="evenodd" clip-rule="evenodd" d="M280.255 46L302.127 61.5808L290.941 64.157L282.671 72.9334L280.255 46Z" fill="#1ABCFE"/>
<path fill-rule="evenodd" clip-rule="evenodd" d="M302.127 61.5808L290.941 64.157L282.671 72.9334L280.255 46L302.127 61.5808ZM284.053 68.9241L290.046 62.565L297.944 60.7459L282.322 49.6169L284.053 68.9241Z" fill="#F0F3FA"/>
<g filter="url(#filter4_d_109_442)">
<rect width="131.228" height="39.6819" transform="translate(2)" fill="url(#paint0_linear_109_442)"/>
<path d="M13.597 20.1445L26.2194 19.5746L26.5487 26.8694L13.9264 27.4393L13.597 20.1445ZM14.9965 36.5896L5.32486 37.0263L4.02961 8.33906L27.3482 7.2862L27.6776 14.581L14.0307 15.1971L14.9965 36.5896Z" fill="white"/>
<path d="M46.5687 35.8211C44.2464 35.926 42.0713 35.6546 40.0436 35.007C38.0431 34.3581 36.2887 33.397 34.7802 32.1237C33.2705 30.823 32.0645 29.2759 31.1623 27.4824C30.2873 25.6876 29.8011 23.7111 29.7036 21.5527C29.6049 19.367 29.911 17.3547 30.6219 15.5157C31.3589 13.6482 32.4212 12.0124 33.8088 10.6082C35.1951 9.17681 36.8552 8.04785 38.789 7.22136C40.7502 6.39364 42.8919 5.92735 45.2142 5.82249C47.5638 5.71641 49.7388 5.98779 51.7393 6.63664C53.7397 7.2855 55.4948 8.26026 57.0045 9.56094C58.5129 10.8343 59.7046 12.3684 60.5796 14.1631C61.4807 15.9293 61.9805 17.9052 62.0792 20.0909C62.1767 22.2493 61.8569 24.2622 61.1199 26.1298C60.4102 27.9961 59.3622 29.6449 57.9759 31.0764C56.5883 32.4805 54.9276 33.5958 52.9938 34.4223C51.06 35.2488 48.9183 35.715 46.5687 35.8211ZM46.2152 27.9936C47.1168 27.9529 47.9427 27.7514 48.6929 27.389C49.4704 27.0253 50.1325 26.53 50.6791 25.9031C51.2518 25.2475 51.6823 24.4752 51.9707 23.5862C52.2578 22.6698 52.3761 21.6515 52.3256 20.5313C52.275 19.4111 52.066 18.4213 51.6987 17.5618C51.3301 16.675 50.8318 15.9447 50.2035 15.3708C49.6014 14.7683 48.8968 14.321 48.0897 14.0289C47.3099 13.7356 46.4692 13.6093 45.5676 13.65C44.666 13.6907 43.8265 13.8929 43.0489 14.2565C42.2988 14.6189 41.6373 15.1279 41.0646 15.7834C40.518 16.4104 40.1011 17.182 39.814 18.0984C39.5256 18.9875 39.4067 19.9922 39.4573 21.1123C39.5079 22.2325 39.7174 23.236 40.086 24.1228C40.4533 24.9822 40.938 25.7132 41.5402 26.3157C42.1684 26.8896 42.8724 27.3232 43.6522 27.6166C44.4593 27.9086 45.3136 28.0343 46.2152 27.9936Z" fill="white"/>
<path d="M66.2372 34.276L64.9419 5.58881L78.7528 4.96524C81.4302 4.84435 83.7586 5.17725 85.7379 5.96395C87.7445 6.74941 89.3176 7.93772 90.4571 9.52888C91.5954 11.0927 92.2145 12.9811 92.3144 15.1942C92.4144 17.4072 91.968 19.3437 90.9752 21.0038C89.9812 22.6365 88.5198 23.9208 86.5909 24.8565C84.6894 25.7911 82.3998 26.3188 79.7224 26.4397L71.2801 26.8209L75.4037 22.6513L75.9089 33.8393L66.2372 34.276ZM83.4085 33.5007L75.8878 23.3687L86.1333 22.9061L93.7359 33.0344L83.4085 33.5007ZM75.4518 23.7169L70.9508 19.5261L78.7783 19.1727C80.117 19.1122 81.087 18.7673 81.6882 18.1379C82.3168 17.5072 82.6077 16.6727 82.5608 15.6345C82.5139 14.5963 82.1491 13.7915 81.4662 13.22C80.8107 12.6474 79.8135 12.3912 78.4748 12.4517L70.6473 12.8051L74.7524 8.22576L75.4518 23.7169Z" fill="white"/>
<path d="M96.7734 32.8973L95.4781 4.21008L103.429 3.85111L115.749 22.0617L111.569 22.2504L121.87 3.01845L129.821 2.65948L131.198 31.343L122.387 31.7408L121.609 16.3354L123.003 16.2725L115.959 29.4439L111.697 29.6364L103.167 17.1681L104.889 17.0903L105.584 32.4995L96.7734 32.8973Z" fill="white"/>
</g>
<g filter="url(#filter5_d_109_442)">
<path d="M44.4087 86.4395C44.3049 86.5654 44.1932 86.596 44.0869 86.6096C43.9524 86.6239 43.8303 86.6884 43.72 86.7751C43.6371 86.8332 43.5594 86.8742 43.4707 86.9212C43.2396 86.887 43.0334 86.9535 42.8212 87.0088C42.5367 87.0882 42.2521 87.1676 41.9786 87.2411C41.9675 87.247 41.9505 87.2418 41.9394 87.2476C41.5791 87.4523 41.1575 87.4337 40.7666 87.5267C40.5766 87.5703 40.386 87.5858 40.2026 87.6686C40.136 87.7038 40.063 87.6998 39.9846 87.7128C39.7327 87.7465 39.4742 87.7411 39.2223 87.7748C39.0095 87.802 38.7896 87.762 38.5644 87.739C38.4913 87.735 38.4124 87.7199 38.3452 87.727C37.9418 87.7698 37.5476 87.7225 37.1423 87.681C36.5908 87.6315 36.0439 87.5371 35.5081 87.4367C34.9952 87.3527 34.509 87.2119 34.0169 87.06C33.423 86.8767 32.8233 86.6822 32.2399 86.465C31.9397 86.3537 31.6506 86.2366 31.3661 86.0745C31.184 85.9718 30.9857 85.8919 30.8095 85.8004C30.463 85.6284 30.1223 85.4675 29.798 85.2837C29.4737 85.1 29.1487 84.8882 28.8296 84.6875C28.596 84.541 28.3566 84.3834 28.123 84.237C28.0942 84.2095 28.0603 84.1991 28.0316 84.1716C27.3569 83.6474 26.6763 83.1121 25.9964 82.6049C25.2878 82.0702 24.6229 81.4839 23.9913 80.8801C23.4915 80.3913 23.0191 79.8738 22.5193 79.385C21.7376 78.6048 21.0604 77.7267 20.378 76.8656C19.9846 76.3631 19.6245 75.8431 19.2474 75.3179C18.9982 74.9807 18.7823 74.626 18.5552 74.2772C18.4854 74.172 18.3764 74.0733 18.3066 73.9681C18.2309 73.8519 18.1944 73.7291 18.1299 73.6069C17.9485 73.2908 17.7613 72.9635 17.5578 72.6591C17.3196 72.3161 17.1592 71.932 16.9433 71.5773C16.5806 70.945 16.2903 70.2886 15.972 69.6328C15.9426 69.5773 15.9244 69.5159 15.8839 69.4662C15.5408 68.9514 15.3197 68.3721 15.0601 67.8274C15.0014 67.7163 14.9818 67.5988 14.9342 67.4819C14.8925 67.3761 14.8566 67.2814 14.8149 67.1756C14.6609 66.8307 14.4959 66.4917 14.3361 66.1357C14.2357 65.9188 14.1183 65.6968 14.0733 65.4506C14.0603 65.3722 14.0022 65.2892 13.9781 65.2167C13.9122 65.0384 13.8516 64.8432 13.7857 64.6649C13.7616 64.5924 13.7375 64.5199 13.7081 64.4644C13.47 63.8798 13.2992 63.2881 13.1003 62.6971C12.9438 62.2399 12.8265 61.7762 12.6758 61.3302C12.5376 60.9344 12.4163 60.5439 12.3394 60.1299C12.2808 59.7772 12.1829 59.4311 12.1302 59.0896C12.0637 58.6416 11.9581 58.2002 11.8525 57.7587C11.7332 57.2108 11.6251 56.6571 11.5952 56.0903C11.5783 55.8435 11.5222 55.6032 11.5053 55.3564C11.4754 55.0312 11.4566 54.7001 11.4208 54.3639C11.3824 53.9153 11.327 53.4615 11.2887 53.0129C11.2503 52.5643 11.2119 52.1157 11.1846 51.6613C11.1599 51.3191 11.1744 50.9705 11.1555 50.6394C11.1367 50.3084 11.1348 49.9826 11.1552 49.6451C11.184 49.1894 11.1456 48.7408 11.0903 48.287C11.0636 48.1022 11.0708 47.9278 11.1113 47.7359C11.2218 47.166 11.248 46.598 11.2404 46.0195C11.2385 45.6937 11.2875 45.3836 11.3477 45.0677C11.4183 44.7178 11.4777 44.3737 11.4583 44.0146C11.455 43.8743 11.474 43.7221 11.51 43.5753C11.5773 43.3266 11.5825 43.068 11.5598 42.8101C11.5383 42.6083 11.5279 42.4007 11.5117 42.182C11.3838 41.9938 11.2729 41.8109 11.068 41.6919C10.9544 41.6383 10.8846 41.5331 10.837 41.4162C10.7953 41.3104 10.7425 41.2104 10.6955 41.1216C10.6217 41.0895 10.5538 41.0686 10.4801 41.0365C10.4638 41.0594 10.4416 41.0711 10.4422 41.0992C10.3788 41.5163 10.3265 41.9276 10.2572 42.3337C10.218 42.5817 10.1729 42.8187 10.2009 43.0596C10.2145 43.1661 10.1891 43.279 10.1577 43.3808C10.1107 43.5336 10.1087 43.6909 10.1067 43.8483C10.1137 44.1571 10.0869 44.4555 10.004 44.7551C9.9099 45.0606 9.84976 45.3765 9.78375 45.6814C9.76808 45.7323 9.75239 45.7832 9.75891 45.8224C9.80123 46.1978 9.73127 46.5758 9.80752 46.9618C9.85771 47.191 9.8518 47.4214 9.8067 47.6584C9.77205 47.8614 9.77133 48.0749 9.73668 48.278C9.71249 48.447 9.72223 48.6266 9.68106 48.7905C9.61964 49.0503 9.61434 49.3088 9.64821 49.5609C9.68272 49.841 9.72831 50.1152 9.76282 50.3954C9.80192 50.6305 9.82405 50.8603 9.79005 51.0914C9.73056 51.4354 9.79443 51.7711 9.79694 52.125C9.80532 52.49 9.93705 52.8465 9.95653 53.2057C9.9793 53.4636 10.0021 53.7215 10.0249 53.9794C10.0314 54.0186 10.0379 54.0578 10.0274 54.0917C9.94574 54.4475 10.0266 54.7884 10.1022 55.1462C10.1459 55.3363 10.1393 55.5387 10.1438 55.7352C10.1502 56.016 10.1959 56.2902 10.2865 56.5691C10.3047 56.6305 10.323 56.6919 10.3354 56.7421C10.394 57.0948 10.4527 57.4474 10.5224 57.7941C10.555 57.99 10.6098 58.1742 10.6645 58.3584C10.7623 58.7045 10.8549 59.0676 10.9586 59.4248C10.9651 59.464 10.9716 59.5032 10.9723 59.5313C11.0295 60.0693 11.1873 60.5826 11.334 61.1018C11.4318 61.448 11.5127 61.7888 11.6327 62.1232C11.8133 62.6529 11.9828 63.1884 12.2418 63.7051C12.4068 64.0441 12.5718 64.3831 12.6259 64.7808C12.6337 64.8761 12.6807 64.9649 12.7276 65.0538C12.9996 65.6488 13.2769 66.2268 13.5488 66.8219C13.6023 66.9499 13.6388 67.0727 13.6812 67.2066C13.7171 67.3013 13.736 67.3907 13.7829 67.4796C14.2258 68.4247 14.6576 69.3757 15.1116 70.315C15.3177 70.7317 15.5682 71.125 15.7966 71.53C15.8142 71.5633 15.8318 71.5966 15.8494 71.6299C16.0307 71.9461 16.2121 72.2623 16.4104 72.5837C16.5911 72.8717 16.7718 73.1598 16.9584 73.459C17.0869 73.6752 17.2324 73.8967 17.372 74.1071C17.5468 74.384 17.7217 74.661 17.9135 74.9433C18.1288 75.2699 18.344 75.5965 18.5815 75.9114C18.9638 76.4197 19.3461 76.928 19.7285 77.4363C19.9888 77.7675 20.2275 78.1386 20.5597 78.4177C20.5884 78.4451 20.6171 78.4726 20.6288 78.4948C20.987 78.9306 21.3452 79.3664 21.7034 79.8022C21.7379 79.8407 21.7614 79.8851 21.7901 79.9126C22.0596 80.1537 22.2462 80.453 22.5209 80.6771C22.624 80.7647 22.6997 80.881 22.7917 80.9744C23.1544 81.3652 23.5113 81.7448 23.9178 82.084C23.9237 82.0951 23.9407 82.1004 23.9465 82.1115C24.1997 82.3755 24.464 82.6336 24.7556 82.863C24.9331 83.0107 25.0832 83.1871 25.2665 83.346C25.6508 83.6969 26.0456 84.0139 26.4573 84.3361C27.0694 84.8224 27.7089 85.28 28.3373 85.7434C28.3601 85.7598 28.3771 85.765 28.3999 85.7814C28.6022 86.0296 28.8965 86.1298 29.164 86.2867C29.2893 86.3626 29.4146 86.4384 29.5288 86.5201C30.0084 86.8633 30.4984 87.1726 31.0433 87.4244C31.7984 87.7783 32.5534 88.1321 33.3084 88.486C33.3482 88.5076 33.3939 88.5403 33.4389 88.5449C33.9466 88.6459 34.4073 88.8996 34.9203 88.9836C35.0893 89.0079 35.2538 89.0772 35.4124 89.1355C35.6388 89.2147 35.8816 89.271 36.1185 89.3163C36.5133 89.3917 36.8977 89.5011 37.3141 89.5367C37.5673 89.5591 37.8218 89.6377 38.0751 89.6601C38.5143 89.712 38.9587 89.747 39.3914 89.7598C39.6838 89.7757 39.9749 89.7355 40.2725 89.7344C40.469 89.73 40.6602 89.7426 40.8566 89.7382C40.9578 89.7416 41.0531 89.7338 41.1484 89.726C41.7364 89.6567 42.3134 89.5932 42.9002 89.4677C43.0007 89.443 43.1182 89.4235 43.2304 89.421C43.438 89.4107 43.6449 89.3723 43.8394 89.2837C43.8505 89.2778 43.8616 89.272 43.8727 89.2661C44.2643 89.2011 44.6318 89.0637 45.0058 88.9654C45.0782 88.9414 45.1455 88.9342 45.2186 88.9382C45.2747 88.9369 45.3315 88.9638 45.3824 88.9795C45.4822 89.1682 45.5813 89.3289 45.6642 89.5125C45.7235 89.6516 45.7659 89.7855 45.8252 89.9246C45.9028 90.1251 45.9863 90.3367 46.0751 90.5314C46.2172 90.854 46.3875 91.176 46.5186 91.5046C46.6021 91.7162 46.7854 91.875 46.8304 92.1212C46.8806 92.3504 47.0032 92.5555 47.0978 92.7613C47.1983 92.9781 47.2928 93.1839 47.4043 93.3949C47.4983 93.5725 47.5975 93.7332 47.7025 93.905C47.7495 93.9939 47.7964 94.0827 47.8375 94.1604C48.0025 94.4994 48.1734 94.8495 48.3274 95.1944C48.4337 95.4224 48.5569 95.6556 48.6966 95.8659C48.9464 96.2311 49.163 96.6139 49.4018 96.985C49.5707 97.2508 49.7508 97.5109 49.9367 97.782C50.1534 97.9232 50.2603 98.1792 50.4496 98.3491C50.4841 98.3877 50.5298 98.4204 50.5474 98.4537C50.7112 98.7365 50.8808 99.0305 51.0445 99.3133C51.0797 99.38 51.1149 99.4466 51.1613 99.5074C51.3811 99.7889 51.6062 100.054 51.8372 100.329C51.924 100.44 52.0049 100.539 52.0916 100.649C52.2013 100.776 52.2945 100.926 52.4152 101.047C52.6279 101.261 52.7963 101.499 52.9757 101.731C53.1434 101.94 53.2947 102.173 53.5446 102.297C53.6073 102.335 53.6536 102.395 53.711 102.45C53.9185 102.682 54.1201 102.902 54.3276 103.133C54.368 103.183 54.4085 103.232 54.4542 103.265C54.6708 103.406 54.7934 103.611 54.9383 103.805C55.0831 103.998 55.2391 104.186 55.4283 104.356C55.6345 104.531 55.8296 104.712 55.9972 104.921C56.1936 105.159 56.4285 105.361 56.6523 105.57C56.9335 105.833 57.2252 106.063 57.4953 106.332C58.2476 107.056 59.0763 107.684 59.8835 108.351C60.1353 108.559 60.382 108.784 60.6613 108.963C61.1057 109.24 61.473 109.585 61.9063 109.868C62.4988 110.237 63.0965 110.588 63.6949 110.968C64.1451 111.256 64.6163 111.476 65.0718 111.746C65.1344 111.784 65.1971 111.822 65.2649 111.843C65.5984 111.937 65.8836 112.127 66.1851 112.294C66.4011 112.408 66.617 112.521 66.8441 112.628C66.9407 112.676 67.0373 112.725 67.1397 112.784C67.299 112.871 67.453 112.974 67.639 113.003C67.684 113.008 67.7349 113.024 67.7806 113.056C68.1225 113.273 68.5128 113.394 68.8926 113.548C69.091 113.628 69.3056 113.685 69.4994 113.81C69.5849 113.864 69.6978 113.89 69.8055 113.932C70.1566 114.059 70.5188 114.18 70.8915 114.268C70.9874 114.288 71.0781 114.325 71.1688 114.362C71.4859 114.479 71.8194 114.573 72.1477 114.683C72.5947 114.831 73.0692 114.949 73.5319 115.045C73.8706 115.122 74.2151 115.21 74.5597 115.298C74.8873 115.38 75.2032 115.441 75.5361 115.506C75.615 115.521 75.7051 115.53 75.7951 115.54C75.8911 115.56 75.9922 115.563 76.0829 115.601C76.4732 115.721 76.8576 115.831 77.2674 115.827C77.3125 115.832 77.3634 115.847 77.4084 115.852C77.8091 115.938 78.2157 116.036 78.6275 116.117C78.9545 116.171 79.2814 116.226 79.6136 116.263C80.233 116.334 80.8471 116.421 81.4716 116.474C82.0962 116.528 82.7254 116.536 83.3382 116.567C83.5236 116.569 83.7037 116.587 83.8949 116.6C84.0803 116.601 84.2656 116.603 84.451 116.604C84.6083 116.606 84.7708 116.591 84.9229 116.61C85.3954 116.645 85.8549 116.601 86.315 116.585C86.5115 116.58 86.702 116.565 86.8985 116.561C87.106 116.55 87.3135 116.54 87.5263 116.513C87.946 116.447 88.3722 116.421 88.8095 116.389C89.3701 116.348 89.9236 116.24 90.4823 116.115C90.622 116.084 90.7728 116.047 90.9124 116.016C91.4098 115.909 91.9078 115.83 92.3817 115.679C92.7831 115.552 93.2145 115.509 93.6088 115.315C93.8477 115.203 94.1153 115.118 94.3724 115.067C94.5735 115.018 94.7621 114.918 94.9573 114.857C95.5708 114.675 96.1309 114.365 96.7262 114.121C97.6387 113.752 98.5284 113.367 99.4115 112.943C99.5727 112.872 99.7346 112.829 99.8959 112.758C100.196 112.628 100.502 112.48 100.79 112.328C100.945 112.246 101.084 112.158 101.257 112.11C101.38 112.073 101.502 112.009 101.624 111.944C101.768 111.868 101.895 111.786 102.039 111.71C102.762 111.385 103.484 111.032 104.189 110.673C104.494 110.526 104.793 110.339 105.093 110.181C105.637 109.893 106.14 109.556 106.66 109.224C107.203 108.881 107.745 108.509 108.281 108.154C108.84 107.788 109.353 107.389 109.877 106.984C110.269 106.677 110.672 106.365 111.057 106.047C111.129 105.995 111.201 105.943 111.256 105.885C111.584 105.485 112.021 105.211 112.412 104.876C112.588 104.726 112.753 104.554 112.912 104.399C112.967 104.341 113.005 104.279 113.054 104.238C113.32 104.069 113.523 103.835 113.737 103.622C113.967 103.386 114.226 103.178 114.44 102.938C114.735 102.611 115.025 102.273 115.321 101.946C115.458 101.802 115.601 101.67 115.727 101.532C116.154 101.051 116.586 100.552 117.007 100.06C117.122 99.928 117.22 99.791 117.318 99.654C117.656 99.1914 117.993 98.7288 118.342 98.2603C118.614 97.889 118.858 97.5183 119.108 97.1307C119.346 96.749 119.624 96.3888 119.88 96.0123C120.107 95.6645 120.318 95.3115 120.54 94.9525C120.692 94.702 120.86 94.4566 121.012 94.206C121.238 93.8021 121.476 93.3922 121.703 92.9883C121.816 92.7723 121.934 92.5674 122.059 92.3735C122.21 92.3365 122.318 92.4071 122.432 92.4607C122.722 92.6059 122.994 92.7458 123.321 92.8003C123.417 92.8206 123.503 92.8749 123.588 92.9292C124.038 93.2168 124.526 93.4138 125.024 93.5768C125.301 93.6717 125.573 93.7836 125.835 93.9294C126.114 94.0804 126.419 94.1747 126.719 94.286C126.878 94.3442 127.048 94.3966 127.206 94.4549C127.263 94.4817 127.32 94.5085 127.365 94.5412C127.531 94.6667 127.712 94.7132 127.915 94.748C128.152 94.7932 128.389 94.8665 128.616 94.9457C129.074 95.0872 129.537 95.1835 130.01 95.274C130.202 95.3147 130.375 95.2659 130.536 95.1668C130.641 95.097 130.695 95.0115 130.703 94.8653C130.584 94.587 130.504 94.2742 130.323 93.9861C130.137 93.6869 130.062 93.3571 130.02 93.0097C130.006 92.8752 129.98 92.7466 129.927 92.6186C129.885 92.5128 129.86 92.4122 129.847 92.3058C129.817 91.9806 129.709 91.6684 129.617 91.3334C129.38 91.0746 129.266 90.7233 129.123 90.4006C128.999 90.1113 128.896 89.8102 128.794 89.5091C128.704 89.2583 128.636 88.9958 128.546 88.745C128.402 88.3381 128.359 87.9065 128.254 87.4931C128.173 87.1522 128.103 86.8055 127.955 86.4717C127.849 86.2438 127.77 85.9871 127.686 85.7474C127.626 85.6083 127.562 85.4861 127.469 85.3646C127.376 85.2431 127.322 85.087 127.246 84.9426C127.192 84.8146 127.156 84.6919 127.114 84.558C126.993 84.1955 126.872 83.833 126.758 83.4817C126.679 83.2531 126.623 83.0128 126.567 82.7724C126.51 82.5041 126.51 82.2344 126.571 81.9746C126.582 81.9406 126.575 81.9015 126.58 81.8564C126.545 81.8179 126.528 81.7846 126.482 81.7519C126.43 81.7081 126.357 81.676 126.294 81.6381C125.906 81.3884 125.475 81.1902 125.109 80.9006C124.983 80.7967 124.824 80.7104 124.649 80.675C124.536 80.6494 124.433 80.5618 124.308 80.486C124.1 80.4963 123.87 80.5183 123.624 80.535C123.494 80.7739 123.422 81.0676 123.218 81.2183C123.05 81.2501 122.922 81.2755 122.788 81.3178C122.364 81.4284 121.964 81.6396 121.558 81.8116C121.419 81.8709 121.297 81.9355 121.182 82.0392C121.127 82.0966 121.043 82.1266 120.966 82.1676C120.716 82.2856 120.455 82.4094 120.205 82.5274C120.105 82.5802 120.011 82.6441 119.904 82.6577C119.675 82.7078 119.504 82.8408 119.327 82.9628C119.283 82.9862 119.25 83.0319 119.206 83.0554C118.945 83.1792 118.736 83.3749 118.526 83.5425C118.251 83.7734 117.964 83.9821 117.705 84.2182C117.413 84.472 117.133 84.7479 116.853 85.0239C116.683 85.185 116.529 85.3513 116.365 85.5236C116.205 85.6788 116.069 85.8504 115.961 86.0495C115.779 86.1603 115.636 86.2927 115.539 86.4859C115.431 86.685 115.273 86.8683 115.09 87.0072C114.82 87.2211 114.613 87.501 114.463 87.8078C114.409 87.9213 114.356 88.0349 114.313 88.1426C114.339 88.2993 114.46 88.3921 114.568 88.4908C114.764 88.6718 114.965 88.864 115.165 89.028C115.526 89.3345 115.925 89.6065 116.378 89.7649C116.831 89.9233 117.252 90.1554 117.672 90.3595C117.865 90.4563 118.059 90.5811 118.273 90.6101C118.307 90.6205 118.341 90.631 118.381 90.6526C118.574 90.7775 118.778 90.8403 118.988 90.9143C119.129 90.9673 119.249 91.032 119.324 91.1483C119.326 91.2325 119.299 91.2893 119.244 91.3187C119.122 91.3832 119.057 91.5026 118.993 91.622C118.929 91.7695 118.859 91.9059 118.767 92.0821C118.758 92.1722 118.739 92.2963 118.731 92.4425C118.622 92.6135 118.492 92.7962 118.378 92.9841C118.281 93.1492 118.172 93.3202 118.092 93.4905C117.91 93.871 117.659 94.2025 117.431 94.5503C117.307 94.7441 117.142 94.9163 117.04 95.1265C116.906 95.4104 116.715 95.6394 116.558 95.9069C116.445 96.0949 116.331 96.2828 116.172 96.4381C116.161 96.4439 116.155 96.4609 116.144 96.4668C115.978 96.7964 115.726 97.0717 115.531 97.3738C115.444 97.505 115.357 97.6361 115.259 97.7732C115.134 97.9389 114.985 98.0883 114.767 98.1325C114.698 98.2689 114.605 98.3889 114.546 98.5195C114.482 98.667 114.378 98.7929 114.234 98.8692C114.123 98.9278 114.03 99.0198 113.97 99.1223C113.797 99.4127 113.567 99.6482 113.353 99.8889C113.31 99.9405 113.271 99.975 113.244 100.032C113.143 100.27 112.973 100.431 112.785 100.587C112.67 100.691 112.56 100.806 112.479 100.948C112.377 101.158 112.19 101.314 111.985 101.436C111.758 101.571 111.588 101.76 111.412 101.938C111.341 102.018 111.264 102.087 111.176 102.162C110.944 102.342 110.758 102.554 110.596 102.81C110.433 103.067 110.231 103.302 109.953 103.448C109.742 103.56 109.532 103.699 109.339 103.844C109.168 103.977 109.037 104.132 108.969 104.352C108.709 104.532 108.427 104.724 108.173 104.915C108.052 105.008 107.931 105.128 107.815 105.232C107.612 105.439 107.403 105.607 107.148 105.742C106.87 105.888 106.582 106.041 106.403 106.32C106.348 106.406 106.249 106.486 106.155 106.522C105.837 106.647 105.584 106.866 105.33 107.058C105.187 107.162 105.038 107.283 104.9 107.399C104.85 107.439 104.801 107.48 104.756 107.503C104.485 107.661 104.196 107.813 103.925 107.971C103.731 108.088 103.548 108.199 103.371 108.321C103.161 108.46 102.922 108.572 102.7 108.69C102.267 108.918 101.858 109.192 101.414 109.398C101.358 109.427 101.303 109.457 101.247 109.486C100.998 109.632 100.737 109.784 100.453 109.863C100.291 109.906 100.141 110 99.9801 110.071C99.8026 110.165 99.6316 110.298 99.4247 110.336C99.3966 110.337 99.3803 110.359 99.3581 110.371C98.9051 110.696 98.364 110.854 97.8816 111.123C97.7928 111.17 97.6981 111.206 97.6087 111.225C97.4749 111.267 97.3522 111.304 97.2419 111.391C97.1923 111.431 97.1309 111.449 97.0754 111.479C96.6858 111.628 96.2902 111.766 95.9123 111.937C95.7178 112.026 95.5356 112.165 95.3254 112.304C95.0128 112.384 94.6558 112.488 94.3398 112.669C94.1734 112.757 93.9723 112.806 93.7824 112.85C93.6316 112.887 93.5037 112.941 93.3823 113.033C93.3105 113.085 93.2328 113.126 93.1603 113.151C92.597 113.32 92.0337 113.49 91.4939 113.705C91.4215 113.729 91.3543 113.736 91.276 113.749C90.9574 113.818 90.6331 113.876 90.3217 114.012C90.1827 114.071 90.043 114.102 89.9033 114.134C89.607 114.191 89.2996 114.254 89.0156 114.361C88.8818 114.404 88.7252 114.43 88.5855 114.461C88.2278 114.536 87.8702 114.612 87.5066 114.676C87.2717 114.715 87.0471 114.72 86.8063 114.748C86.6608 114.768 86.5204 114.771 86.3749 114.791C85.7594 114.889 85.1315 114.937 84.5083 114.94C83.913 114.942 83.3067 114.95 82.7004 114.958C81.976 114.957 81.2619 114.923 80.5303 114.855C80.1029 114.825 79.6747 114.767 79.2583 114.732C78.7349 114.682 78.2109 114.604 77.6868 114.525C77.4838 114.491 77.2809 114.456 77.0721 114.41C76.1806 114.228 75.295 114.057 74.4035 113.874C73.7039 113.733 73.0095 113.574 72.3262 113.41C72.0835 113.353 71.8511 113.263 71.6194 113.201C70.5237 112.927 69.443 112.575 68.4113 112.155C67.527 111.798 66.6369 111.43 65.7958 110.994C65.4036 110.789 65.0114 110.585 64.6303 110.374C64.2721 110.18 63.9197 109.997 63.5666 109.786C63.1679 109.542 62.7692 109.298 62.3816 109.048C61.7891 108.679 61.2293 108.265 60.6746 107.834C59.9712 107.282 59.2567 106.736 58.6245 106.104C58.1991 105.676 57.7462 105.276 57.3156 104.864C56.6553 104.233 56.0002 103.584 55.4222 102.867C55.3471 102.779 55.2669 102.708 55.1977 102.63C55.1573 102.581 55.1005 102.554 55.0711 102.498C54.7228 102.001 54.3032 101.583 53.9274 101.114C53.4361 100.507 52.9501 99.883 52.4862 99.2473C52.2951 98.9932 52.1261 98.7273 51.946 98.4673C51.8645 98.3399 51.7667 98.2353 51.6851 98.108C51.5925 97.9864 51.5168 97.8702 51.4352 97.7428C51.4059 97.6872 51.3765 97.6317 51.3361 97.5821C51.1168 97.3286 50.942 97.0516 50.7894 96.7629C50.6955 96.5852 50.5963 96.4245 50.5024 96.2468C50.4378 96.1247 50.368 96.0195 50.3034 95.8973C50.2447 95.7863 50.1638 95.687 50.1221 95.5812C49.9733 95.2193 49.7581 94.8927 49.5206 94.5778C49.4567 94.4837 49.3986 94.4008 49.3457 94.3008C49.1807 93.9618 48.9935 93.6345 48.7619 93.3307C48.6869 93.2425 48.6334 93.1145 48.6138 92.997C48.5825 92.8572 48.5343 92.7122 48.4639 92.579C48.2812 92.2067 48.0875 91.8402 47.9159 91.462C47.7679 91.1283 47.642 90.7828 47.5494 90.4197C47.5057 90.2297 47.4229 90.0461 47.346 89.8737C47.1803 89.5066 47.0035 89.1454 46.832 88.7672C46.7726 88.6281 46.7191 88.5001 46.7433 88.331C46.8465 88.177 47.0247 88.1112 47.2035 88.0735C47.4104 88.0351 47.5756 87.891 47.7766 87.8415C47.8491 87.8174 47.9091 87.7431 47.9809 87.6909C48.1239 87.5585 48.2727 87.4372 48.4738 87.3877C48.6356 87.3448 48.7453 87.2299 48.855 87.1151C49.0417 86.9311 49.2578 86.8027 49.5254 86.7181C49.6997 86.4838 49.9204 86.3103 50.1926 86.1807C50.3812 86.0809 50.5692 85.9531 50.7226 85.7867C50.8101 85.6837 50.9263 85.608 51.0542 85.5546C51.2044 85.4894 51.3317 85.4079 51.4355 85.282C51.5667 85.1274 51.7214 85.0171 51.8931 84.9122C51.9819 84.8652 52.0648 84.8072 52.1307 84.7439C52.2241 84.6519 52.277 84.5103 52.3932 84.4347C52.5035 84.3479 52.6086 84.2782 52.6961 84.1751C52.8279 84.0485 52.9885 83.9494 53.1204 83.8229C53.2797 83.6676 53.4449 83.5235 53.6505 83.429C53.704 83.3154 53.7634 83.213 53.8222 83.0824C54.0761 82.8913 54.3242 82.6892 54.5834 82.4811C54.6441 82.4348 54.6878 82.3833 54.7257 82.3206C54.8719 82.087 55.0587 81.903 55.3028 81.7739C55.4803 81.6801 55.5946 81.5202 55.7258 81.3656C55.8244 81.2567 55.923 81.1477 56.0157 81.0276C56.0758 80.9532 56.1469 80.873 56.173 80.7882C56.2259 80.6465 56.3245 80.5376 56.4062 80.4234C56.4936 80.3203 56.5752 80.2061 56.6627 80.103C56.7887 79.9654 56.9036 79.8336 57.0845 79.6385C57.106 79.5987 57.1596 79.4851 57.1916 79.4114C57.3293 79.2959 57.4338 79.1981 57.5493 79.0944C57.6715 78.7883 57.9195 78.5861 58.1213 78.3231C58.1474 78.2383 58.1677 78.1423 58.1827 78.0633C58.3303 77.8858 58.4778 77.7084 58.6306 77.5139C58.7311 77.4892 58.8134 77.4031 58.8839 77.2948C59.0249 77.0781 59.1659 76.8615 59.3128 76.656C59.4323 76.4791 59.5009 76.2866 59.5186 76.0783C59.717 75.9166 59.8587 75.728 60.0056 75.5224C60.1904 75.2543 60.3693 74.975 60.5482 74.6957C60.6892 74.479 60.7565 74.2303 60.7782 73.949C60.8441 73.8857 60.9041 73.8113 60.9759 73.7591C61.1085 73.6606 61.2012 73.5406 61.2593 73.382C61.307 73.2573 61.3488 73.1215 61.3965 72.9969C61.5075 72.6966 61.6186 72.3964 61.8549 72.172C61.9097 72.1146 61.9469 72.0239 61.9789 71.9501C62.086 71.723 62.182 71.5017 62.295 71.2857C62.4994 70.8935 62.681 70.4849 62.7496 70.0508C62.7601 70.0169 62.7646 69.9718 62.781 69.949C62.9213 69.7043 62.9541 69.417 63.0716 69.1559C63.1088 69.0652 63.1461 68.9745 63.1494 68.8733C63.1677 68.6931 63.2317 68.5456 63.2839 68.3759C63.331 68.2232 63.378 68.0704 63.38 67.9131C63.3983 67.7329 63.4278 67.5468 63.4911 67.3712C63.6342 66.9972 63.6532 66.6036 63.6781 66.221C63.6879 66.159 63.6697 66.0976 63.6964 66.0408C63.7637 65.7921 63.7638 65.5505 63.6855 65.3219C63.6673 65.2605 63.6771 65.1985 63.6758 65.1424C63.7007 64.7598 63.7315 64.3883 63.8014 64.0103C63.8772 63.6435 63.7958 63.2745 63.681 62.9231C63.6269 62.767 63.5558 62.6057 63.4736 62.4502C63.3972 62.3059 63.349 62.1609 63.3451 61.9924C63.3504 61.7339 63.2663 61.4942 63.1652 61.2493C63.0113 60.9044 62.8293 60.5602 62.5924 60.2733C62.3726 59.9918 62.1253 59.7389 61.8669 59.4919C61.4656 59.1357 61.0532 58.7854 60.6683 58.4063C60.5247 58.2691 60.3597 58.1717 60.1783 58.0971C59.679 57.8779 59.1439 57.8057 58.6368 57.7328C58.4018 57.7717 58.2706 57.9264 58.1504 58.0751C57.7595 58.1682 57.456 58.1581 57.0488 58.0324C56.6898 58.0517 56.3491 58.1324 56.009 58.2411C55.8641 58.2893 55.7082 58.3433 55.5639 58.4196C55.4418 58.4841 55.325 58.5317 55.1788 58.5238C55.0045 58.5164 54.8544 58.5816 54.7108 58.6859C54.4294 58.9057 54.1187 59.07 53.7486 59.0951C53.5019 59.1119 53.267 59.1509 53.0052 59.2466C52.9171 59.3216 52.8179 59.4025 52.7187 59.4834C52.5235 59.5439 52.3395 59.5986 52.1371 59.5919C52.019 59.5833 51.9244 59.6192 51.8245 59.672C51.6358 59.7717 51.4466 59.8433 51.2814 59.9875C51.254 60.0162 51.2266 60.0449 51.1874 60.0514C50.8526 60.1432 50.6456 60.4231 50.3747 60.6089C50.3636 60.6148 50.3525 60.6207 50.3414 60.6265C50.1834 60.8379 49.9445 60.9501 49.7167 61.0563C49.6945 61.068 49.6782 61.0908 49.6011 61.16C49.5959 61.177 49.5645 61.2788 49.5279 61.3976C49.539 61.3917 49.5169 61.4035 49.5058 61.4093C49.4059 61.4621 49.3171 61.5091 49.2231 61.573C49.118 61.6427 49.0416 61.74 48.9306 61.7986C48.742 61.8984 48.6219 62.0471 48.5983 62.2443C48.5161 62.3304 48.439 62.3995 48.3509 62.4745C48.2393 62.5051 48.1388 62.5299 48.0161 62.5663C47.9671 62.6348 47.907 62.7092 47.8528 62.7947C47.8045 62.8913 47.7451 62.9937 47.7079 63.0845C47.6282 63.2829 47.5198 63.4538 47.2972 63.5431C47.0804 64.1266 46.6123 64.5304 46.2506 64.9205C46.0854 65.3062 45.958 65.6293 45.8026 65.953C45.7654 66.0437 45.6942 66.124 45.6283 66.1873C45.4742 66.3255 45.3769 66.4907 45.3364 66.6826C45.2907 66.8915 45.1882 67.0735 45.023 67.2177C44.8467 67.3677 44.767 67.5661 44.7781 67.8018C44.7885 68.0095 44.7257 68.2131 44.6572 68.4057C44.6147 68.5134 44.5664 68.61 44.4783 68.685C44.2857 68.8578 44.2008 69.0732 44.1335 69.3219C44.0564 69.6326 43.9904 69.9375 43.8454 70.2273C43.7755 70.3636 43.7507 70.5047 43.7709 70.6503C43.81 70.8854 43.7812 71.0995 43.6572 71.3214C43.5168 71.5661 43.4899 71.8644 43.4624 72.1347C43.414 72.4729 43.3826 72.8163 43.2892 73.1498C43.2056 73.4214 43.1219 73.6929 43.1734 73.9783C43.1871 74.0847 43.1616 74.1977 43.1472 74.3047C43.1198 74.575 43.1034 74.8394 43.0308 75.1051C42.9635 75.3538 42.9635 75.5954 42.9967 75.8194C42.87 76.1705 42.8895 76.5296 42.9031 76.8776C42.9154 77.1695 42.8996 77.462 42.9681 77.7526C42.9864 77.814 42.9772 77.9041 42.9674 77.9661C42.8896 78.2487 42.9522 78.5282 42.9867 78.8084C42.9939 78.8756 43.0063 78.9259 43.0245 78.9873C43.1764 79.4895 43.2279 80.0164 43.2512 80.544C43.2525 80.6002 43.2597 80.6674 43.2499 80.7294C43.1989 80.9553 43.2373 81.1623 43.2425 81.3869C43.2645 81.8583 43.4374 82.2927 43.56 82.7394C43.6206 82.9346 43.6591 83.1416 43.7086 83.3428C43.7575 83.5158 43.8123 83.7 43.8501 83.8789C43.8748 83.9795 43.9055 84.0912 43.9191 84.1976C43.9575 84.6462 44.1186 85.0583 44.2184 85.4887C44.2803 85.7401 44.3866 85.968 44.4766 86.2188C44.3833 86.3108 44.4015 86.3722 44.4087 86.4395ZM45.8584 85.7441C45.7279 85.6852 45.6757 85.6133 45.6568 85.5238C45.6301 85.3391 45.6204 85.1595 45.5937 84.9747C45.5728 84.801 45.5631 84.6214 45.4979 84.4712C45.3381 84.1152 45.2455 83.7521 45.1529 83.3891C45.1027 83.1598 45.0303 82.9424 44.9802 82.7131C44.9241 82.4728 44.885 82.2378 44.8511 81.9857C44.8153 81.6494 44.7345 81.3085 44.7548 80.971C44.7679 80.8078 44.719 80.6347 44.6982 80.461C44.6904 80.3657 44.6375 80.2657 44.6467 80.1757C44.6579 79.9282 44.6188 79.6931 44.6019 79.4463C44.5791 79.1884 44.5733 78.9357 44.5616 78.6719C44.5434 78.6105 44.4585 78.5844 44.5075 78.5158C44.5343 78.4591 44.561 78.4023 44.5598 78.3461C44.5527 78.0373 44.5625 77.7337 44.5443 77.4307C44.519 77.0605 44.5276 76.7008 44.5864 76.3287C44.6008 76.2216 44.6152 76.1145 44.6237 75.9964C44.6395 75.7039 44.6552 75.4114 44.6821 75.113C44.756 74.4203 44.92 73.7369 45.039 73.0488C45.0893 72.7949 45.1736 72.5514 45.2409 72.3027C45.3075 72.026 45.3461 71.7498 45.5152 71.5325C45.5322 71.2962 45.5499 71.0879 45.5734 70.8908C45.6009 70.6205 45.6963 70.3712 45.8484 70.1487C45.9026 70.0632 45.9287 69.9783 45.966 69.8876C46.0404 69.7062 46.1149 69.5247 46.1893 69.3432C46.237 69.2186 46.3017 69.0992 46.3494 68.9745C46.4558 68.7193 46.5564 68.453 46.6739 68.1919C46.8509 67.8284 47.0449 67.4701 47.2277 67.1177C47.2708 67.0381 47.3139 66.9585 47.3687 66.9011C47.5665 66.7112 47.6788 66.4672 47.8081 66.2283C47.8565 66.1317 47.9159 66.0293 47.9871 65.949C48.3364 65.5086 48.64 65.0355 49.0291 64.6167C49.4946 64.1006 49.9255 63.546 50.4484 63.0849C50.7291 62.837 50.9922 62.5558 51.3362 62.3739C51.5248 62.2742 51.6783 62.1078 51.8376 61.9526C51.8761 61.918 51.8911 61.839 51.9074 61.8162C51.9968 61.7973 52.0869 61.8065 52.1646 61.7655C52.3147 61.7003 52.4361 61.6077 52.5804 61.5314C52.6581 61.4904 52.724 61.4271 52.8023 61.4141C53.1149 61.3341 53.3924 61.1874 53.6868 61.046C53.9146 60.9397 54.1372 60.8505 54.3715 60.7834C54.6228 60.7216 54.8564 60.6265 55.1018 60.5536C55.453 60.439 55.8042 60.3243 56.1501 60.2267C56.3844 60.1597 56.6305 60.1148 56.8707 60.0589C57.6748 59.8611 57.7421 59.8539 58.6786 59.7993C58.83 59.7902 58.9978 59.7584 59.1427 59.7102C59.2765 59.6679 59.4051 59.6425 59.5402 59.6563C59.7092 59.6806 59.8887 59.671 60.0577 59.6953C60.6659 59.7716 60.666 59.7716 61.1175 60.1154C61.1404 60.1317 61.1521 60.1539 61.1697 60.1873C61.1298 60.4073 61.197 60.6417 61.3138 60.8357C61.3607 60.9245 61.3796 61.014 61.4044 61.1146C61.4735 61.4333 61.4812 61.7702 61.5673 62.0941C61.6286 62.3174 61.6899 62.5408 61.5717 62.7738C61.5664 62.7907 61.5671 62.8188 61.5677 62.8469C61.5513 63.1113 61.5519 63.381 61.5244 63.6512C61.5166 63.7975 61.4976 63.9496 61.4558 64.0854C61.3721 64.3569 61.3447 64.6272 61.3851 64.9184C61.4118 65.1032 61.3934 65.2834 61.3862 65.4577C61.3157 65.5661 61.2504 65.6574 61.1962 65.7429C61.1779 65.9231 61.1648 66.0863 61.0786 66.2455C61.057 66.2853 61.0414 66.3363 61.0426 66.3924C61.0465 66.5609 60.9825 66.7084 60.9296 66.85C60.8401 67.1104 60.7389 67.3487 60.6664 67.6143C60.6043 67.8461 60.5142 68.0784 60.3842 68.2892C60.33 68.3747 60.3098 68.4706 60.2725 68.5614C60.1556 68.8505 60.0674 69.1671 59.8996 69.4405C59.8076 69.5886 59.7273 69.759 59.6978 69.945C59.6887 70.0351 59.6403 70.1317 59.5861 70.2172C59.3386 70.689 59.097 71.172 58.9292 71.687C58.9239 71.7039 58.9135 71.7379 58.8971 71.7607C58.7816 71.8645 58.7457 72.0113 58.6699 72.1366C58.589 72.2789 58.5191 72.4153 58.4153 72.5412C58.3004 72.673 58.2024 72.81 58.1332 72.9745C58.0268 73.2297 57.8688 73.4411 57.7108 73.6525C57.4875 73.9553 57.3157 74.3018 57.0468 74.5719C57.003 74.6234 56.971 74.6972 56.9331 74.7598C56.7072 75.1919 56.4303 75.6082 56.113 75.9748C55.9929 76.1236 55.9008 76.2718 55.8146 76.431C55.7017 76.647 55.5659 76.8467 55.3844 77.0137C55.2799 77.1115 55.1872 77.2316 55.1115 77.3569C55.0194 77.505 54.9156 77.6309 54.7779 77.7463C54.6623 77.8501 54.5585 77.976 54.4547 78.1019C54.3405 78.2618 54.2432 78.4269 54.1348 78.5979C54.0205 78.7577 53.9062 78.9176 53.7404 79.0337C53.6797 79.08 53.6125 79.0871 53.5459 79.1223C53.5028 79.2019 53.4708 79.2757 53.4277 79.3553C53.3337 79.4192 53.2397 79.4831 53.2065 79.5007C52.8748 79.9744 52.5868 80.3966 52.1208 80.643C52.0444 80.7402 51.9961 80.8368 51.9249 80.9171C51.8152 81.0319 51.6827 81.1304 51.573 81.2452C51.4522 81.3659 51.3602 81.514 51.2335 81.6236C51.0684 81.7677 50.8745 81.8844 50.7035 82.0175C50.582 82.1101 50.4495 82.2086 50.3457 82.3345C50.0402 82.7234 49.608 82.9802 49.262 83.3195C48.764 83.6396 48.3122 84.0205 47.7789 84.274C47.7234 84.3034 47.6738 84.3438 47.6242 84.3843C47.5576 84.661 47.3702 84.8169 47.1026 84.9016C47.0524 84.9139 47.0139 84.9485 46.9636 84.9609C46.8193 85.0371 46.692 85.1186 46.5882 85.2446C46.4296 85.4279 46.2018 85.5341 45.9857 85.6626C46.032 85.7233 45.9309 85.72 45.8584 85.7441ZM122.447 91.3873C122.473 91.3025 122.504 91.2006 122.53 91.1158C122.625 90.8384 122.703 90.5557 122.814 90.2836C122.894 90.0851 122.968 89.8756 123.115 89.6982C123.241 89.5605 123.311 89.396 123.351 89.2041C123.371 89.0801 123.429 88.9496 123.471 88.8138C123.633 88.2877 123.903 87.8041 124.048 87.2728C124.064 87.2218 124.085 87.182 124.107 87.1422C124.171 86.9947 124.252 86.8525 124.299 86.6997C124.404 86.3884 124.509 86.077 124.671 85.7925C124.73 85.69 124.767 85.5712 124.815 85.4746C124.972 85.4487 125.042 85.5538 125.1 85.6368C125.217 85.8308 125.328 86.0418 125.423 86.2475C125.571 86.5813 125.624 86.9509 125.8 87.284C125.818 87.3174 125.824 87.3565 125.825 87.3846C125.905 87.6693 125.956 87.9547 126.058 88.2277C126.154 88.4896 126.194 88.7809 126.345 88.9854C126.366 89.159 126.369 89.2994 126.4 89.4392C126.482 89.8362 126.497 90.2404 126.63 90.625C126.635 90.6361 126.63 90.6531 126.636 90.6642C126.666 90.9894 126.74 91.2911 126.843 91.5922C126.993 92.0102 127.092 92.4405 127.298 92.8292C127.363 92.9513 127.399 93.0741 127.441 93.208C127.466 93.2805 127.451 93.3595 127.373 93.4005C127.273 93.4533 127.176 93.4049 127.086 93.3677C126.474 93.151 125.863 92.9344 125.256 92.7008C125.064 92.632 124.887 92.5124 124.684 92.4776C124.65 92.4672 124.622 92.4397 124.588 92.4293C124.185 92.2585 123.788 92.0708 123.374 91.9059C123.068 91.7835 122.794 91.5874 122.509 91.4252C122.482 91.4539 122.47 91.4317 122.447 91.3873ZM119.786 90.2222C119.65 90.1803 119.554 90.16 119.469 90.1338C119.174 90.0056 118.88 89.8774 118.602 89.7544C118.38 89.6582 118.159 89.562 117.932 89.4548C117.785 89.3907 117.642 89.3096 117.544 89.205C117.444 88.9882 117.541 88.8231 117.69 88.7018C118.015 88.4304 118.249 88.0937 118.545 87.7949C118.825 87.519 119.031 87.1829 119.363 86.9508C119.773 86.4921 120.23 86.0943 120.704 85.7016C120.919 85.517 121.145 85.3546 121.366 85.1812C121.449 85.1231 121.548 85.0422 121.69 85.0952C121.743 85.2233 121.775 85.363 121.722 85.5047C121.637 85.72 121.558 85.9465 121.473 86.1619C121.436 86.2526 121.393 86.3322 121.372 86.4282C121.321 86.6541 121.253 86.8747 121.112 87.0633C121.079 87.1089 121.058 87.1768 121.031 87.2336C120.894 87.5906 120.767 87.9418 120.64 88.2929C120.613 88.3497 120.587 88.4065 120.56 88.4633C120.465 88.7126 120.358 88.9678 120.263 89.2171C120.199 89.3647 120.152 89.5174 120.088 89.6649C119.985 89.847 119.888 90.0121 119.786 90.2222Z" fill="url(#paint1_linear_109_442)" shape-rendering="crispEdges"/>
</g>
<g filter="url(#filter6_d_109_442)">
<circle cx="177.462" cy="18.4621" r="7" transform="rotate(3.91934 177.462 18.4621)" fill="#7C2BDA"/>
</g>
<g filter="url(#filter7_d_109_442)">
<rect x="189.924" y="14.4622" width="39" height="8" rx="4" fill="#7C2BDA"/>
</g>
<g filter="url(#filter8_d_109_442)">
<circle cx="177.462" cy="101.462" r="7" transform="rotate(3.91934 177.462 101.462)" fill="#FF7A00"/>
</g>
<g filter="url(#filter9_d_109_442)">
<rect x="189.924" y="97.4623" width="39" height="8" rx="4" fill="#FF7A00"/>
</g>
<defs>
<filter id="filter0_d_109_442" x="145" y="0" width="116" height="40" filterUnits="userSpaceOnUse" color-interpolation-filters="sRGB">
<feFlood flood-opacity="0" result="BackgroundImageFix"/>
<feColorMatrix in="SourceAlpha" type="matrix" values="0 0 0 0 0 0 0 0 0 0 0 0 0 0 0 0 0 0 127 0" result="hardAlpha"/>
<feMorphology radius="2" operator="erode" in="SourceAlpha" result="effect1_dropShadow_109_442"/>
<feOffset dy="4"/>
<feGaussianBlur stdDeviation="2"/>
<feComposite in2="hardAlpha" operator="out"/>
<feColorMatrix type="matrix" values="0 0 0 0 0 0 0 0 0 0 0 0 0 0 0 0 0 0 0.05 0"/>
<feBlend mode="normal" in2="BackgroundImageFix" result="effect1_dropShadow_109_442"/>
<feBlend mode="normal" in="SourceGraphic" in2="effect1_dropShadow_109_442" result="shape"/>
</filter>
<filter id="filter1_d_109_442" x="145" y="42" width="116" height="40" filterUnits="userSpaceOnUse" color-interpolation-filters="sRGB">
<feFlood flood-opacity="0" result="BackgroundImageFix"/>
<feColorMatrix in="SourceAlpha" type="matrix" values="0 0 0 0 0 0 0 0 0 0 0 0 0 0 0 0 0 0 127 0" result="hardAlpha"/>
<feMorphology radius="2" operator="erode" in="SourceAlpha" result="effect1_dropShadow_109_442"/>
<feOffset dy="4"/>
<feGaussianBlur stdDeviation="2"/>
<feComposite in2="hardAlpha" operator="out"/>
<feColorMatrix type="matrix" values="0 0 0 0 0 0 0 0 0 0 0 0 0 0 0 0 0 0 0.05 0"/>
<feBlend mode="normal" in2="BackgroundImageFix" result="effect1_dropShadow_109_442"/>
<feBlend mode="normal" in="SourceGraphic" in2="effect1_dropShadow_109_442" result="shape"/>
</filter>
<filter id="filter2_d_109_442" x="145" y="84" width="116" height="40" filterUnits="userSpaceOnUse" color-interpolation-filters="sRGB">
<feFlood flood-opacity="0" result="BackgroundImageFix"/>
<feColorMatrix in="SourceAlpha" type="matrix" values="0 0 0 0 0 0 0 0 0 0 0 0 0 0 0 0 0 0 127 0" result="hardAlpha"/>
<feMorphology radius="2" operator="erode" in="SourceAlpha" result="effect1_dropShadow_109_442"/>
<feOffset dy="4"/>
<feGaussianBlur stdDeviation="2"/>
<feComposite in2="hardAlpha" operator="out"/>
<feColorMatrix type="matrix" values="0 0 0 0 0 0 0 0 0 0 0 0 0 0 0 0 0 0 0.05 0"/>
<feBlend mode="normal" in2="BackgroundImageFix" result="effect1_dropShadow_109_442"/>
<feBlend mode="normal" in="SourceGraphic" in2="effect1_dropShadow_109_442" result="shape"/>
</filter>
<filter id="filter3_d_109_442" x="184.779" y="18.7795" width="119.172" height="62.1913" filterUnits="userSpaceOnUse" color-interpolation-filters="sRGB">
<feFlood flood-opacity="0" result="BackgroundImageFix"/>
<feColorMatrix in="SourceAlpha" type="matrix" values="0 0 0 0 0 0 0 0 0 0 0 0 0 0 0 0 0 0 127 0" result="hardAlpha"/>
<feMorphology radius="2" operator="erode" in="SourceAlpha" result="effect1_dropShadow_109_442"/>
<feOffset dy="4"/>
<feGaussianBlur stdDeviation="2"/>
<feComposite in2="hardAlpha" operator="out"/>
<feColorMatrix type="matrix" values="0 0 0 0 0 0 0 0 0 0 0 0 0 0 0 0 0 0 0.05 0"/>
<feBlend mode="normal" in2="BackgroundImageFix" result="effect1_dropShadow_109_442"/>
<feBlend mode="normal" in="SourceGraphic" in2="effect1_dropShadow_109_442" result="shape"/>
</filter>
<filter id="filter4_d_109_442" x="0" y="0" width="135.228" height="45.6819" filterUnits="userSpaceOnUse" color-interpolation-filters="sRGB">
<feFlood flood-opacity="0" result="BackgroundImageFix"/>
<feColorMatrix in="SourceAlpha" type="matrix" values="0 0 0 0 0 0 0 0 0 0 0 0 0 0 0 0 0 0 127 0" result="hardAlpha"/>
<feMorphology radius="2" operator="erode" in="SourceAlpha" result="effect1_dropShadow_109_442"/>
<feOffset dy="4"/>
<feGaussianBlur stdDeviation="2"/>
<feComposite in2="hardAlpha" operator="out"/>
<feColorMatrix type="matrix" values="0 0 0 0 0 0 0 0 0 0 0 0 0 0 0 0 0 0 0.05 0"/>
<feBlend mode="normal" in2="BackgroundImageFix" result="effect1_dropShadow_109_442"/>
<feBlend mode="normal" in="SourceGraphic" in2="effect1_dropShadow_109_442" result="shape"/>
</filter>
<filter id="filter5_d_109_442" x="7.62744" y="41.0366" width="125.075" height="81.5867" filterUnits="userSpaceOnUse" color-interpolation-filters="sRGB">
<feFlood flood-opacity="0" result="BackgroundImageFix"/>
<feColorMatrix in="SourceAlpha" type="matrix" values="0 0 0 0 0 0 0 0 0 0 0 0 0 0 0 0 0 0 127 0" result="hardAlpha"/>
<feMorphology radius="2" operator="erode" in="SourceAlpha" result="effect1_dropShadow_109_442"/>
<feOffset dy="4"/>
<feGaussianBlur stdDeviation="2"/>
<feComposite in2="hardAlpha" operator="out"/>
<feColorMatrix type="matrix" values="0 0 0 0 0 0 0 0 0 0 0 0 0 0 0 0 0 0 0.05 0"/>
<feBlend mode="normal" in2="BackgroundImageFix" result="effect1_dropShadow_109_442"/>
<feBlend mode="normal" in="SourceGraphic" in2="effect1_dropShadow_109_442" result="shape"/>
</filter>
<filter id="filter6_d_109_442" x="168.462" y="11.4619" width="18.0005" height="20.0005" filterUnits="userSpaceOnUse" color-interpolation-filters="sRGB">
<feFlood flood-opacity="0" result="BackgroundImageFix"/>
<feColorMatrix in="SourceAlpha" type="matrix" values="0 0 0 0 0 0 0 0 0 0 0 0 0 0 0 0 0 0 127 0" result="hardAlpha"/>
<feMorphology radius="2" operator="erode" in="SourceAlpha" result="effect1_dropShadow_109_442"/>
<feOffset dy="4"/>
<feGaussianBlur stdDeviation="2"/>
<feComposite in2="hardAlpha" operator="out"/>
<feColorMatrix type="matrix" values="0 0 0 0 0 0 0 0 0 0 0 0 0 0 0 0 0 0 0.05 0"/>
<feBlend mode="normal" in2="BackgroundImageFix" result="effect1_dropShadow_109_442"/>
<feBlend mode="normal" in="SourceGraphic" in2="effect1_dropShadow_109_442" result="shape"/>
</filter>
<filter id="filter7_d_109_442" x="187.924" y="14.4622" width="43" height="14" filterUnits="userSpaceOnUse" color-interpolation-filters="sRGB">
<feFlood flood-opacity="0" result="BackgroundImageFix"/>
<feColorMatrix in="SourceAlpha" type="matrix" values="0 0 0 0 0 0 0 0 0 0 0 0 0 0 0 0 0 0 127 0" result="hardAlpha"/>
<feMorphology radius="2" operator="erode" in="SourceAlpha" result="effect1_dropShadow_109_442"/>
<feOffset dy="4"/>
<feGaussianBlur stdDeviation="2"/>
<feComposite in2="hardAlpha" operator="out"/>
<feColorMatrix type="matrix" values="0 0 0 0 0 0 0 0 0 0 0 0 0 0 0 0 0 0 0.05 0"/>
<feBlend mode="normal" in2="BackgroundImageFix" result="effect1_dropShadow_109_442"/>
<feBlend mode="normal" in="SourceGraphic" in2="effect1_dropShadow_109_442" result="shape"/>
</filter>
<filter id="filter8_d_109_442" x="168.462" y="94.4618" width="18.0005" height="20.0006" filterUnits="userSpaceOnUse" color-interpolation-filters="sRGB">
<feFlood flood-opacity="0" result="BackgroundImageFix"/>
<feColorMatrix in="SourceAlpha" type="matrix" values="0 0 0 0 0 0 0 0 0 0 0 0 0 0 0 0 0 0 127 0" result="hardAlpha"/>
<feMorphology radius="2" operator="erode" in="SourceAlpha" result="effect1_dropShadow_109_442"/>
<feOffset dy="4"/>
<feGaussianBlur stdDeviation="2"/>
<feComposite in2="hardAlpha" operator="out"/>
<feColorMatrix type="matrix" values="0 0 0 0 0 0 0 0 0 0 0 0 0 0 0 0 0 0 0.05 0"/>
<feBlend mode="normal" in2="BackgroundImageFix" result="effect1_dropShadow_109_442"/>
<feBlend mode="normal" in="SourceGraphic" in2="effect1_dropShadow_109_442" result="shape"/>
</filter>
<filter id="filter9_d_109_442" x="187.924" y="97.4623" width="43" height="14" filterUnits="userSpaceOnUse" color-interpolation-filters="sRGB">
<feFlood flood-opacity="0" result="BackgroundImageFix"/>
<feColorMatrix in="SourceAlpha" type="matrix" values="0 0 0 0 0 0 0 0 0 0 0 0 0 0 0 0 0 0 127 0" result="hardAlpha"/>
<feMorphology radius="2" operator="erode" in="SourceAlpha" result="effect1_dropShadow_109_442"/>
<feOffset dy="4"/>
<feGaussianBlur stdDeviation="2"/>
<feComposite in2="hardAlpha" operator="out"/>
<feColorMatrix type="matrix" values="0 0 0 0 0 0 0 0 0 0 0 0 0 0 0 0 0 0 0.05 0"/>
<feBlend mode="normal" in2="BackgroundImageFix" result="effect1_dropShadow_109_442"/>
<feBlend mode="normal" in="SourceGraphic" in2="effect1_dropShadow_109_442" result="shape"/>
</filter>
<linearGradient id="paint0_linear_109_442" x1="-0.455781" y1="20.4714" x2="67.3544" y2="-46.3364" gradientUnits="userSpaceOnUse">
<stop stop-color="#4285F4"/>
<stop offset="0.541667" stop-color="#9B72CB"/>
<stop offset="1" stop-color="#D96570"/>
</linearGradient>
<linearGradient id="paint1_linear_109_442" x1="123.5" y1="82" x2="10.5" y2="41.5" gradientUnits="userSpaceOnUse">
<stop offset="0.394769" stop-color="#FECF08"/>
<stop offset="1" stop-color="#FECF08" stop-opacity="0"/>
</linearGradient>
</defs>
</svg>
