<svg width="305" height="124" viewBox="0 0 305 124" fill="none" xmlns="http://www.w3.org/2000/svg">
<g filter="url(#filter0_d_109_442)">
<rect x="147" width="112" height="34" rx="4" fill="white"/>
<rect x="147.5" y="0.5" width="111" height="33" rx="3.5" stroke="#F0F3FA"/>
</g>
<rect x="147.5" y="42.5" width="111" height="33" rx="3.5" fill="white" stroke="#F0F3FA" stroke-linecap="round" stroke-dasharray="6 6"/>
<g filter="url(#filter1_d_109_442)">
<rect x="147" y="84" width="112" height="34" rx="4" fill="white"/>
<rect x="147.5" y="84.5" width="111" height="33" rx="3.5" stroke="#F0F3FA"/>
</g>
<g filter="url(#filter2_d_109_442)">
<rect x="186" y="42.5791" width="112" height="34" rx="4" transform="rotate(-12.6771 186 42.5791)" fill="white"/>
<rect x="186.598" y="42.9572" width="111" height="33" rx="3.5" transform="rotate(-12.6771 186.598 42.9572)" stroke="#F0F3FA"/>
</g>
<g filter="url(#filter3_d_109_442)">
<rect x="218.526" y="49.2948" width="4.7321" height="4.7321" transform="rotate(-57.68 218.526 49.2948)" fill="#FE005B"/>
<rect x="223.443" y="52.4054" width="4.7321" height="4.7321" transform="rotate(-57.68 223.443 52.4054)" fill="#FE005B"/>
<rect x="220.418" y="57.1859" width="4.7321" height="4.7321" transform="rotate(-57.68 220.418 57.1859)" fill="#FE005B"/>
<rect x="215.638" y="54.1615" width="4.7321" height="4.7321" transform="rotate(-57.68 215.638 54.1615)" fill="#FE005B"/>
</g>
<g filter="url(#filter4_d_109_442)">
<rect x="233.959" y="45.8809" width="39" height="8" rx="4" transform="rotate(-12.68 233.959 45.8809)" fill="#FE005B"/>
</g>
<path fill-rule="evenodd" clip-rule="evenodd" d="M280.255 46L302.127 61.5808L290.941 64.157L282.671 72.9334L280.255 46Z" fill="#1ABCFE"/>
<path fill-rule="evenodd" clip-rule="evenodd" d="M302.127 61.5808L290.941 64.157L282.671 72.9334L280.255 46L302.127 61.5808ZM284.053 68.9241L290.046 62.565L297.944 60.7459L282.322 49.6169L284.053 68.9241Z" fill="#F0F3FA"/>
<g filter="url(#filter5_d_109_442)">
<rect width="131.228" height="39.6819" transform="translate(2.00006)" fill="url(#paint0_linear_109_442)"/>
<path d="M13.6207 21.4671L26.2253 20.5883L26.7332 27.8728L14.1286 28.7516L13.6207 21.4671ZM15.4225 37.8729L5.76437 38.5463L3.76709 9.89941L27.0529 8.27591L27.5608 15.5604L13.9331 16.5105L15.4225 37.8729Z" fill="white"/>
<path d="M46.9663 36.3317C44.6473 36.4933 42.4662 36.2753 40.4232 35.6775C38.4075 35.0778 36.6301 34.16 35.0909 32.9239C33.5498 31.6606 32.3063 30.1435 31.3603 28.3726C30.4417 26.5999 29.9072 24.6358 29.757 22.4805C29.6048 20.2978 29.8615 18.2786 30.5272 16.4228C31.2182 14.5378 32.2401 12.8764 33.5929 11.4388C34.9438 9.97381 36.5757 8.80454 38.4887 7.93095C40.429 7.05545 42.5587 6.53687 44.8777 6.37518C47.224 6.21159 49.405 6.42964 51.4208 7.02932C53.4365 7.62899 55.2149 8.56049 56.756 9.82382C58.2952 11.0599 59.5241 12.5643 60.4427 14.3371C61.3868 16.0806 61.9349 18.0438 62.087 20.2264C62.2373 22.3817 61.9669 24.4019 61.2759 26.2869C60.6121 28.17 59.6048 29.844 58.2539 31.309C56.9012 32.7467 55.2683 33.9023 53.3553 34.7759C51.4423 35.6495 49.3126 36.1681 46.9663 36.3317ZM46.4213 28.5151C47.3217 28.4524 48.1424 28.2307 48.8834 27.85C49.6518 27.4675 50.3016 26.9561 50.8326 26.3159C51.3891 25.6466 51.8006 24.864 52.0671 23.9681C52.3318 23.0449 52.4251 22.024 52.3471 20.9055C52.2691 19.7869 52.036 18.8025 51.6477 17.9522C51.2575 17.0747 50.7414 16.3568 50.0994 15.7984C49.4827 15.2109 48.7673 14.781 47.9533 14.5087C47.1665 14.2346 46.323 14.1289 45.4227 14.1917C44.5223 14.2545 43.688 14.4771 42.9196 14.8597C42.1785 15.2403 41.5297 15.7653 40.9733 16.4347C40.4422 17.0749 40.0443 17.8565 39.7797 18.7797C39.5132 19.6756 39.4189 20.6828 39.4969 21.8014C39.5749 22.92 39.809 23.918 40.1991 24.7955C40.5874 25.6458 41.0899 26.3646 41.7066 26.9522C42.3486 27.5106 43.063 27.9268 43.8498 28.201C44.6638 28.4732 45.521 28.5779 46.4213 28.5151Z" fill="white"/>
<path d="M66.5911 34.3054L64.5938 5.65853L78.3852 4.69698C81.059 4.51056 83.3948 4.78635 85.3927 5.52435C87.418 6.26044 89.0196 7.40987 90.1978 8.97266C91.3741 10.5082 92.0392 12.3809 92.1933 14.5908C92.3474 16.8007 91.9485 18.7475 90.9967 20.4314C90.043 22.088 88.6135 23.4077 86.7081 24.3904C84.83 25.3712 82.5541 25.9548 79.8804 26.1412L71.45 26.729L75.4702 22.4598L76.2492 33.6321L66.5911 34.3054ZM83.7383 33.1099L75.9718 23.165L86.2028 22.4517L94.0512 32.3909L83.7383 33.1099ZM75.5444 23.5238L70.9421 19.4445L78.7586 18.8995C80.0955 18.8063 81.0567 18.4377 81.6424 17.7938C82.2553 17.1479 82.5256 16.3066 82.4534 15.2698C82.3811 14.2331 81.9966 13.4374 81.3 12.8829C80.6306 12.3264 79.6275 12.0948 78.2907 12.188L70.4742 12.7329L74.4659 8.05447L75.5444 23.5238Z" fill="white"/>
<path d="M97.0844 32.1794L95.0871 3.53251L103.026 2.97898L115.789 20.8824L111.615 21.1734L121.442 1.69501L129.382 1.14147L131.461 29.7827L122.662 30.3961L121.507 15.0144L122.899 14.9173L116.18 28.2573L111.924 28.554L103.091 16.2983L104.81 16.1785L105.883 31.566L97.0844 32.1794Z" fill="white"/>
</g>
<g filter="url(#filter6_d_109_442)">
<path d="M116.733 72.2547C116.746 72.3599 116.797 72.4153 116.851 72.4595C116.92 72.5138 116.965 72.5915 116.995 72.6773C117.021 72.7379 117.049 72.7873 117.082 72.8438C117.221 72.9048 117.311 73.0126 117.409 73.1163C117.538 73.2583 117.667 73.4003 117.792 73.5353C117.796 73.5423 117.807 73.5453 117.812 73.5524C117.939 73.7895 118.177 73.9249 118.36 74.1111C118.45 74.2007 118.549 74.2751 118.621 74.384C118.646 74.4264 118.687 74.4494 118.726 74.4836C118.853 74.5892 118.997 74.6755 119.124 74.7811C119.231 74.8696 119.366 74.9236 119.498 74.9887C119.54 75.0118 119.588 75.0308 119.623 75.0579C119.83 75.2208 120.063 75.331 120.3 75.4482C120.621 75.6115 120.954 75.7485 121.284 75.8784C121.595 76.0095 121.911 76.1 122.234 76.1865C122.624 76.2908 123.021 76.3911 123.417 76.4732C123.621 76.5157 123.82 76.5511 124.033 76.5603C124.168 76.5667 124.305 76.5913 124.433 76.6018C124.683 76.6269 124.926 76.6561 125.168 76.6671C125.41 76.6781 125.662 76.6739 125.907 76.6737C126.086 76.6739 126.272 76.67 126.451 76.6701C126.476 76.6649 126.499 76.6709 126.524 76.6657C127.076 76.6105 127.636 76.5512 128.185 76.5071C128.759 76.4579 129.328 76.3652 129.884 76.2513C130.327 76.1551 130.766 76.0336 131.21 75.9375C131.909 75.7784 132.585 75.5294 133.258 75.2915C133.648 75.1511 134.026 74.9895 134.415 74.8309C134.668 74.7316 134.91 74.611 135.155 74.4976C135.23 74.4639 135.324 74.4473 135.398 74.4135C135.48 74.3757 135.543 74.3208 135.62 74.2759C135.829 74.1647 136.045 74.0494 136.263 73.9522C136.512 73.8459 136.733 73.69 136.974 73.5696C137.392 73.3471 137.779 73.0863 138.18 72.8356C138.216 72.8152 138.247 72.7877 138.286 72.7744C138.653 72.6098 138.975 72.3675 139.306 72.1576C139.376 72.1168 139.428 72.0589 139.494 72.0111C139.554 71.9673 139.606 71.9276 139.666 71.8838C139.87 71.7473 140.078 71.6179 140.288 71.4773C140.419 71.3927 140.56 71.3111 140.67 71.1913C140.704 71.1527 140.765 71.1271 140.803 71.0955C140.901 71.0202 141.002 70.9338 141.099 70.8584C141.138 70.8269 141.176 70.7954 141.211 70.775C141.544 70.5357 141.843 70.2693 142.156 70.0129C142.4 69.8155 142.625 69.601 142.862 69.4077C143.075 69.2378 143.276 69.0649 143.462 68.8638C143.616 68.6901 143.789 68.5335 143.936 68.3639C144.128 68.1404 144.338 67.9341 144.549 67.7278C144.804 67.4676 145.055 67.2004 145.267 66.899C145.361 66.7691 145.475 66.6563 145.57 66.5264C145.699 66.3578 145.823 66.1823 145.959 66.0097C146.135 65.7762 146.323 65.5457 146.499 65.3122C146.675 65.0788 146.851 64.8453 147.023 64.6048C147.155 64.4251 147.267 64.2283 147.392 64.0528C147.517 63.8772 147.63 63.6986 147.736 63.506C147.877 63.2453 148.053 63.0119 148.241 62.7814C148.319 62.689 148.375 62.5906 148.419 62.471C148.556 62.1194 148.737 61.7979 148.941 61.4824C149.055 61.3038 149.135 61.1163 149.211 60.9217C149.293 60.7049 149.38 60.4951 149.514 60.3043C149.565 60.2282 149.607 60.138 149.638 60.0448C149.687 59.8847 149.773 59.7407 149.875 59.6067C149.956 59.5032 150.034 59.3925 150.118 59.2778C150.254 59.2185 150.378 59.1562 150.532 59.1616C150.613 59.1713 150.687 59.1376 150.754 59.0897C150.813 59.046 150.877 59.0092 150.933 58.9766C150.985 58.9844 151.03 58.9964 151.081 59.0042C151.082 59.0224 151.091 59.0365 151.081 59.0518C150.971 59.3031 150.858 59.5474 150.756 59.7947C150.692 59.9447 150.635 60.0906 150.536 60.2135C150.492 60.2673 150.467 60.3382 150.449 60.4051C150.422 60.5053 150.369 60.5926 150.315 60.6798C150.205 60.8472 150.116 61.0206 150.058 61.2141C150.005 61.4146 149.929 61.6091 149.86 61.7996C149.851 61.8331 149.842 61.8665 149.824 61.8858C149.671 62.0777 149.579 62.3097 149.404 62.4957C149.297 62.6044 149.221 62.7332 149.164 62.8791C149.113 63.0028 149.039 63.1205 148.988 63.2441C148.943 63.3455 148.876 63.4409 148.842 63.5452C148.786 63.7093 148.699 63.8534 148.594 63.9803C148.478 64.1225 148.358 64.2576 148.242 64.3997C148.14 64.5155 148.048 64.6343 147.987 64.7731C147.901 64.9829 147.75 65.1455 147.626 65.3392C147.495 65.5371 147.3 65.6877 147.165 65.8785C147.063 66.0125 146.962 66.1465 146.86 66.2805C146.843 66.2998 146.826 66.3191 146.82 66.3414C146.742 66.5653 146.579 66.7249 146.414 66.8956C146.325 66.985 146.258 67.0986 146.188 67.2052C146.087 67.3574 145.967 67.4924 145.821 67.6145C145.79 67.642 145.759 67.6694 145.735 67.6928C145.58 67.8665 145.426 68.0402 145.268 68.2068C145.183 68.3033 145.089 68.3857 144.995 68.4681C144.822 68.6246 144.645 68.7924 144.465 68.953C144.448 68.9723 144.431 68.9916 144.421 69.0069C144.203 69.283 143.939 69.5109 143.679 69.7457C143.506 69.9023 143.343 70.0619 143.162 70.2043C142.879 70.4333 142.601 70.6693 142.28 70.864C142.072 70.9934 141.864 71.1229 141.697 71.3229C141.66 71.3727 141.604 71.4053 141.547 71.4379C141.192 71.6712 140.84 71.8934 140.484 72.1267C140.411 72.1786 140.348 72.2336 140.279 72.2926C140.226 72.3323 140.185 72.3749 140.128 72.4076C139.558 72.7744 138.992 73.1483 138.418 73.5081C138.161 73.6661 137.887 73.7958 137.621 73.9397C137.6 73.952 137.579 73.9642 137.558 73.9764C137.349 74.0877 137.14 74.1989 136.92 74.3072C136.721 74.4032 136.522 74.4992 136.316 74.5993C136.171 74.6738 136.014 74.7454 135.865 74.8129C135.673 74.9048 135.481 74.9967 135.278 75.0857C135.046 75.191 134.815 75.2963 134.576 75.3874C134.19 75.5349 133.804 75.6824 133.418 75.8299C133.16 75.9221 132.901 76.0437 132.622 76.0825C132.597 76.0877 132.571 76.0928 132.557 76.101C132.21 76.2169 131.862 76.3329 131.514 76.4488C131.482 76.4581 131.454 76.4744 131.429 76.4796C131.197 76.5191 130.991 76.6192 130.762 76.6476C130.675 76.6602 130.594 76.698 130.511 76.7176C130.176 76.8072 129.849 76.8927 129.508 76.9388C129.501 76.9429 129.49 76.9399 129.483 76.944C129.252 77.0017 129.018 77.0524 128.778 77.0778C128.629 77.0977 128.486 77.1429 128.33 77.1669C127.998 77.2272 127.671 77.2651 127.333 77.3001C126.828 77.3561 126.319 77.3869 125.813 77.4247C125.795 77.4258 125.783 77.4228 125.765 77.4239C125.568 77.4906 125.372 77.444 125.17 77.4378C125.075 77.4363 124.98 77.4347 124.889 77.4402C124.507 77.4633 124.13 77.464 123.744 77.4143C123.206 77.348 122.669 77.2818 122.131 77.2156C122.102 77.2137 122.065 77.2159 122.039 77.2029C121.725 77.083 121.384 77.0634 121.072 76.9324C120.971 76.8873 120.857 76.8687 120.749 76.8459C120.597 76.8112 120.444 76.7583 120.298 76.7014C120.055 76.6065 119.806 76.5338 119.565 76.4095C119.418 76.3344 119.251 76.2896 119.104 76.2145C118.844 76.0913 118.587 75.957 118.345 75.8145C118.179 75.7223 118.032 75.5996 117.869 75.4961C117.763 75.4259 117.653 75.3667 117.547 75.2964C117.49 75.2633 117.44 75.2261 117.39 75.1889C117.091 74.9476 116.795 74.7133 116.516 74.4415C116.469 74.3932 116.411 74.3419 116.351 74.3017C116.24 74.2244 116.139 74.1318 116.063 74.0158C116.059 74.0088 116.055 74.0017 116.051 73.9947C115.858 73.8236 115.703 73.6211 115.531 73.4378C115.5 73.3995 115.465 73.3724 115.424 73.3493C115.393 73.3292 115.353 73.3243 115.319 73.3154C115.199 73.3848 115.089 73.4389 114.98 73.5112C114.9 73.5672 114.83 73.6262 114.749 73.6822C114.637 73.7657 114.518 73.8533 114.402 73.9297C114.213 74.058 114.008 74.1763 113.822 74.3117C113.703 74.3993 113.547 74.4233 113.437 74.5432C113.331 74.6519 113.192 74.7223 113.069 74.8028C112.939 74.8874 112.816 74.9679 112.682 75.0454C112.569 75.1107 112.459 75.1648 112.341 75.223C112.285 75.2556 112.228 75.2883 112.179 75.3168C111.971 75.4463 111.756 75.5798 111.552 75.7163C111.415 75.805 111.267 75.8906 111.117 75.9581C110.854 76.0726 110.602 76.2083 110.343 76.3299C110.158 76.4178 109.969 76.4986 109.773 76.5835C109.605 76.5863 109.458 76.6902 109.295 76.7183C109.263 76.7275 109.226 76.7297 109.205 76.7419C109.017 76.8409 108.822 76.944 108.635 77.043C108.592 77.0675 108.55 77.092 108.503 77.1094C108.285 77.1883 108.07 77.2561 107.848 77.328C107.762 77.3587 107.683 77.3854 107.597 77.4162C107.493 77.448 107.39 77.4981 107.282 77.5229C107.091 77.5673 106.916 77.6399 106.737 77.7055C106.573 77.7629 106.409 77.8385 106.229 77.8202C106.181 77.8194 106.135 77.8368 106.084 77.8471C105.89 77.9027 105.703 77.9542 105.509 78.0097C105.47 78.023 105.43 78.0364 105.394 78.0386C105.226 78.0414 105.088 78.1118 104.941 78.1682C104.795 78.2245 104.644 78.2737 104.481 78.3018C104.307 78.3269 104.138 78.3591 103.973 78.4165C103.783 78.4791 103.584 78.5094 103.389 78.5467C103.143 78.5944 102.903 78.6198 102.662 78.6746C101.997 78.8133 101.325 78.8721 100.65 78.9603C100.44 78.9876 100.227 79.026 100.011 79.0281C99.6711 79.0266 99.3496 79.0899 99.0137 79.0955C98.5604 79.0936 98.1101 79.0806 97.6498 79.0828C97.3027 79.0854 96.9676 79.0435 96.6236 79.035C96.576 79.0343 96.5285 79.0335 96.4839 79.0216C96.2681 78.9578 96.0455 78.964 95.8219 78.9519C95.664 78.9395 95.5061 78.9271 95.3441 78.9076C95.2743 78.9009 95.2044 78.8941 95.1275 78.8915C95.0101 78.8839 94.8897 78.8875 94.7772 78.8395C94.7508 78.8265 94.7174 78.8175 94.681 78.8197C94.4179 78.821 94.1617 78.7524 93.8994 78.7061C93.7627 78.6815 93.6249 78.6386 93.4752 78.6404C93.4094 78.6407 93.3385 78.6157 93.2646 78.6019C93.0276 78.5504 92.7865 78.4919 92.5514 78.4111C92.4917 78.3891 92.4289 78.3783 92.3661 78.3675C92.1514 78.322 91.9356 78.2583 91.7169 78.2057C91.4201 78.1323 91.1182 78.0336 90.8304 77.9267C90.6176 77.8519 90.3977 77.7811 90.1779 77.7103C89.9691 77.6425 89.7746 77.5666 89.5688 77.4876C89.5202 77.4687 89.4675 77.4426 89.4147 77.4166C89.3549 77.3946 89.2982 77.3615 89.2354 77.3507C88.9791 77.2821 88.7299 77.2094 88.5057 77.0659C88.4793 77.0529 88.4459 77.0439 88.4195 77.0309C88.1692 76.94 87.9119 76.8532 87.6575 76.7553C87.4588 76.6723 87.2602 76.5893 87.0645 76.4952C86.6995 76.3199 86.3316 76.1558 85.9696 75.9694C85.6076 75.7829 85.2586 75.5702 84.9108 75.3756C84.8083 75.3124 84.7029 75.2603 84.5933 75.2011C84.4909 75.1379 84.3884 75.0746 84.286 75.0114C84.1987 74.9582 84.1145 74.8939 84.0243 74.8518C83.7525 74.7075 83.515 74.5245 83.2674 74.3568C83.1608 74.2865 83.0614 74.2121 82.9549 74.1418C82.8442 74.0644 82.7336 73.9871 82.626 73.8986C82.4178 73.7175 82.1925 73.5557 81.9632 73.3869C81.6689 73.1708 81.4017 72.9203 81.1375 72.6585C81.0715 72.5931 81.0014 72.5206 80.9353 72.4552C80.6986 72.2247 80.4519 72.0094 80.2434 71.7626C80.0665 71.554 79.8442 71.3811 79.6944 71.1381C79.6018 70.9939 79.4838 70.8548 79.3599 70.7381C79.2664 70.6415 79.1971 70.5214 79.1107 70.4207C78.8362 70.1084 78.6353 69.7442 78.3921 69.4045C78.0176 68.8864 77.6613 68.3672 77.3222 67.8287C77.258 67.7339 77.1838 67.6544 77.1197 67.5596C76.9996 67.3842 76.8824 67.1976 76.7764 67.014C76.7194 66.9152 76.6734 66.8193 76.5952 66.7327C76.5403 66.6703 76.4954 66.5926 76.4506 66.5149C76.3976 66.4231 76.3557 66.3343 76.3027 66.2425C76.0177 65.814 75.7426 65.3703 75.4787 64.9295C75.3616 64.743 75.2616 64.5371 75.1515 64.3464C74.9518 64.0005 74.7914 63.6412 74.6199 63.2789C74.4403 62.9024 74.2707 62.5108 74.0981 62.1303C73.9174 61.7357 73.7731 61.3388 73.6247 60.935C73.5152 60.631 73.4016 60.32 73.2991 60.012C73.2776 59.9585 73.2561 59.905 73.2458 59.8545C73.204 59.5209 73.058 59.2192 72.9585 58.9C72.9134 58.7566 72.8824 58.605 72.8485 58.4646C72.8381 58.4141 72.839 58.3665 72.8256 58.3271C72.7379 58.1425 72.7077 57.9434 72.6634 57.7524C72.618 57.5432 72.5473 57.3393 72.5131 57.1331C72.4633 56.8511 72.4207 56.5651 72.3709 56.2831C72.3451 56.1568 72.3122 56.0346 72.2905 55.9153C72.222 55.503 72.1565 55.0795 72.0951 54.6631C72.0774 54.5509 72.0709 54.4417 72.0643 54.3325C72.0385 53.9614 72.0127 53.5903 71.9828 53.2122C71.9613 52.9139 71.9551 52.6256 71.9518 52.3262C71.9526 52.0339 71.9241 51.7397 71.9137 51.4444C71.9086 51.1744 71.9145 50.9074 71.9164 50.6332C71.9197 50.4431 71.9118 50.2499 71.9151 50.0597C71.93 49.7593 71.9409 49.4517 71.9558 49.1512C71.9683 48.9934 71.9737 48.8396 71.9721 48.69C71.902 48.6175 71.818 48.6189 71.737 48.6091C71.5275 48.5889 71.3291 48.5716 71.1304 48.4886C71.0707 48.4667 71.0049 48.467 70.9391 48.4673C70.5921 48.4699 70.2559 48.4098 69.9257 48.3274C69.7404 48.2838 69.552 48.2513 69.3577 48.2411C69.1523 48.228 68.9517 48.1743 68.7482 48.1318C68.6408 48.109 68.5294 48.0792 68.422 48.0565C68.3816 48.0516 68.3411 48.0467 68.3046 48.0489C68.1701 48.0607 68.0546 48.0238 67.931 47.9728C67.785 47.9158 67.629 47.8741 67.4771 47.8394C67.1763 47.7589 66.8885 47.6521 66.5966 47.5381C66.477 47.4942 66.3987 47.4076 66.3447 47.2976C66.311 47.2229 66.3107 47.1572 66.3569 47.074C66.5183 46.962 66.6705 46.8176 66.8694 46.7216C67.0754 46.6215 67.2306 46.466 67.3735 46.2893C67.4279 46.2203 67.4863 46.1583 67.56 46.1064C67.6195 46.0626 67.6679 46.0159 67.7122 45.962C67.841 45.7935 68.0084 45.6592 68.1747 45.5067C68.394 45.446 68.5785 45.2924 68.7682 45.164C68.9367 45.0479 69.097 44.9177 69.2574 44.7875C69.3935 44.6806 69.5215 44.5596 69.6577 44.4528C69.8775 44.2788 70.0506 44.0565 70.2512 43.8654C70.4134 43.7058 70.5716 43.5392 70.7684 43.4067C70.9056 43.3181 71.0377 43.2042 71.1667 43.1014C71.2475 43.0454 71.3252 43.0005 71.4181 42.9657C71.5111 42.9308 71.5948 42.8637 71.6866 42.8107C71.7603 42.7587 71.8228 42.7038 71.8924 42.6448C72.0839 42.4871 72.2755 42.3294 72.4601 42.1758C72.5821 42.0771 72.696 41.9643 72.8098 41.8515C72.9337 41.7235 73.0272 41.5754 73.0832 41.4112C73.0892 41.389 73.1063 41.3697 73.1193 41.3433C73.1517 41.334 73.1729 41.3218 73.2093 41.3196C73.2528 41.3133 73.3044 41.3212 73.352 41.322C73.6515 41.3185 73.9572 41.3585 74.2586 41.3257C74.3637 41.3121 74.4811 41.3196 74.5896 41.3606C74.6605 41.3855 74.7475 41.373 74.8426 41.3746C74.9532 41.4519 75.072 41.5434 75.2019 41.6379C75.1905 41.8139 75.1285 42.0003 75.1888 42.1538C75.2701 42.2292 75.3321 42.2876 75.391 42.3571C75.5862 42.5646 75.7329 42.8187 75.8968 43.0536C75.9528 43.1343 75.9976 43.212 76.0253 43.3089C76.0357 43.3595 76.0713 43.4048 76.0998 43.4542C76.1966 43.6055 76.2974 43.7638 76.3941 43.9151C76.4308 43.9786 76.4605 44.0462 76.5143 44.0905C76.623 44.1972 76.6711 44.3295 76.7262 44.4576C76.7426 44.4859 76.7447 44.5223 76.761 44.5505C76.8619 44.7089 76.9092 44.8887 76.9665 45.0533C77.0382 45.2754 77.1241 45.4895 77.1847 45.7087C77.2576 45.9491 77.3163 46.1976 77.375 46.4461C77.413 46.5936 77.44 46.7381 77.4709 46.8897C77.5049 47.0301 77.5207 47.1717 77.5112 47.3184C77.5734 47.4425 77.6063 47.5647 77.5927 47.7044C77.5832 47.8511 77.6071 48.0067 77.6593 48.1461C77.734 48.3571 77.7512 48.5826 77.7278 48.8032C77.718 48.8842 77.7082 48.9651 77.6944 49.039C77.6259 49.1162 77.5278 49.1258 77.4337 49.1424C77.2639 49.1746 77.087 49.2108 76.9201 49.2318C76.6157 49.2758 76.3021 49.2874 75.9983 49.218C75.6945 49.1487 75.3828 49.1309 75.0811 49.098C74.9414 49.0845 74.7917 49.0862 74.6639 49.0281C74.6416 49.0222 74.6194 49.0162 74.59 49.0143C74.4403 49.016 74.3066 48.9803 74.1658 48.9486C74.0696 48.9288 73.9815 48.9232 73.8997 48.961C73.8696 49.0066 73.8647 49.0471 73.8851 49.0824C73.9299 49.1601 73.9242 49.2481 73.9185 49.3361C73.9027 49.4394 73.894 49.5385 73.8834 49.667C73.8573 49.7198 73.8253 49.7948 73.7791 49.8779C73.7796 50.0094 73.7883 50.155 73.7859 50.2976C73.7824 50.4221 73.7829 50.5536 73.7682 50.675C73.737 50.9472 73.7604 51.2162 73.7655 51.4862C73.7672 51.6359 73.7981 51.7875 73.7816 51.9383C73.7571 52.1407 73.7832 52.3327 73.777 52.534C73.7745 52.6767 73.7721 52.8193 73.806 52.9597C73.8101 52.9668 73.8071 52.9779 73.8112 52.985C73.7889 53.2238 73.8324 53.4623 73.8354 53.6959C73.8379 53.7981 73.8403 53.9002 73.8468 54.0094C73.8585 54.1439 73.8884 54.2773 73.9931 54.3769C73.9844 54.4761 73.9939 54.5741 73.9811 54.6662C73.9653 54.7695 73.9789 54.8746 74.0319 54.9664C74.0727 55.037 74.0923 55.1199 74.0895 55.1967C74.0844 55.4163 74.1298 55.6254 74.164 55.8316C74.1703 55.8751 74.1795 55.9074 74.1746 55.9479C74.148 56.1139 74.186 56.2614 74.2352 56.4118C74.263 56.5088 74.2836 56.6098 74.279 56.7161C74.2624 56.8668 74.3116 57.0173 74.382 57.1556C74.4605 57.3079 74.4885 57.4706 74.5236 57.6293C74.535 57.698 74.5535 57.7627 74.5761 57.8344C74.6416 58.0131 74.6706 58.194 74.6715 58.3912C74.6723 58.5884 74.7024 58.7876 74.8044 58.9641C74.8818 59.0982 74.9492 59.2476 75.0055 59.394C75.0536 59.5263 75.0723 59.6567 75.0335 59.8015C75.1142 59.9903 75.2031 60.1931 75.2767 60.386C75.3115 60.4789 75.3362 60.587 75.364 60.6839C75.4042 60.8678 75.4615 61.0324 75.5553 61.1948C75.6572 61.3713 75.7632 61.5549 75.7651 61.7704C75.7654 61.8361 75.792 61.9149 75.8317 61.9673C75.963 62.1457 76.0266 62.3538 76.1002 62.5466C76.1431 62.6536 76.1831 62.7718 76.219 62.8828C76.2323 62.9222 76.2456 62.9616 76.2619 62.9898C76.3568 63.1705 76.4627 63.354 76.5576 63.5346C76.6239 63.6658 76.6861 63.7899 76.7413 63.9181C76.8087 64.0675 76.9014 64.2117 76.9829 64.3529C77.1419 64.6283 77.2726 64.92 77.4458 65.1872C77.4661 65.2225 77.4865 65.2578 77.5069 65.2931C77.5936 65.4596 77.6844 65.6331 77.8135 65.7751C77.8877 65.8547 77.9377 65.9576 78.0018 66.0524C78.067 66.1654 78.1151 66.2976 78.2157 66.3902C78.2309 66.4002 78.232 66.4184 78.2401 66.4326C78.3771 66.7677 78.6201 67.0417 78.7924 67.3564C78.825 67.4129 78.8647 67.4653 78.9074 67.5066C78.9663 67.5761 79.0212 67.6386 79.0519 67.7244C79.0652 67.7638 79.0927 67.795 79.1131 67.8303C79.2759 68.047 79.4457 68.2596 79.5944 68.4845C79.6707 68.6004 79.7229 68.7398 79.7903 68.8891C79.9346 69.0412 80.0953 69.2215 80.2064 69.4303C80.2676 69.5362 80.3611 69.6329 80.4505 69.7225C80.5206 69.795 80.5725 69.8686 80.6073 69.9615C80.6287 70.015 80.6573 70.0644 80.6888 70.1027C80.9399 70.3908 81.191 70.6788 81.4139 70.9833C81.4454 71.0215 81.4799 71.0487 81.5185 71.0829C81.6699 71.2308 81.8283 71.3747 81.9525 71.5572C82.0085 71.6379 82.0746 71.7033 82.1406 71.7687C82.2838 71.9026 82.4311 72.0435 82.5502 72.2007C82.6091 72.2702 82.6863 72.3386 82.7523 72.4041C82.923 72.5691 83.0937 72.7342 83.2714 72.8952C83.3872 72.9978 83.509 73.0781 83.6318 73.1767C83.7049 73.238 83.781 73.2882 83.8541 73.3496C84.1588 73.6162 84.4876 73.8594 84.8295 74.0762C85.1561 74.2831 85.4869 74.4969 85.8176 74.7108C86.2163 74.9608 86.621 75.1884 87.0468 75.4039C87.2922 75.5352 87.5477 75.6513 87.789 75.7756C88.0942 75.9289 88.4095 76.067 88.7247 76.2051C88.8484 76.2561 88.972 76.3071 89.1027 76.354C89.656 76.5617 90.2023 76.7736 90.7556 76.9813C91.1893 77.1452 91.6261 77.2978 92.0587 77.4434C92.2117 77.4963 92.3707 77.5269 92.5196 77.5728C93.2167 77.8011 93.9328 77.9807 94.6457 78.1058C95.2552 78.2152 95.8719 78.3205 96.4852 78.3712C96.7717 78.3941 97.0581 78.417 97.3405 78.4329C97.6046 78.4498 97.8617 78.4708 98.1289 78.4767C98.4324 78.4803 98.736 78.4839 99.0355 78.4804C99.4888 78.4823 99.9399 78.4478 100.394 78.4022C100.971 78.3418 101.553 78.2884 102.119 78.1593C102.501 78.0705 102.889 78.007 103.268 77.9293C103.849 77.8102 104.433 77.68 104.999 77.4851C105.071 77.4626 105.14 77.4511 105.204 77.4326C105.244 77.4192 105.284 77.4241 105.319 77.4037C105.683 77.2503 106.058 77.1655 106.427 77.0374C106.907 76.8732 107.39 76.698 107.864 76.5086C108.057 76.4349 108.242 76.347 108.431 76.2662C108.52 76.2243 108.61 76.2006 108.699 76.1587C108.792 76.1239 108.874 76.0861 108.962 76.0442C108.998 76.0238 109.033 76.0034 109.072 75.9901C109.281 75.9264 109.472 75.8344 109.656 75.7283C109.769 75.6631 109.879 75.609 109.992 75.5437C110.07 75.4988 110.145 75.4651 110.223 75.4202C110.293 75.3794 110.372 75.3527 110.432 75.309C110.638 75.1613 110.87 75.056 111.109 74.9649C111.177 74.9352 111.237 74.9097 111.301 74.8729C111.509 74.7435 111.725 74.6282 111.957 74.5411C112.029 74.5185 112.103 74.4666 112.154 74.4087C112.219 74.3426 112.296 74.2795 112.381 74.2306C112.61 74.0889 112.843 73.9543 113.068 73.8055C113.265 73.6731 113.454 73.5266 113.63 73.3588C113.72 73.2694 113.829 73.1971 113.93 73.1288C114.148 72.9841 114.37 72.8465 114.595 72.6978C114.676 72.6418 114.75 72.5898 114.795 72.4885C114.791 72.3681 114.716 72.2704 114.631 72.1879C114.53 72.0953 114.489 71.9589 114.396 71.8623C114.364 71.824 114.357 71.7623 114.335 71.7088C114.302 71.5866 114.263 71.4684 114.169 71.3718C114.095 71.2922 114.074 71.1912 114.054 71.0901C114.014 70.9244 113.94 70.7791 113.822 70.6401C113.807 70.451 113.746 70.2794 113.641 70.114C113.571 69.994 113.512 69.8587 113.485 69.7142C113.473 69.6273 113.435 69.5455 113.383 69.4719C113.323 69.3842 113.281 69.2954 113.268 69.1903C113.249 69.0599 113.202 68.9458 113.144 68.8288C113.111 68.7723 113.085 68.7117 113.071 68.6541C113.051 68.5713 113.071 68.4751 113.034 68.3934C113.003 68.3075 112.969 68.2328 112.957 68.1459C112.928 68.0307 112.874 67.9208 112.845 67.8056C112.811 67.6652 112.77 67.5288 112.689 67.4058C112.699 67.3248 112.702 67.2479 112.715 67.1558C112.641 66.963 112.574 66.7661 112.504 66.5621C112.486 66.5157 112.48 66.4722 112.481 66.4247C112.481 66.2456 112.442 66.0799 112.352 65.9246C112.287 65.8116 112.28 65.6842 112.261 65.5538C112.244 65.4598 112.228 65.3658 112.218 65.2678C112.211 65.2061 112.199 65.1374 112.214 65.0817C112.234 64.9855 112.218 64.8915 112.212 64.8005C112.2 64.7136 112.194 64.6226 112.182 64.5356C112.16 64.4164 112.142 64.3042 112.11 64.1344C112.112 64.1051 112.122 64.0241 112.13 63.9725C112.094 63.8614 112.07 63.7715 112.043 63.6745C112.081 63.464 112.015 63.2671 111.994 63.0527C112.009 62.997 112.031 62.9372 112.05 62.8886C112.031 62.74 112.011 62.5914 111.994 62.4317C111.947 62.3833 111.932 62.3076 111.93 62.2236C111.928 62.0557 111.925 61.8879 111.915 61.724C111.91 61.5855 111.939 61.4559 112.001 61.3352C111.948 61.1777 111.935 61.025 111.926 60.8612C111.917 60.6499 111.915 60.4344 111.913 60.219C111.91 60.0511 111.959 59.8911 112.044 59.7288C112.03 59.6712 112.023 59.6096 112.001 59.5561C111.962 59.4561 111.953 59.358 111.976 59.2507C111.992 59.1657 112.016 59.0765 112.033 58.9915C112.076 58.788 112.119 58.5845 112.066 58.3794C112.056 58.3289 112.067 58.2661 112.075 58.2145C112.094 58.0526 112.118 57.8977 112.13 57.7399C112.153 57.4535 112.195 57.1661 112.307 56.9036C112.313 56.8813 112.326 56.8549 112.325 56.8367C112.332 56.6536 112.413 56.4843 112.439 56.3001C112.45 56.2373 112.461 56.1746 112.494 56.1178C112.546 56.0123 112.562 55.9091 112.592 55.7977C112.619 55.6974 112.645 55.5972 112.699 55.5099C112.751 55.4045 112.799 55.292 112.825 55.1735C112.875 54.9184 113.001 54.6953 113.119 54.4762C113.135 54.4387 113.167 54.4113 113.172 54.3708C113.22 54.2107 113.304 54.0778 113.426 53.9792C113.457 53.9517 113.473 53.9142 113.493 53.8838C113.612 53.6647 113.723 53.4498 113.815 53.2177C113.9 52.9897 114.073 52.8149 114.257 52.6613C114.341 52.5942 114.436 52.53 114.535 52.4729C114.627 52.4199 114.703 52.3568 114.764 52.2655C114.85 52.1214 114.979 52.0186 115.119 51.9189C115.323 51.7824 115.542 51.6559 115.771 51.58C115.99 51.501 116.213 51.4474 116.441 51.4008C116.784 51.3435 117.132 51.2933 117.475 51.2179C117.601 51.192 117.726 51.1954 117.851 51.2171C118.202 51.269 118.521 51.4142 118.825 51.5493C118.941 51.6519 118.96 51.7823 118.974 51.9056C119.157 52.0919 119.328 52.1912 119.595 52.2627C119.786 52.3974 119.945 52.5595 120.095 52.7368C120.158 52.8133 120.225 52.8969 120.278 52.9887C120.323 53.0664 120.371 53.133 120.454 53.1791C120.552 53.2353 120.612 53.323 120.655 53.43C120.734 53.6481 120.848 53.8458 121.043 53.9875C121.173 54.0819 121.289 54.1846 121.399 54.3277C121.422 54.3994 121.449 54.4781 121.475 54.5569C121.562 54.6576 121.644 54.7513 121.758 54.8175C121.826 54.8536 121.865 54.906 121.902 54.9696C121.971 55.0896 122.051 55.1944 122.092 55.3308C122.097 55.356 122.102 55.3813 122.121 55.3984C122.274 55.5646 122.291 55.79 122.376 55.9858C122.38 55.9929 122.384 56 122.388 56.007C122.402 56.1779 122.494 56.3221 122.583 56.4592C122.591 56.4734 122.592 56.4916 122.611 56.5562C122.608 56.5674 122.59 56.6342 122.569 56.7122C122.565 56.7051 122.573 56.7192 122.577 56.7263C122.614 56.7898 122.646 56.8463 122.676 56.914C122.71 56.9887 122.718 57.0685 122.759 57.1391C122.828 57.2592 122.843 57.3825 122.788 57.4991C122.803 57.5749 122.822 57.6395 122.844 57.7112C122.895 57.7666 122.942 57.8149 122.997 57.8774C123 57.932 123.007 57.9937 123.008 58.0594C123.001 58.1292 122.998 58.2061 122.987 58.2689C122.962 58.4055 122.963 58.537 123.055 58.663C122.972 59.0589 123.09 59.4427 123.154 59.7822C123.112 60.0515 123.07 60.2732 123.044 60.5049C123.033 60.5677 123.045 60.6364 123.059 60.694C123.096 60.8233 123.092 60.9477 123.048 61.0673C123.001 61.198 122.995 61.3336 123.036 61.4699C123.081 61.6133 123.056 61.75 122.969 61.8758C122.891 61.9864 122.855 62.1201 122.827 62.2497C122.813 62.3236 122.806 62.3935 122.829 62.4652C122.875 62.6268 122.847 62.7746 122.798 62.9346C122.733 63.1322 122.664 63.3227 122.644 63.5321C122.635 63.6313 122.6 63.7174 122.539 63.7905C122.436 63.9063 122.378 64.0341 122.369 64.199C122.362 64.3821 122.274 64.5555 122.195 64.7136C122.105 64.9163 122.004 65.1161 121.94 65.3318C121.892 65.5101 121.844 65.6883 121.717 65.8275C121.673 65.8813 121.648 65.9522 121.619 66.0161C121.541 66.1742 121.458 66.3253 121.407 66.4965C121.358 66.6566 121.274 66.7895 121.179 66.9012C121.127 67.1381 120.992 67.3289 120.864 67.5156C120.757 67.6719 120.664 67.8382 120.526 67.9744C120.495 68.0019 120.469 68.0546 120.453 68.0921C120.398 68.2744 120.267 68.4065 120.151 68.5487C120.124 68.5832 120.1 68.6066 120.069 68.634C119.812 68.8578 119.601 69.1298 119.406 69.412C119.386 69.4424 119.359 69.4769 119.343 69.5144C119.293 69.6563 119.2 69.7568 119.12 69.8786C118.945 70.1303 118.7 70.3095 118.478 70.5128C118.377 70.5993 118.284 70.6998 118.188 70.7933C118.101 70.8716 118.007 70.954 117.925 71.0394C117.876 71.0861 117.821 71.137 117.776 71.1908C117.6 71.4243 117.369 71.5953 117.166 71.7975C117.045 71.9144 116.908 72.0031 116.771 72.1099C116.791 72.1928 116.76 72.2202 116.733 72.2547ZM116.175 71.3713C116.268 71.3841 116.321 71.3626 116.362 71.3199C116.441 71.2275 116.508 71.1321 116.587 71.0397C116.658 70.9513 116.726 70.8559 116.814 70.7958C117.024 70.6552 117.201 70.4875 117.377 70.3198C117.484 70.211 117.599 70.1164 117.706 70.0077C117.82 69.8949 117.922 69.7791 118.028 69.6522C118.164 69.4796 118.326 69.32 118.432 69.1273C118.481 69.033 118.567 68.9547 118.639 68.8664C118.676 68.8166 118.74 68.7799 118.766 68.7272C118.845 68.5872 118.948 68.4715 119.042 68.3415C119.144 68.2075 119.235 68.0706 119.332 67.9295C119.363 67.902 119.419 67.917 119.416 67.8624C119.421 67.8219 119.426 67.7814 119.446 67.751C119.556 67.5835 119.656 67.4131 119.771 67.2528C119.912 67.0579 120.032 66.8571 120.128 66.6321C120.157 66.5682 120.186 66.5043 120.222 66.4364C120.315 66.2701 120.407 66.1038 120.496 65.9304C120.694 65.5238 120.84 65.0913 121.012 64.6717C121.072 64.5146 121.11 64.3516 121.159 64.1916C121.218 64.0163 121.292 63.8511 121.274 63.6732C121.347 63.5373 121.409 63.4166 121.464 63.3C121.542 63.1419 121.576 62.9718 121.569 62.7968C121.569 62.7311 121.584 62.6754 121.595 62.6126C121.617 62.4871 121.638 62.3616 121.66 62.2361C121.677 62.151 121.683 62.063 121.699 61.9779C121.729 61.8008 121.766 61.6196 121.791 61.4354C121.819 61.1743 121.837 60.9102 121.858 60.6532C121.862 60.5945 121.865 60.5358 121.855 60.4853C121.812 60.3125 121.834 60.1395 121.846 59.9634C121.853 59.8936 121.855 59.8167 121.844 59.748C121.804 59.3851 121.8 59.0199 121.731 58.6551C121.653 58.2105 121.608 57.7565 121.48 57.3222C121.411 57.0889 121.363 56.8433 121.237 56.6244C121.168 56.5044 121.141 56.3599 121.107 56.2195C121.098 56.1871 121.117 56.1385 121.116 56.1203C121.073 56.079 121.02 56.053 120.992 56.0036C120.932 55.9158 120.897 55.823 120.844 55.7312C120.815 55.6817 120.801 55.6242 120.762 55.59C120.618 55.4379 120.516 55.2614 120.403 55.0819C120.314 54.9448 120.223 54.8187 120.117 54.7009C120 54.5801 119.905 54.447 119.795 54.3221C119.641 54.1378 119.488 53.9534 119.331 53.7802C119.225 53.6623 119.106 53.5526 118.993 53.4389C118.619 53.0523 118.584 53.0251 118.088 52.6714C118.008 52.6142 117.927 52.5387 117.864 52.4621C117.805 52.3926 117.743 52.3342 117.663 52.2952C117.562 52.2501 117.467 52.1828 117.365 52.1378C117.004 51.9696 117.004 51.9696 116.637 52.0027C116.619 52.0038 116.605 52.0119 116.584 52.0242C116.53 52.159 116.412 52.2647 116.281 52.3311C116.224 52.3637 116.183 52.4064 116.134 52.4531C115.986 52.6046 115.866 52.7872 115.706 52.9356C115.595 53.0373 115.485 53.139 115.469 53.308C115.466 53.3191 115.456 53.3343 115.446 53.3495C115.364 53.5006 115.27 53.6487 115.192 53.8069C115.146 53.8901 115.104 53.9803 115.08 54.0694C115.032 54.2477 114.954 54.4058 114.831 54.552C114.752 54.6445 114.7 54.7499 114.644 54.8483C114.645 54.9322 114.649 55.005 114.65 55.0708C114.598 55.1762 114.548 55.2705 114.541 55.3879C114.539 55.4172 114.53 55.4507 114.51 55.4811C114.449 55.5724 114.434 55.6757 114.414 55.7718C114.373 55.946 114.346 56.112 114.295 56.2832C114.249 56.4321 114.218 56.5911 114.217 56.7519C114.217 56.8176 114.195 56.8774 114.184 56.9402C114.148 57.1396 114.087 57.3442 114.085 57.5526C114.085 57.6659 114.07 57.7873 114.022 57.8998C113.996 57.9525 113.989 58.0223 113.989 58.0881C113.962 58.4331 113.929 58.7822 113.843 59.1235C113.84 59.1346 113.834 59.1569 113.835 59.1751C113.863 59.2721 113.832 59.3653 113.83 59.4604C113.826 59.5666 113.817 59.6658 113.83 59.7709C113.848 59.8831 113.855 59.9923 113.836 60.1067C113.806 60.2838 113.82 60.4547 113.834 60.6256C113.852 60.8692 113.827 61.1192 113.882 61.3607C113.888 61.4041 113.88 61.4558 113.879 61.5033C113.854 61.819 113.863 62.1436 113.91 62.4549C113.925 62.5783 113.925 62.6916 113.917 62.8089C113.904 62.9668 113.91 63.1235 113.952 63.2781C113.976 63.368 113.985 63.4661 113.984 63.5611C113.983 63.6744 113.997 63.7795 114.033 63.8906C114.06 63.9876 114.074 64.0927 114.088 64.1979C114.095 64.3253 114.092 64.4497 114.092 64.5812C114.1 64.7086 114.107 64.836 114.159 64.9571C114.176 65.0036 114.21 65.0307 114.235 65.0731C114.231 65.1318 114.223 65.1834 114.219 65.2421C114.249 65.3097 114.279 65.3773 114.291 65.3985C114.31 65.7737 114.322 66.1054 114.493 66.4019C114.502 66.4818 114.495 66.5516 114.506 66.6203C114.527 66.7214 114.566 66.8214 114.587 66.9224C114.611 67.0305 114.611 67.1438 114.643 67.2478C114.684 67.3842 114.75 67.5153 114.798 67.6476C114.833 67.7405 114.872 67.8405 114.885 67.9456C114.919 68.265 115.068 68.5556 115.141 68.8618C115.304 69.21 115.421 69.5755 115.627 69.8992C115.647 69.9345 115.661 69.9739 115.674 70.0133C115.615 70.1886 115.664 70.339 115.782 70.4781C115.806 70.5022 115.815 70.5346 115.838 70.5587C115.891 70.6505 115.933 70.7393 115.947 70.8445C115.971 71.0001 116.059 71.1372 116.134 71.2825C116.087 71.3 116.144 71.3331 116.175 71.3713ZM72.0998 48.0137C72.1148 47.958 72.1327 47.8911 72.1476 47.8354C72.1914 47.6501 72.2463 47.4678 72.2789 47.2795C72.3036 47.1428 72.3354 47.0021 72.3156 46.8535C72.2938 46.7343 72.3126 46.6199 72.3566 46.5003C72.3887 46.4253 72.4014 46.3332 72.4254 46.2441C72.518 45.8988 72.5368 45.5396 72.6406 45.1972C72.6495 45.1638 72.6514 45.1345 72.6533 45.1051C72.6691 45.0019 72.6737 44.8957 72.7006 44.7954C72.7503 44.5878 72.8001 44.3802 72.8093 44.1678C72.812 44.0909 72.833 44.0129 72.8398 43.9431C72.7626 43.8747 72.6878 43.9084 72.6272 43.934C72.496 44.0003 72.3617 44.0778 72.2386 44.1583C72.0419 44.2908 71.8848 44.4756 71.6728 44.598C71.6516 44.6102 71.6345 44.6295 71.6244 44.6447C71.4823 44.7739 71.3554 44.913 71.2051 45.0281C71.0619 45.139 70.9391 45.2852 70.7855 45.3456C70.714 45.434 70.6638 45.51 70.5983 45.5761C70.4159 45.7661 70.2681 45.9833 70.0624 46.1491C70.0553 46.1532 70.0523 46.1643 70.0453 46.1684C69.9164 46.3369 69.7713 46.4772 69.611 46.6074C69.3841 46.7855 69.1805 46.9878 68.9332 47.1305C68.8555 47.1754 68.793 47.2303 68.7234 47.2893C68.6851 47.3209 68.6661 47.3695 68.6946 47.4189C68.7313 47.4825 68.8011 47.4892 68.8639 47.5001C69.2751 47.5922 69.6863 47.6843 70.1005 47.7653C70.2301 47.794 70.3687 47.7893 70.4923 47.8403C70.5146 47.8462 70.5399 47.8411 70.5622 47.847C70.8426 47.8922 71.1261 47.9263 71.4106 47.9785C71.6212 48.017 71.8397 48.0038 72.0523 48.0129C72.0574 48.0382 72.0716 48.03 72.0998 48.0137ZM73.9658 48.2921C74.0549 48.3159 74.1147 48.3379 74.1704 48.3528C74.3769 48.3842 74.5835 48.4156 74.7789 48.444C74.9338 48.4675 75.0887 48.491 75.2507 48.5105C75.3539 48.5262 75.4602 48.5308 75.5501 48.5071C75.6803 48.4225 75.6838 48.2981 75.6439 48.1799C75.5588 47.9184 75.5466 47.6524 75.4868 47.3857C75.4281 47.1371 75.4311 46.8812 75.3289 46.6389C75.2615 46.2448 75.1476 45.8681 75.0226 45.4883C74.9682 45.3126 74.8997 45.145 74.8383 44.9734C74.8128 44.9128 74.7861 44.834 74.6899 44.8143C74.6163 44.8662 74.5508 44.9323 74.531 45.0284C74.5032 45.1762 74.4685 45.3281 74.4407 45.4759C74.4299 45.5387 74.4261 45.5974 74.4041 45.6572C74.3541 45.799 74.3152 45.9438 74.328 46.0965C74.3301 46.1329 74.3182 46.1775 74.3133 46.2179C74.2657 46.4619 74.2141 46.6988 74.1625 46.9358C74.1576 46.9763 74.1527 47.0167 74.1478 47.0572C74.1141 47.2273 74.0845 47.4045 74.0508 47.5745C74.035 47.6778 74.0081 47.778 73.9924 47.8813C73.9859 48.0169 73.9823 48.1413 73.9658 48.2921Z" fill="url(#paint1_linear_109_442)" shape-rendering="crispEdges"/>
</g>
<g filter="url(#filter7_d_109_442)">
<circle cx="177.462" cy="18.4621" r="7" transform="rotate(3.91934 177.462 18.4621)" fill="#7C2BDA"/>
</g>
<g filter="url(#filter8_d_109_442)">
<rect x="189.924" y="14.4622" width="39" height="8" rx="4" fill="#7C2BDA"/>
</g>
<g filter="url(#filter9_d_109_442)">
<circle cx="177.462" cy="101.462" r="7" transform="rotate(3.91934 177.462 101.462)" fill="#FF7A00"/>
</g>
<g filter="url(#filter10_d_109_442)">
<rect x="189.924" y="97.4623" width="39" height="8" rx="4" fill="#FF7A00"/>
</g>
<rect x="2" y="84.0365" width="8.41463" height="33.6585" rx="1.40244" fill="url(#paint2_linear_109_442)"/>
<rect x="28.6464" y="73.5183" width="8.41463" height="44.1768" rx="1.40244" fill="url(#paint3_linear_109_442)"/>
<rect x="55.2927" y="63" width="8.41463" height="54.6951" rx="1.40244" fill="url(#paint4_linear_109_442)"/>
<rect x="81.939" y="81.9329" width="8.41463" height="35.7622" rx="1.40244" fill="url(#paint5_linear_109_442)"/>
<rect x="108.585" y="79.8292" width="8.41463" height="37.8659" rx="1.40244" fill="url(#paint6_linear_109_442)"/>
<defs>
<filter id="filter0_d_109_442" x="145" y="0" width="116" height="40" filterUnits="userSpaceOnUse" color-interpolation-filters="sRGB">
<feFlood flood-opacity="0" result="BackgroundImageFix"/>
<feColorMatrix in="SourceAlpha" type="matrix" values="0 0 0 0 0 0 0 0 0 0 0 0 0 0 0 0 0 0 127 0" result="hardAlpha"/>
<feMorphology radius="2" operator="erode" in="SourceAlpha" result="effect1_dropShadow_109_442"/>
<feOffset dy="4"/>
<feGaussianBlur stdDeviation="2"/>
<feComposite in2="hardAlpha" operator="out"/>
<feColorMatrix type="matrix" values="0 0 0 0 0 0 0 0 0 0 0 0 0 0 0 0 0 0 0.05 0"/>
<feBlend mode="normal" in2="BackgroundImageFix" result="effect1_dropShadow_109_442"/>
<feBlend mode="normal" in="SourceGraphic" in2="effect1_dropShadow_109_442" result="shape"/>
</filter>
<filter id="filter1_d_109_442" x="145" y="84" width="116" height="40" filterUnits="userSpaceOnUse" color-interpolation-filters="sRGB">
<feFlood flood-opacity="0" result="BackgroundImageFix"/>
<feColorMatrix in="SourceAlpha" type="matrix" values="0 0 0 0 0 0 0 0 0 0 0 0 0 0 0 0 0 0 127 0" result="hardAlpha"/>
<feMorphology radius="2" operator="erode" in="SourceAlpha" result="effect1_dropShadow_109_442"/>
<feOffset dy="4"/>
<feGaussianBlur stdDeviation="2"/>
<feComposite in2="hardAlpha" operator="out"/>
<feColorMatrix type="matrix" values="0 0 0 0 0 0 0 0 0 0 0 0 0 0 0 0 0 0 0.05 0"/>
<feBlend mode="normal" in2="BackgroundImageFix" result="effect1_dropShadow_109_442"/>
<feBlend mode="normal" in="SourceGraphic" in2="effect1_dropShadow_109_442" result="shape"/>
</filter>
<filter id="filter2_d_109_442" x="184.779" y="18.7795" width="119.172" height="62.1913" filterUnits="userSpaceOnUse" color-interpolation-filters="sRGB">
<feFlood flood-opacity="0" result="BackgroundImageFix"/>
<feColorMatrix in="SourceAlpha" type="matrix" values="0 0 0 0 0 0 0 0 0 0 0 0 0 0 0 0 0 0 127 0" result="hardAlpha"/>
<feMorphology radius="2" operator="erode" in="SourceAlpha" result="effect1_dropShadow_109_442"/>
<feOffset dy="4"/>
<feGaussianBlur stdDeviation="2"/>
<feComposite in2="hardAlpha" operator="out"/>
<feColorMatrix type="matrix" values="0 0 0 0 0 0 0 0 0 0 0 0 0 0 0 0 0 0 0.05 0"/>
<feBlend mode="normal" in2="BackgroundImageFix" result="effect1_dropShadow_109_442"/>
<feBlend mode="normal" in="SourceGraphic" in2="effect1_dropShadow_109_442" result="shape"/>
</filter>
<filter id="filter3_d_109_442" x="213.638" y="45.2958" width="18.3339" height="20.4202" filterUnits="userSpaceOnUse" color-interpolation-filters="sRGB">
<feFlood flood-opacity="0" result="BackgroundImageFix"/>
<feColorMatrix in="SourceAlpha" type="matrix" values="0 0 0 0 0 0 0 0 0 0 0 0 0 0 0 0 0 0 127 0" result="hardAlpha"/>
<feMorphology radius="2" operator="erode" in="SourceAlpha" result="effect1_dropShadow_109_442"/>
<feOffset dy="4"/>
<feGaussianBlur stdDeviation="2"/>
<feComposite in2="hardAlpha" operator="out"/>
<feColorMatrix type="matrix" values="0 0 0 0 0 0 0 0 0 0 0 0 0 0 0 0 0 0 0.05 0"/>
<feBlend mode="normal" in2="BackgroundImageFix" result="effect1_dropShadow_109_442"/>
<feBlend mode="normal" in="SourceGraphic" in2="effect1_dropShadow_109_442" result="shape"/>
</filter>
<filter id="filter4_d_109_442" x="232.739" y="38.0997" width="42.2457" height="20.8064" filterUnits="userSpaceOnUse" color-interpolation-filters="sRGB">
<feFlood flood-opacity="0" result="BackgroundImageFix"/>
<feColorMatrix in="SourceAlpha" type="matrix" values="0 0 0 0 0 0 0 0 0 0 0 0 0 0 0 0 0 0 127 0" result="hardAlpha"/>
<feMorphology radius="2" operator="erode" in="SourceAlpha" result="effect1_dropShadow_109_442"/>
<feOffset dy="4"/>
<feGaussianBlur stdDeviation="2"/>
<feComposite in2="hardAlpha" operator="out"/>
<feColorMatrix type="matrix" values="0 0 0 0 0 0 0 0 0 0 0 0 0 0 0 0 0 0 0.05 0"/>
<feBlend mode="normal" in2="BackgroundImageFix" result="effect1_dropShadow_109_442"/>
<feBlend mode="normal" in="SourceGraphic" in2="effect1_dropShadow_109_442" result="shape"/>
</filter>
<filter id="filter5_d_109_442" x="6.10352e-05" y="0" width="135.228" height="45.6819" filterUnits="userSpaceOnUse" color-interpolation-filters="sRGB">
<feFlood flood-opacity="0" result="BackgroundImageFix"/>
<feColorMatrix in="SourceAlpha" type="matrix" values="0 0 0 0 0 0 0 0 0 0 0 0 0 0 0 0 0 0 127 0" result="hardAlpha"/>
<feMorphology radius="2" operator="erode" in="SourceAlpha" result="effect1_dropShadow_109_442"/>
<feOffset dy="4"/>
<feGaussianBlur stdDeviation="2"/>
<feComposite in2="hardAlpha" operator="out"/>
<feColorMatrix type="matrix" values="0 0 0 0 0 0 0 0 0 0 0 0 0 0 0 0 0 0 0.05 0"/>
<feBlend mode="normal" in2="BackgroundImageFix" result="effect1_dropShadow_109_442"/>
<feBlend mode="normal" in="SourceGraphic" in2="effect1_dropShadow_109_442" result="shape"/>
</filter>
<filter id="filter6_d_109_442" x="64.3207" y="41.3171" width="88.7648" height="43.7783" filterUnits="userSpaceOnUse" color-interpolation-filters="sRGB">
<feFlood flood-opacity="0" result="BackgroundImageFix"/>
<feColorMatrix in="SourceAlpha" type="matrix" values="0 0 0 0 0 0 0 0 0 0 0 0 0 0 0 0 0 0 127 0" result="hardAlpha"/>
<feMorphology radius="2" operator="erode" in="SourceAlpha" result="effect1_dropShadow_109_442"/>
<feOffset dy="4"/>
<feGaussianBlur stdDeviation="2"/>
<feComposite in2="hardAlpha" operator="out"/>
<feColorMatrix type="matrix" values="0 0 0 0 0 0 0 0 0 0 0 0 0 0 0 0 0 0 0.05 0"/>
<feBlend mode="normal" in2="BackgroundImageFix" result="effect1_dropShadow_109_442"/>
<feBlend mode="normal" in="SourceGraphic" in2="effect1_dropShadow_109_442" result="shape"/>
</filter>
<filter id="filter7_d_109_442" x="168.462" y="11.4619" width="18.0005" height="20.0005" filterUnits="userSpaceOnUse" color-interpolation-filters="sRGB">
<feFlood flood-opacity="0" result="BackgroundImageFix"/>
<feColorMatrix in="SourceAlpha" type="matrix" values="0 0 0 0 0 0 0 0 0 0 0 0 0 0 0 0 0 0 127 0" result="hardAlpha"/>
<feMorphology radius="2" operator="erode" in="SourceAlpha" result="effect1_dropShadow_109_442"/>
<feOffset dy="4"/>
<feGaussianBlur stdDeviation="2"/>
<feComposite in2="hardAlpha" operator="out"/>
<feColorMatrix type="matrix" values="0 0 0 0 0 0 0 0 0 0 0 0 0 0 0 0 0 0 0.05 0"/>
<feBlend mode="normal" in2="BackgroundImageFix" result="effect1_dropShadow_109_442"/>
<feBlend mode="normal" in="SourceGraphic" in2="effect1_dropShadow_109_442" result="shape"/>
</filter>
<filter id="filter8_d_109_442" x="187.924" y="14.4622" width="43" height="14" filterUnits="userSpaceOnUse" color-interpolation-filters="sRGB">
<feFlood flood-opacity="0" result="BackgroundImageFix"/>
<feColorMatrix in="SourceAlpha" type="matrix" values="0 0 0 0 0 0 0 0 0 0 0 0 0 0 0 0 0 0 127 0" result="hardAlpha"/>
<feMorphology radius="2" operator="erode" in="SourceAlpha" result="effect1_dropShadow_109_442"/>
<feOffset dy="4"/>
<feGaussianBlur stdDeviation="2"/>
<feComposite in2="hardAlpha" operator="out"/>
<feColorMatrix type="matrix" values="0 0 0 0 0 0 0 0 0 0 0 0 0 0 0 0 0 0 0.05 0"/>
<feBlend mode="normal" in2="BackgroundImageFix" result="effect1_dropShadow_109_442"/>
<feBlend mode="normal" in="SourceGraphic" in2="effect1_dropShadow_109_442" result="shape"/>
</filter>
<filter id="filter9_d_109_442" x="168.462" y="94.4618" width="18.0005" height="20.0006" filterUnits="userSpaceOnUse" color-interpolation-filters="sRGB">
<feFlood flood-opacity="0" result="BackgroundImageFix"/>
<feColorMatrix in="SourceAlpha" type="matrix" values="0 0 0 0 0 0 0 0 0 0 0 0 0 0 0 0 0 0 127 0" result="hardAlpha"/>
<feMorphology radius="2" operator="erode" in="SourceAlpha" result="effect1_dropShadow_109_442"/>
<feOffset dy="4"/>
<feGaussianBlur stdDeviation="2"/>
<feComposite in2="hardAlpha" operator="out"/>
<feColorMatrix type="matrix" values="0 0 0 0 0 0 0 0 0 0 0 0 0 0 0 0 0 0 0.05 0"/>
<feBlend mode="normal" in2="BackgroundImageFix" result="effect1_dropShadow_109_442"/>
<feBlend mode="normal" in="SourceGraphic" in2="effect1_dropShadow_109_442" result="shape"/>
</filter>
<filter id="filter10_d_109_442" x="187.924" y="97.4623" width="43" height="14" filterUnits="userSpaceOnUse" color-interpolation-filters="sRGB">
<feFlood flood-opacity="0" result="BackgroundImageFix"/>
<feColorMatrix in="SourceAlpha" type="matrix" values="0 0 0 0 0 0 0 0 0 0 0 0 0 0 0 0 0 0 127 0" result="hardAlpha"/>
<feMorphology radius="2" operator="erode" in="SourceAlpha" result="effect1_dropShadow_109_442"/>
<feOffset dy="4"/>
<feGaussianBlur stdDeviation="2"/>
<feComposite in2="hardAlpha" operator="out"/>
<feColorMatrix type="matrix" values="0 0 0 0 0 0 0 0 0 0 0 0 0 0 0 0 0 0 0.05 0"/>
<feBlend mode="normal" in2="BackgroundImageFix" result="effect1_dropShadow_109_442"/>
<feBlend mode="normal" in="SourceGraphic" in2="effect1_dropShadow_109_442" result="shape"/>
</filter>
<linearGradient id="paint0_linear_109_442" x1="-0.455781" y1="20.4714" x2="67.3544" y2="-46.3364" gradientUnits="userSpaceOnUse">
<stop stop-color="#4285F4"/>
<stop offset="0.541667" stop-color="#9B72CB"/>
<stop offset="1" stop-color="#D96570"/>
</linearGradient>
<linearGradient id="paint1_linear_109_442" x1="74.7637" y1="42.4864" x2="150.91" y2="59.2523" gradientUnits="userSpaceOnUse">
<stop offset="0.394769" stop-color="#FECF08"/>
<stop offset="1" stop-color="#FECF08" stop-opacity="0"/>
</linearGradient>
<linearGradient id="paint2_linear_109_442" x1="3.18032" y1="92.0771" x2="3.18032" y2="117.695" gradientUnits="userSpaceOnUse">
<stop stop-color="#52ACFF"/>
<stop offset="1" stop-color="#FFE32C"/>
</linearGradient>
<linearGradient id="paint3_linear_109_442" x1="32.8537" y1="51.4299" x2="16.6136" y2="54.5232" gradientUnits="userSpaceOnUse">
<stop stop-color="#FF5ACD"/>
<stop offset="1" stop-color="#FAD961"/>
</linearGradient>
<linearGradient id="paint4_linear_109_442" x1="65.2576" y1="107.756" x2="43.0297" y2="98.3467" gradientUnits="userSpaceOnUse">
<stop stop-color="#21D4FD"/>
<stop offset="1" stop-color="#B721FF"/>
</linearGradient>
<linearGradient id="paint5_linear_109_442" x1="84.6713" y1="51.514" x2="63.0874" y2="58.3731" gradientUnits="userSpaceOnUse">
<stop stop-color="#FF5ACD"/>
<stop offset="1" stop-color="#FAD961"/>
</linearGradient>
<linearGradient id="paint6_linear_109_442" x1="120.328" y1="93.5969" x2="107.517" y2="90.9627" gradientUnits="userSpaceOnUse">
<stop stop-color="#F4D03F"/>
<stop offset="1" stop-color="#16A085"/>
</linearGradient>
</defs>
</svg>
