<svg width="23" height="24" viewBox="0 0 23 24" fill="none" xmlns="http://www.w3.org/2000/svg">
<g clip-path="url(#clip0_2943_6118)">
<path d="M11.4979 23.4065C17.8481 23.4065 22.9959 18.2587 22.9959 11.9086C22.9959 5.55844 17.8481 0.410645 11.4979 0.410645C5.1478 0.410645 0 5.55844 0 11.9086C0 18.2587 5.1478 23.4065 11.4979 23.4065Z" fill="#24292F"/>
<path fill-rule="evenodd" clip-rule="evenodd" d="M5.20459 11.7873C8.55647 10.327 10.7916 9.36421 11.9099 8.89905C15.103 7.57093 15.7665 7.34022 16.199 7.3326C16.2941 7.33093 16.5068 7.3545 16.6445 7.46628C16.7609 7.56067 16.7929 7.68817 16.8082 7.77766C16.8235 7.86715 16.8426 8.071 16.8274 8.23029C16.6544 10.0484 15.9056 14.4604 15.5247 16.4967C15.3636 17.3584 15.0462 17.6473 14.739 17.6755C14.0713 17.737 13.5642 17.2343 12.9175 16.8103C11.9056 16.147 11.3339 15.734 10.3516 15.0867C9.21636 14.3386 9.95226 13.9275 10.5992 13.2555C10.7685 13.0797 13.7105 10.4038 13.7674 10.161C13.7745 10.1307 13.7811 10.0175 13.7139 9.95774C13.6467 9.89798 13.5474 9.91842 13.4758 9.93467C13.3743 9.9577 11.7577 11.0262 8.62594 13.1403C8.16707 13.4554 7.75143 13.6089 7.37904 13.6008C6.9685 13.592 6.1788 13.3687 5.59173 13.1779C4.87167 12.9438 4.29938 12.8201 4.34922 12.4226C4.37517 12.2155 4.6603 12.0038 5.20459 11.7873Z" fill="white"/>
</g>
<defs>
<clipPath id="clip0_2943_6118">
<rect y="0.410645" width="22.9959" height="22.9959" rx="11.4979" fill="white"/>
</clipPath>
</defs>
</svg>
