<svg width="102" height="41" viewBox="0 0 102 41" fill="none" xmlns="http://www.w3.org/2000/svg">
<path d="M17.1397 35.393V40.3179C29.2293 38.3172 32.9787 16.7706 15.3033 13H0V23.9272H4.97358V18.0019H15.4564C24.9444 20.7721 24.3323 31.7762 17.1397 35.393Z" fill="#004448"/>
<path d="M0 27.9287H12.3957V40.3949H0V27.9287Z" fill="#09F477"/>
<path d="M34.8959 25.861H42.738V28.9677H34.8959V25.861ZM35.1759 35.0617H31.3949V18.3332H43.7416V21.4399H35.1759V35.0617Z" fill="#004448"/>
<path d="M54.0773 35.3485C52.7859 35.3485 51.5878 35.1334 50.483 34.7032C49.3938 34.2731 48.4447 33.6677 47.6356 32.887C46.842 32.1063 46.2196 31.1902 45.7684 30.1387C45.3327 29.0872 45.1149 27.9401 45.1149 26.6974C45.1149 25.4547 45.3327 24.3076 45.7684 23.2561C46.2196 22.2046 46.8498 21.2885 47.6589 20.5079C48.468 19.7272 49.4172 19.1218 50.5063 18.6916C51.5955 18.2615 52.7781 18.0464 54.054 18.0464C55.3455 18.0464 56.528 18.2615 57.6016 18.6916C58.6908 19.1218 59.6322 19.7272 60.4258 20.5079C61.2349 21.2885 61.865 22.2046 62.3163 23.2561C62.7675 24.2917 62.9931 25.4388 62.9931 26.6974C62.9931 27.9401 62.7675 29.0952 62.3163 30.1626C61.865 31.2141 61.2349 32.1302 60.4258 32.9109C59.6322 33.6756 58.6908 34.2731 57.6016 34.7032C56.528 35.1334 55.3532 35.3485 54.0773 35.3485ZM54.054 32.0506C54.7853 32.0506 55.4544 31.9231 56.0612 31.6682C56.6836 31.4133 57.2282 31.0468 57.695 30.5689C58.1618 30.0909 58.5197 29.5253 58.7686 28.8721C59.0332 28.2189 59.1654 27.494 59.1654 26.6974C59.1654 25.9008 59.0332 25.1759 58.7686 24.5227C58.5197 23.8695 58.1618 23.3039 57.695 22.826C57.2438 22.348 56.707 21.9816 56.0846 21.7267C55.4622 21.4718 54.7853 21.3443 54.054 21.3443C53.3227 21.3443 52.6458 21.4718 52.0234 21.7267C51.4166 21.9816 50.8798 22.348 50.413 22.826C49.9462 23.3039 49.5805 23.8695 49.316 24.5227C49.0671 25.1759 48.9426 25.9008 48.9426 26.6974C48.9426 27.4781 49.0671 28.203 49.316 28.8721C49.5805 29.5253 49.9384 30.0909 50.3897 30.5689C50.8564 31.0468 51.401 31.4133 52.0234 31.6682C52.6458 31.9231 53.3227 32.0506 54.054 32.0506Z" fill="#004448"/>
<path d="M65.8348 35.0617V18.3332H72.9067C74.3693 18.3332 75.6297 18.5801 76.6877 19.074C77.7458 19.552 78.5627 20.245 79.1384 21.1531C79.7141 22.0612 80.002 23.1446 80.002 24.4032C80.002 25.6459 79.7141 26.7213 79.1384 27.6294C78.5627 28.5216 77.7458 29.2067 76.6877 29.6847C75.6297 30.1626 74.3693 30.4016 72.9067 30.4016H67.9353L69.6158 28.7049V35.0617H65.8348ZM76.221 35.0617L72.1365 28.9916H76.1743L80.3054 35.0617H76.221ZM69.6158 29.135L67.9353 27.3188H72.6966C73.8636 27.3188 74.735 27.0639 75.3107 26.554C75.8864 26.0283 76.1743 25.3113 76.1743 24.4032C76.1743 23.4792 75.8864 22.7622 75.3107 22.2524C74.735 21.7426 73.8636 21.4877 72.6966 21.4877H67.9353L69.6158 19.6475V29.135Z" fill="#004448"/>
<path d="M82.9977 35.0617V18.3332H86.1252L93.0805 30.1387H91.4234L98.2619 18.3332H101.366L101.413 35.0617H97.8651L97.8418 23.9014H98.4953L93.0338 33.2932H91.33L85.7518 23.9014H86.5453V35.0617H82.9977Z" fill="#004448"/>
<rect x="57.4127" y="0.69751" width="44" height="16" rx="8" fill="#F7F8F9"/>
<path d="M64.9597 11.7605C64.4317 11.7605 64.0237 11.6255 63.7357 11.3555C63.4477 11.0795 63.3037 10.6745 63.3037 10.1405V5.82951H64.4287V10.1135C64.4287 10.3415 64.4857 10.5185 64.5997 10.6445C64.7197 10.7705 64.8847 10.8335 65.0947 10.8335C65.3467 10.8335 65.5567 10.7675 65.7247 10.6355L66.0397 11.4365C65.9077 11.5445 65.7457 11.6255 65.5537 11.6795C65.3617 11.7335 65.1637 11.7605 64.9597 11.7605ZM62.5117 7.82751V6.92751H65.7157V7.82751H62.5117ZM69.066 11.7605C68.532 11.7605 68.064 11.6555 67.662 11.4455C67.266 11.2295 66.957 10.9355 66.735 10.5635C66.519 10.1915 66.411 9.76851 66.411 9.29451C66.411 8.81451 66.516 8.39151 66.726 8.02551C66.942 7.65351 67.236 7.36251 67.608 7.15251C67.986 6.94251 68.415 6.83751 68.895 6.83751C69.363 6.83751 69.78 6.93951 70.146 7.14351C70.512 7.34751 70.8 7.63551 71.01 8.00751C71.22 8.37951 71.325 8.81751 71.325 9.32151C71.325 9.36951 71.322 9.42351 71.316 9.48351C71.316 9.54351 71.313 9.60051 71.307 9.65451H67.302V8.90751H70.713L70.272 9.14151C70.278 8.86551 70.221 8.62251 70.101 8.41251C69.981 8.20251 69.816 8.03751 69.606 7.91751C69.402 7.79751 69.165 7.73751 68.895 7.73751C68.619 7.73751 68.376 7.79751 68.166 7.91751C67.962 8.03751 67.8 8.20551 67.68 8.42151C67.566 8.63151 67.509 8.88051 67.509 9.16851V9.34851C67.509 9.63651 67.575 9.89151 67.707 10.1135C67.839 10.3355 68.025 10.5065 68.265 10.6265C68.505 10.7465 68.781 10.8065 69.093 10.8065C69.363 10.8065 69.606 10.7645 69.822 10.6805C70.038 10.5965 70.23 10.4645 70.398 10.2845L71.001 10.9775C70.785 11.2295 70.512 11.4245 70.182 11.5625C69.858 11.6945 69.486 11.7605 69.066 11.7605ZM73.8906 11.7605C73.4886 11.7605 73.1016 11.7095 72.7296 11.6075C72.3636 11.4995 72.0726 11.3705 71.8566 11.2205L72.2886 10.3655C72.5046 10.5035 72.7626 10.6175 73.0626 10.7075C73.3626 10.7975 73.6626 10.8425 73.9626 10.8425C74.3166 10.8425 74.5716 10.7945 74.7276 10.6985C74.8896 10.6025 74.9706 10.4735 74.9706 10.3115C74.9706 10.1795 74.9166 10.0805 74.8086 10.0145C74.7006 9.94251 74.5596 9.88851 74.3856 9.85251C74.2116 9.81651 74.0166 9.78351 73.8006 9.75351C73.5906 9.72351 73.3776 9.68451 73.1616 9.63651C72.9516 9.58251 72.7596 9.50751 72.5856 9.41151C72.4116 9.30951 72.2706 9.17451 72.1626 9.00651C72.0546 8.83851 72.0006 8.61651 72.0006 8.34051C72.0006 8.03451 72.0876 7.77051 72.2616 7.54851C72.4356 7.32051 72.6786 7.14651 72.9906 7.02651C73.3086 6.90051 73.6836 6.83751 74.1156 6.83751C74.4396 6.83751 74.7666 6.87351 75.0966 6.94551C75.4266 7.01751 75.6996 7.11951 75.9156 7.25151L75.4836 8.10651C75.2556 7.96851 75.0246 7.87551 74.7906 7.82751C74.5626 7.77351 74.3346 7.74651 74.1066 7.74651C73.7646 7.74651 73.5096 7.79751 73.3416 7.89951C73.1796 8.00151 73.0986 8.13051 73.0986 8.28651C73.0986 8.43051 73.1526 8.53851 73.2606 8.61051C73.3686 8.68251 73.5096 8.73951 73.6836 8.78151C73.8576 8.82351 74.0496 8.85951 74.2596 8.88951C74.4756 8.91351 74.6886 8.95251 74.8986 9.00651C75.1086 9.06051 75.3006 9.13551 75.4746 9.23151C75.6546 9.32151 75.7986 9.45051 75.9066 9.61851C76.0146 9.78651 76.0686 10.0055 76.0686 10.2755C76.0686 10.5755 75.9786 10.8365 75.7986 11.0585C75.6246 11.2805 75.3756 11.4545 75.0516 11.5805C74.7276 11.7005 74.3406 11.7605 73.8906 11.7605ZM78.8464 11.7605C78.3184 11.7605 77.9104 11.6255 77.6224 11.3555C77.3344 11.0795 77.1904 10.6745 77.1904 10.1405V5.82951H78.3154V10.1135C78.3154 10.3415 78.3724 10.5185 78.4864 10.6445C78.6064 10.7705 78.7714 10.8335 78.9814 10.8335C79.2334 10.8335 79.4434 10.7675 79.6114 10.6355L79.9264 11.4365C79.7944 11.5445 79.6324 11.6255 79.4404 11.6795C79.2484 11.7335 79.0504 11.7605 78.8464 11.7605ZM76.3984 7.82751V6.92751H79.6024V7.82751H76.3984ZM83.5789 6.83751C83.9629 6.83751 84.3049 6.91251 84.6049 7.06251C84.9109 7.21251 85.1509 7.44351 85.3249 7.75551C85.4989 8.06151 85.5859 8.45751 85.5859 8.94351V11.6975H84.4609V9.08751C84.4609 8.66151 84.3589 8.34351 84.1549 8.13351C83.9569 7.92351 83.6779 7.81851 83.3179 7.81851C83.0539 7.81851 82.8199 7.87251 82.6159 7.98051C82.4119 8.08851 82.2529 8.25051 82.1389 8.46651C82.0309 8.67651 81.9769 8.94351 81.9769 9.26751V11.6975H80.8519V6.89151H81.9229V8.18751L81.7339 7.79151C81.9019 7.48551 82.1449 7.25151 82.4629 7.08951C82.7869 6.92151 83.1589 6.83751 83.5789 6.83751ZM89.2808 11.7605C88.7468 11.7605 88.2788 11.6555 87.8768 11.4455C87.4808 11.2295 87.1718 10.9355 86.9498 10.5635C86.7338 10.1915 86.6258 9.76851 86.6258 9.29451C86.6258 8.81451 86.7308 8.39151 86.9408 8.02551C87.1568 7.65351 87.4508 7.36251 87.8228 7.15251C88.2008 6.94251 88.6298 6.83751 89.1098 6.83751C89.5778 6.83751 89.9948 6.93951 90.3608 7.14351C90.7268 7.34751 91.0148 7.63551 91.2248 8.00751C91.4348 8.37951 91.5398 8.81751 91.5398 9.32151C91.5398 9.36951 91.5368 9.42351 91.5308 9.48351C91.5308 9.54351 91.5278 9.60051 91.5218 9.65451H87.5168V8.90751H90.9278L90.4868 9.14151C90.4928 8.86551 90.4358 8.62251 90.3158 8.41251C90.1958 8.20251 90.0308 8.03751 89.8208 7.91751C89.6168 7.79751 89.3798 7.73751 89.1098 7.73751C88.8338 7.73751 88.5908 7.79751 88.3808 7.91751C88.1768 8.03751 88.0148 8.20551 87.8948 8.42151C87.7808 8.63151 87.7238 8.88051 87.7238 9.16851V9.34851C87.7238 9.63651 87.7898 9.89151 87.9218 10.1135C88.0538 10.3355 88.2398 10.5065 88.4798 10.6265C88.7198 10.7465 88.9958 10.8065 89.3078 10.8065C89.5778 10.8065 89.8208 10.7645 90.0368 10.6805C90.2528 10.5965 90.4448 10.4645 90.6128 10.2845L91.2158 10.9775C90.9998 11.2295 90.7268 11.4245 90.3968 11.5625C90.0728 11.6945 89.7008 11.7605 89.2808 11.7605ZM94.4294 11.7605C93.9014 11.7605 93.4934 11.6255 93.2054 11.3555C92.9174 11.0795 92.7734 10.6745 92.7734 10.1405V5.82951H93.8984V10.1135C93.8984 10.3415 93.9554 10.5185 94.0694 10.6445C94.1894 10.7705 94.3544 10.8335 94.5644 10.8335C94.8164 10.8335 95.0264 10.7675 95.1944 10.6355L95.5094 11.4365C95.3774 11.5445 95.2154 11.6255 95.0234 11.6795C94.8314 11.7335 94.6334 11.7605 94.4294 11.7605ZM91.9814 7.82751V6.92751H95.1854V7.82751H91.9814Z" fill="#004448"/>
</svg>
