<svg width="143" height="40" viewBox="0 0 143 40" fill="none" xmlns="http://www.w3.org/2000/svg">
<path d="M24.9269 32.0506V39.0995C42.2305 36.2359 47.5968 5.39684 22.2985 0H0.395142V15.6398H7.51372V7.15907H22.5175C36.0976 11.1241 35.2214 26.874 24.9269 32.0506Z" fill="#4D4D4D"/>
<path d="M0.395142 21.3671H18.1368V39.2097H0.395142V21.3671Z" fill="#12AAFF"/>
<path d="M47.5127 18.673H58.3622V22.8707H47.5127V18.673ZM47.9002 31.1047H42.6691V8.50151H59.7507V12.6993H47.9002V31.1047ZM74.05 31.4922C72.2633 31.4922 70.6057 31.2016 69.0773 30.6204C67.5704 30.0392 66.2573 29.2211 65.1379 28.1663C64.04 27.1115 63.1789 25.8737 62.5547 24.4529C61.9519 23.0322 61.6505 21.4822 61.6505 19.8031C61.6505 18.124 61.9519 16.5741 62.5547 15.1533C63.1789 13.7325 64.0508 12.4947 65.1702 11.4399C66.2896 10.3851 67.6027 9.56709 69.1096 8.98586C70.6165 8.40464 72.2525 8.11403 74.0177 8.11403C75.8045 8.11403 77.4405 8.40464 78.9259 8.98586C80.4327 9.56709 81.7351 10.3851 82.833 11.4399C83.9524 12.4947 84.8242 13.7325 85.4485 15.1533C86.0728 16.5526 86.3849 18.1025 86.3849 19.8031C86.3849 21.4822 86.0728 23.0429 85.4485 24.4852C84.8242 25.906 83.9524 27.1438 82.833 28.1986C81.7351 29.2319 80.4327 30.0392 78.9259 30.6204C77.4405 31.2016 75.8152 31.4922 74.05 31.4922ZM74.0177 27.0362C75.0295 27.0362 75.9551 26.8639 76.7947 26.5195C77.6558 26.1751 78.4092 25.68 79.055 25.0342C79.7008 24.3883 80.1959 23.6241 80.5404 22.7415C80.9063 21.8589 81.0893 20.8795 81.0893 19.8031C81.0893 18.7268 80.9063 17.7473 80.5404 16.8647C80.1959 15.9821 79.7008 15.2179 79.055 14.5721C78.4307 13.9263 77.6881 13.4312 76.827 13.0867C75.9659 12.7423 75.0295 12.5701 74.0177 12.5701C73.006 12.5701 72.0695 12.7423 71.2085 13.0867C70.3689 13.4312 69.6262 13.9263 68.9804 14.5721C68.3346 15.2179 67.8288 15.9821 67.4628 16.8647C67.1184 17.7473 66.9461 18.7268 66.9461 19.8031C66.9461 20.8579 67.1184 21.8374 67.4628 22.7415C67.8288 23.6241 68.3239 24.3883 68.9482 25.0342C69.594 25.68 70.3474 26.1751 71.2085 26.5195C72.0695 26.8639 73.006 27.0362 74.0177 27.0362ZM90.3163 31.1047V8.50151H100.1C102.124 8.50151 103.867 8.83518 105.331 9.50251C106.795 10.1483 107.925 11.0847 108.722 12.3118C109.518 13.5388 109.916 15.0026 109.916 16.7033C109.916 18.3823 109.518 19.8354 108.722 21.0624C107.925 22.268 106.795 23.1936 105.331 23.8394C103.867 24.4852 102.124 24.8081 100.1 24.8081H93.2224L95.5473 22.5155V31.1047H90.3163ZM104.685 31.1047L99.0347 22.903H104.621L110.336 31.1047H104.685ZM95.5473 23.0967L93.2224 20.6427H99.8096C101.424 20.6427 102.63 20.2982 103.426 19.6094C104.223 18.899 104.621 17.9303 104.621 16.7033C104.621 15.4547 104.223 14.486 103.426 13.7971C102.63 13.1083 101.424 12.7638 99.8096 12.7638H93.2224L95.5473 10.2775V23.0967ZM114.061 31.1047V8.50151H118.388L128.01 24.4529H125.718L135.179 8.50151H139.473L139.538 31.1047H134.63L134.598 16.0252H135.502L127.946 28.7153H125.589L117.871 16.0252H118.969V31.1047H114.061Z" fill="#4D4D4D"/>
</svg>
