<svg width="102" height="28" viewBox="0 0 102 28" fill="none" xmlns="http://www.w3.org/2000/svg">
<path d="M17.1397 22.393V27.3179C29.2293 25.3172 32.9787 3.77064 15.3033 0H0V10.9272H4.97358V5.00187H15.4564C24.9444 7.77214 24.3323 18.7762 17.1397 22.393Z" fill="#3F0017"/>
<path d="M0 14.9287H12.3957V27.3949H0V14.9287Z" fill="#FE005B"/>
<path d="M34.8959 12.861H42.738V15.9677H34.8959V12.861ZM35.1759 22.0617H31.3949V5.33316H43.7416V8.43989H35.1759V22.0617Z" fill="#3F0017"/>
<path d="M54.0773 22.3485C52.7859 22.3485 51.5878 22.1334 50.483 21.7032C49.3938 21.2731 48.4447 20.6677 47.6356 19.887C46.842 19.1063 46.2196 18.1902 45.7684 17.1387C45.3327 16.0872 45.1149 14.9401 45.1149 13.6974C45.1149 12.4547 45.3327 11.3076 45.7684 10.2561C46.2196 9.20462 46.8498 8.28854 47.6589 7.50787C48.468 6.72721 49.4172 6.12179 50.5063 5.69163C51.5955 5.26147 52.7781 5.04639 54.054 5.04639C55.3455 5.04639 56.528 5.26147 57.6016 5.69163C58.6908 6.12179 59.6322 6.72721 60.4258 7.50787C61.2349 8.28854 61.865 9.20462 62.3163 10.2561C62.7675 11.2917 62.9931 12.4388 62.9931 13.6974C62.9931 14.9401 62.7675 16.0952 62.3163 17.1626C61.865 18.2141 61.2349 19.1302 60.4258 19.9109C59.6322 20.6756 58.6908 21.2731 57.6016 21.7032C56.528 22.1334 55.3532 22.3485 54.0773 22.3485ZM54.054 19.0506C54.7853 19.0506 55.4544 18.9231 56.0612 18.6682C56.6836 18.4133 57.2282 18.0468 57.695 17.5689C58.1618 17.0909 58.5197 16.5253 58.7686 15.8721C59.0332 15.2189 59.1654 14.494 59.1654 13.6974C59.1654 12.9008 59.0332 12.1759 58.7686 11.5227C58.5197 10.8695 58.1618 10.3039 57.695 9.82597C57.2438 9.34801 56.707 8.98157 56.0846 8.72666C55.4622 8.47175 54.7853 8.3443 54.054 8.3443C53.3227 8.3443 52.6458 8.47175 52.0234 8.72666C51.4166 8.98157 50.8798 9.34801 50.413 9.82597C49.9462 10.3039 49.5805 10.8695 49.316 11.5227C49.0671 12.1759 48.9426 12.9008 48.9426 13.6974C48.9426 14.4781 49.0671 15.203 49.316 15.8721C49.5805 16.5253 49.9384 17.0909 50.3897 17.5689C50.8564 18.0468 51.401 18.4133 52.0234 18.6682C52.6458 18.9231 53.3227 19.0506 54.054 19.0506Z" fill="#3F0017"/>
<path d="M65.8348 22.0617V5.33316H72.9067C74.3693 5.33316 75.6297 5.58011 76.6877 6.074C77.7458 6.55195 78.5627 7.24499 79.1384 8.15311C79.7141 9.06123 80.002 10.1446 80.002 11.4032C80.002 12.6459 79.7141 13.7213 79.1384 14.6294C78.5627 15.5216 77.7458 16.2067 76.6877 16.6847C75.6297 17.1626 74.3693 17.4016 72.9067 17.4016H67.9353L69.6158 15.7049V22.0617H65.8348ZM76.221 22.0617L72.1365 15.9916H76.1743L80.3054 22.0617H76.221ZM69.6158 16.135L67.9353 14.3188H72.6966C73.8636 14.3188 74.735 14.0639 75.3107 13.554C75.8864 13.0283 76.1743 12.3113 76.1743 11.4032C76.1743 10.4792 75.8864 9.76224 75.3107 9.25242C74.735 8.7426 73.8636 8.48768 72.6966 8.48768H67.9353L69.6158 6.64755V16.135Z" fill="#3F0017"/>
<path d="M82.9977 22.0617V5.33316H86.1252L93.0805 17.1387H91.4234L98.2619 5.33316H101.366L101.413 22.0617H97.8651L97.8418 10.9014H98.4953L93.0338 20.2932H91.33L85.7518 10.9014H86.5453V22.0617H82.9977Z" fill="#3F0017"/>
</svg>
