<svg width="103" height="29" viewBox="0 0 103 29" fill="none" xmlns="http://www.w3.org/2000/svg">
<path d="M17.9333 23.3002V28.2251C30.0229 26.2244 33.7722 4.67787 16.0969 0.907227H0.793579V11.8344H5.76716V5.9091H16.2499C25.738 8.67936 25.1259 19.6835 17.9333 23.3002Z" fill="#004448"/>
<path d="M0.793579 15.8359H13.1893V28.3021H0.793579V15.8359Z" fill="#09F477"/>
<path d="M35.6894 13.7682H43.5316V16.875H35.6894V13.7682ZM35.9695 22.9689H32.1885V6.24039H44.5352V9.34711H35.9695V22.9689Z" fill="#004448"/>
<path d="M54.8709 23.2557C53.5794 23.2557 52.3813 23.0406 51.2766 22.6105C50.1874 22.1803 49.2382 21.5749 48.4291 20.7942C47.6356 20.0135 47.0132 19.0975 46.562 18.046C46.1263 16.9944 45.9084 15.8473 45.9084 14.6047C45.9084 13.362 46.1263 12.2149 46.562 11.1634C47.0132 10.1118 47.6434 9.19576 48.4525 8.4151C49.2616 7.63443 50.2107 7.02902 51.2999 6.59886C52.3891 6.16869 53.5717 5.95361 54.8476 5.95361C56.139 5.95361 57.3216 6.16869 58.3952 6.59886C59.4844 7.02902 60.4258 7.63443 61.2193 8.4151C62.0285 9.19576 62.6586 10.1118 63.1099 11.1634C63.5611 12.1989 63.7867 13.346 63.7867 14.6047C63.7867 15.8473 63.5611 17.0024 63.1099 18.0699C62.6586 19.1214 62.0285 20.0374 61.2193 20.8181C60.4258 21.5828 59.4844 22.1803 58.3952 22.6105C57.3216 23.0406 56.1468 23.2557 54.8709 23.2557ZM54.8476 19.9578C55.5789 19.9578 56.248 19.8303 56.8548 19.5754C57.4772 19.3205 58.0218 18.9541 58.4886 18.4761C58.9554 17.9982 59.3133 17.4326 59.5622 16.7794C59.8267 16.1262 59.959 15.4013 59.959 14.6047C59.959 13.8081 59.8267 13.0832 59.5622 12.4299C59.3133 11.7767 58.9554 11.2112 58.4886 10.7332C58.0373 10.2552 57.5005 9.8888 56.8781 9.63389C56.2557 9.37898 55.5789 9.25152 54.8476 9.25152C54.1163 9.25152 53.4394 9.37898 52.817 9.63389C52.2102 9.8888 51.6734 10.2552 51.2066 10.7332C50.7398 11.2112 50.3741 11.7767 50.1096 12.4299C49.8606 13.0832 49.7362 13.8081 49.7362 14.6047C49.7362 15.3853 49.8606 16.1102 50.1096 16.7794C50.3741 17.4326 50.732 17.9982 51.1832 18.4761C51.65 18.9541 52.1946 19.3205 52.817 19.5754C53.4394 19.8303 54.1163 19.9578 54.8476 19.9578Z" fill="#004448"/>
<path d="M66.6283 22.9689V6.24039H73.7003C75.1629 6.24039 76.4233 6.48733 77.4813 6.98122C78.5394 7.45918 79.3563 8.15222 79.932 9.06034C80.5077 9.96846 80.7956 11.0518 80.7956 12.3105C80.7956 13.5531 80.5077 14.6286 79.932 15.5367C79.3563 16.4289 78.5394 17.1139 77.4813 17.5919C76.4233 18.0699 75.1629 18.3088 73.7003 18.3088H68.7289L70.4094 16.6121V22.9689H66.6283ZM77.0145 22.9689L72.9301 16.8989H76.9679L81.099 22.9689H77.0145ZM70.4094 17.0422L68.7289 15.226H73.4902C74.6572 15.226 75.5286 14.9711 76.1043 14.4613C76.68 13.9355 76.9679 13.2186 76.9679 12.3105C76.9679 11.3864 76.68 10.6695 76.1043 10.1596C75.5286 9.64982 74.6572 9.39491 73.4902 9.39491H68.7289L70.4094 7.55477V17.0422Z" fill="#004448"/>
<path d="M83.7913 22.9689V6.24039H86.9188L93.8741 18.046H92.2169L99.0555 6.24039H102.16L102.206 22.9689H98.6587L98.6354 11.8086H99.2889L93.8274 21.2005H92.1236L86.5454 11.8086H87.3389V22.9689H83.7913Z" fill="#004448"/>
</svg>
